<?xml version="1.0" encoding="utf-8" standalone="no"?>
<!DOCTYPE svg PUBLIC "-//W3C//DTD SVG 1.1//EN"
  "http://www.w3.org/Graphics/SVG/1.1/DTD/svg11.dtd">
<svg xmlns:xlink="http://www.w3.org/1999/xlink" width="406.885938pt" height="211.07625pt" viewBox="0 0 406.885938 211.07625" xmlns="http://www.w3.org/2000/svg" version="1.1">
 <metadata>
  <rdf:RDF xmlns:dc="http://purl.org/dc/elements/1.1/" xmlns:cc="http://creativecommons.org/ns#" xmlns:rdf="http://www.w3.org/1999/02/22-rdf-syntax-ns#">
   <cc:Work>
    <dc:type rdf:resource="http://purl.org/dc/dcmitype/StillImage"/>
    <dc:date>2024-02-21T16:49:24.872553</dc:date>
    <dc:format>image/svg+xml</dc:format>
    <dc:creator>
     <cc:Agent>
      <dc:title>Matplotlib v3.5.1, https://matplotlib.org/</dc:title>
     </cc:Agent>
    </dc:creator>
   </cc:Work>
  </rdf:RDF>
 </metadata>
 <defs>
  <style type="text/css">*{stroke-linejoin: round; stroke-linecap: butt}</style>
 </defs>
 <g id="figure_1">
  <g id="patch_1">
   <path d="M 0 211.07625 
L 406.885938 211.07625 
L 406.885938 0 
L 0 0 
z
" style="fill: #ffffff"/>
  </g>
  <g id="axes_1">
   <g id="patch_2">
    <path d="M 52.160938 173.52 
L 386.960938 173.52 
L 386.960938 7.2 
L 52.160938 7.2 
z
" style="fill: #ffffff"/>
   </g>
   <g id="matplotlib.axis_1">
    <g id="xtick_1">
     <g id="line2d_1">
      <path d="M 117.775008 173.52 
L 117.775008 7.2 
" clip-path="url(#p59ee1b88d5)" style="fill: none; stroke: #b0b0b0; stroke-width: 0.8; stroke-linecap: square"/>
     </g>
     <g id="line2d_2">
      <defs>
       <path id="m06db379cdc" d="M 0 0 
L 0 3.5 
" style="stroke: #000000; stroke-width: 0.8"/>
      </defs>
      <g>
       <use xlink:href="#m06db379cdc" x="117.775008" y="173.52" style="stroke: #000000; stroke-width: 0.8"/>
      </g>
     </g>
     <g id="text_1">
      <!-- 200 -->
      <g transform="translate(108.231258 188.118438)scale(0.1 -0.1)">
       <defs>
        <path id="DejaVuSans-32" d="M 1228 531 
L 3431 531 
L 3431 0 
L 469 0 
L 469 531 
Q 828 903 1448 1529 
Q 2069 2156 2228 2338 
Q 2531 2678 2651 2914 
Q 2772 3150 2772 3378 
Q 2772 3750 2511 3984 
Q 2250 4219 1831 4219 
Q 1534 4219 1204 4116 
Q 875 4013 500 3803 
L 500 4441 
Q 881 4594 1212 4672 
Q 1544 4750 1819 4750 
Q 2544 4750 2975 4387 
Q 3406 4025 3406 3419 
Q 3406 3131 3298 2873 
Q 3191 2616 2906 2266 
Q 2828 2175 2409 1742 
Q 1991 1309 1228 531 
z
" transform="scale(0.015625)"/>
        <path id="DejaVuSans-30" d="M 2034 4250 
Q 1547 4250 1301 3770 
Q 1056 3291 1056 2328 
Q 1056 1369 1301 889 
Q 1547 409 2034 409 
Q 2525 409 2770 889 
Q 3016 1369 3016 2328 
Q 3016 3291 2770 3770 
Q 2525 4250 2034 4250 
z
M 2034 4750 
Q 2819 4750 3233 4129 
Q 3647 3509 3647 2328 
Q 3647 1150 3233 529 
Q 2819 -91 2034 -91 
Q 1250 -91 836 529 
Q 422 1150 422 2328 
Q 422 3509 836 4129 
Q 1250 4750 2034 4750 
z
" transform="scale(0.015625)"/>
       </defs>
       <use xlink:href="#DejaVuSans-32"/>
       <use xlink:href="#DejaVuSans-30" x="63.623047"/>
       <use xlink:href="#DejaVuSans-30" x="127.246094"/>
      </g>
     </g>
    </g>
    <g id="xtick_2">
     <g id="line2d_3">
      <path d="M 185.07149 173.52 
L 185.07149 7.2 
" clip-path="url(#p59ee1b88d5)" style="fill: none; stroke: #b0b0b0; stroke-width: 0.8; stroke-linecap: square"/>
     </g>
     <g id="line2d_4">
      <g>
       <use xlink:href="#m06db379cdc" x="185.07149" y="173.52" style="stroke: #000000; stroke-width: 0.8"/>
      </g>
     </g>
     <g id="text_2">
      <!-- 400 -->
      <g transform="translate(175.52774 188.118438)scale(0.1 -0.1)">
       <defs>
        <path id="DejaVuSans-34" d="M 2419 4116 
L 825 1625 
L 2419 1625 
L 2419 4116 
z
M 2253 4666 
L 3047 4666 
L 3047 1625 
L 3713 1625 
L 3713 1100 
L 3047 1100 
L 3047 0 
L 2419 0 
L 2419 1100 
L 313 1100 
L 313 1709 
L 2253 4666 
z
" transform="scale(0.015625)"/>
       </defs>
       <use xlink:href="#DejaVuSans-34"/>
       <use xlink:href="#DejaVuSans-30" x="63.623047"/>
       <use xlink:href="#DejaVuSans-30" x="127.246094"/>
      </g>
     </g>
    </g>
    <g id="xtick_3">
     <g id="line2d_5">
      <path d="M 252.367973 173.52 
L 252.367973 7.2 
" clip-path="url(#p59ee1b88d5)" style="fill: none; stroke: #b0b0b0; stroke-width: 0.8; stroke-linecap: square"/>
     </g>
     <g id="line2d_6">
      <g>
       <use xlink:href="#m06db379cdc" x="252.367973" y="173.52" style="stroke: #000000; stroke-width: 0.8"/>
      </g>
     </g>
     <g id="text_3">
      <!-- 600 -->
      <g transform="translate(242.824223 188.118438)scale(0.1 -0.1)">
       <defs>
        <path id="DejaVuSans-36" d="M 2113 2584 
Q 1688 2584 1439 2293 
Q 1191 2003 1191 1497 
Q 1191 994 1439 701 
Q 1688 409 2113 409 
Q 2538 409 2786 701 
Q 3034 994 3034 1497 
Q 3034 2003 2786 2293 
Q 2538 2584 2113 2584 
z
M 3366 4563 
L 3366 3988 
Q 3128 4100 2886 4159 
Q 2644 4219 2406 4219 
Q 1781 4219 1451 3797 
Q 1122 3375 1075 2522 
Q 1259 2794 1537 2939 
Q 1816 3084 2150 3084 
Q 2853 3084 3261 2657 
Q 3669 2231 3669 1497 
Q 3669 778 3244 343 
Q 2819 -91 2113 -91 
Q 1303 -91 875 529 
Q 447 1150 447 2328 
Q 447 3434 972 4092 
Q 1497 4750 2381 4750 
Q 2619 4750 2861 4703 
Q 3103 4656 3366 4563 
z
" transform="scale(0.015625)"/>
       </defs>
       <use xlink:href="#DejaVuSans-36"/>
       <use xlink:href="#DejaVuSans-30" x="63.623047"/>
       <use xlink:href="#DejaVuSans-30" x="127.246094"/>
      </g>
     </g>
    </g>
    <g id="xtick_4">
     <g id="line2d_7">
      <path d="M 319.664455 173.52 
L 319.664455 7.2 
" clip-path="url(#p59ee1b88d5)" style="fill: none; stroke: #b0b0b0; stroke-width: 0.8; stroke-linecap: square"/>
     </g>
     <g id="line2d_8">
      <g>
       <use xlink:href="#m06db379cdc" x="319.664455" y="173.52" style="stroke: #000000; stroke-width: 0.8"/>
      </g>
     </g>
     <g id="text_4">
      <!-- 800 -->
      <g transform="translate(310.120705 188.118438)scale(0.1 -0.1)">
       <defs>
        <path id="DejaVuSans-38" d="M 2034 2216 
Q 1584 2216 1326 1975 
Q 1069 1734 1069 1313 
Q 1069 891 1326 650 
Q 1584 409 2034 409 
Q 2484 409 2743 651 
Q 3003 894 3003 1313 
Q 3003 1734 2745 1975 
Q 2488 2216 2034 2216 
z
M 1403 2484 
Q 997 2584 770 2862 
Q 544 3141 544 3541 
Q 544 4100 942 4425 
Q 1341 4750 2034 4750 
Q 2731 4750 3128 4425 
Q 3525 4100 3525 3541 
Q 3525 3141 3298 2862 
Q 3072 2584 2669 2484 
Q 3125 2378 3379 2068 
Q 3634 1759 3634 1313 
Q 3634 634 3220 271 
Q 2806 -91 2034 -91 
Q 1263 -91 848 271 
Q 434 634 434 1313 
Q 434 1759 690 2068 
Q 947 2378 1403 2484 
z
M 1172 3481 
Q 1172 3119 1398 2916 
Q 1625 2713 2034 2713 
Q 2441 2713 2670 2916 
Q 2900 3119 2900 3481 
Q 2900 3844 2670 4047 
Q 2441 4250 2034 4250 
Q 1625 4250 1398 4047 
Q 1172 3844 1172 3481 
z
" transform="scale(0.015625)"/>
       </defs>
       <use xlink:href="#DejaVuSans-38"/>
       <use xlink:href="#DejaVuSans-30" x="63.623047"/>
       <use xlink:href="#DejaVuSans-30" x="127.246094"/>
      </g>
     </g>
    </g>
    <g id="xtick_5">
     <g id="line2d_9">
      <path d="M 386.960938 173.52 
L 386.960938 7.2 
" clip-path="url(#p59ee1b88d5)" style="fill: none; stroke: #b0b0b0; stroke-width: 0.8; stroke-linecap: square"/>
     </g>
     <g id="line2d_10">
      <g>
       <use xlink:href="#m06db379cdc" x="386.960938" y="173.52" style="stroke: #000000; stroke-width: 0.8"/>
      </g>
     </g>
     <g id="text_5">
      <!-- 1000 -->
      <g transform="translate(374.235938 188.118438)scale(0.1 -0.1)">
       <defs>
        <path id="DejaVuSans-31" d="M 794 531 
L 1825 531 
L 1825 4091 
L 703 3866 
L 703 4441 
L 1819 4666 
L 2450 4666 
L 2450 531 
L 3481 531 
L 3481 0 
L 794 0 
L 794 531 
z
" transform="scale(0.015625)"/>
       </defs>
       <use xlink:href="#DejaVuSans-31"/>
       <use xlink:href="#DejaVuSans-30" x="63.623047"/>
       <use xlink:href="#DejaVuSans-30" x="127.246094"/>
       <use xlink:href="#DejaVuSans-30" x="190.869141"/>
      </g>
     </g>
    </g>
    <g id="text_6">
     <!-- time -->
     <g transform="translate(208.264844 201.796563)scale(0.1 -0.1)">
      <defs>
       <path id="DejaVuSans-74" d="M 1172 4494 
L 1172 3500 
L 2356 3500 
L 2356 3053 
L 1172 3053 
L 1172 1153 
Q 1172 725 1289 603 
Q 1406 481 1766 481 
L 2356 481 
L 2356 0 
L 1766 0 
Q 1100 0 847 248 
Q 594 497 594 1153 
L 594 3053 
L 172 3053 
L 172 3500 
L 594 3500 
L 594 4494 
L 1172 4494 
z
" transform="scale(0.015625)"/>
       <path id="DejaVuSans-69" d="M 603 3500 
L 1178 3500 
L 1178 0 
L 603 0 
L 603 3500 
z
M 603 4863 
L 1178 4863 
L 1178 4134 
L 603 4134 
L 603 4863 
z
" transform="scale(0.015625)"/>
       <path id="DejaVuSans-6d" d="M 3328 2828 
Q 3544 3216 3844 3400 
Q 4144 3584 4550 3584 
Q 5097 3584 5394 3201 
Q 5691 2819 5691 2113 
L 5691 0 
L 5113 0 
L 5113 2094 
Q 5113 2597 4934 2840 
Q 4756 3084 4391 3084 
Q 3944 3084 3684 2787 
Q 3425 2491 3425 1978 
L 3425 0 
L 2847 0 
L 2847 2094 
Q 2847 2600 2669 2842 
Q 2491 3084 2119 3084 
Q 1678 3084 1418 2786 
Q 1159 2488 1159 1978 
L 1159 0 
L 581 0 
L 581 3500 
L 1159 3500 
L 1159 2956 
Q 1356 3278 1631 3431 
Q 1906 3584 2284 3584 
Q 2666 3584 2933 3390 
Q 3200 3197 3328 2828 
z
" transform="scale(0.015625)"/>
       <path id="DejaVuSans-65" d="M 3597 1894 
L 3597 1613 
L 953 1613 
Q 991 1019 1311 708 
Q 1631 397 2203 397 
Q 2534 397 2845 478 
Q 3156 559 3463 722 
L 3463 178 
Q 3153 47 2828 -22 
Q 2503 -91 2169 -91 
Q 1331 -91 842 396 
Q 353 884 353 1716 
Q 353 2575 817 3079 
Q 1281 3584 2069 3584 
Q 2775 3584 3186 3129 
Q 3597 2675 3597 1894 
z
M 3022 2063 
Q 3016 2534 2758 2815 
Q 2500 3097 2075 3097 
Q 1594 3097 1305 2825 
Q 1016 2553 972 2059 
L 3022 2063 
z
" transform="scale(0.015625)"/>
      </defs>
      <use xlink:href="#DejaVuSans-74"/>
      <use xlink:href="#DejaVuSans-69" x="39.208984"/>
      <use xlink:href="#DejaVuSans-6d" x="66.992188"/>
      <use xlink:href="#DejaVuSans-65" x="164.404297"/>
     </g>
    </g>
   </g>
   <g id="matplotlib.axis_2">
    <g id="ytick_1">
     <g id="line2d_11">
      <path d="M 52.160938 163.427313 
L 386.960938 163.427313 
" clip-path="url(#p59ee1b88d5)" style="fill: none; stroke: #b0b0b0; stroke-width: 0.8; stroke-linecap: square"/>
     </g>
     <g id="line2d_12">
      <defs>
       <path id="mf4b62bbbb8" d="M 0 0 
L -3.5 0 
" style="stroke: #000000; stroke-width: 0.8"/>
      </defs>
      <g>
       <use xlink:href="#mf4b62bbbb8" x="52.160938" y="163.427313" style="stroke: #000000; stroke-width: 0.8"/>
      </g>
     </g>
     <g id="text_7">
      <!-- −2.0 -->
      <g transform="translate(20.878125 167.226532)scale(0.1 -0.1)">
       <defs>
        <path id="DejaVuSans-2212" d="M 678 2272 
L 4684 2272 
L 4684 1741 
L 678 1741 
L 678 2272 
z
" transform="scale(0.015625)"/>
        <path id="DejaVuSans-2e" d="M 684 794 
L 1344 794 
L 1344 0 
L 684 0 
L 684 794 
z
" transform="scale(0.015625)"/>
       </defs>
       <use xlink:href="#DejaVuSans-2212"/>
       <use xlink:href="#DejaVuSans-32" x="83.789062"/>
       <use xlink:href="#DejaVuSans-2e" x="147.412109"/>
       <use xlink:href="#DejaVuSans-30" x="179.199219"/>
      </g>
     </g>
    </g>
    <g id="ytick_2">
     <g id="line2d_13">
      <path d="M 52.160938 139.361351 
L 386.960938 139.361351 
" clip-path="url(#p59ee1b88d5)" style="fill: none; stroke: #b0b0b0; stroke-width: 0.8; stroke-linecap: square"/>
     </g>
     <g id="line2d_14">
      <g>
       <use xlink:href="#mf4b62bbbb8" x="52.160938" y="139.361351" style="stroke: #000000; stroke-width: 0.8"/>
      </g>
     </g>
     <g id="text_8">
      <!-- −1.5 -->
      <g transform="translate(20.878125 143.16057)scale(0.1 -0.1)">
       <defs>
        <path id="DejaVuSans-35" d="M 691 4666 
L 3169 4666 
L 3169 4134 
L 1269 4134 
L 1269 2991 
Q 1406 3038 1543 3061 
Q 1681 3084 1819 3084 
Q 2600 3084 3056 2656 
Q 3513 2228 3513 1497 
Q 3513 744 3044 326 
Q 2575 -91 1722 -91 
Q 1428 -91 1123 -41 
Q 819 9 494 109 
L 494 744 
Q 775 591 1075 516 
Q 1375 441 1709 441 
Q 2250 441 2565 725 
Q 2881 1009 2881 1497 
Q 2881 1984 2565 2268 
Q 2250 2553 1709 2553 
Q 1456 2553 1204 2497 
Q 953 2441 691 2322 
L 691 4666 
z
" transform="scale(0.015625)"/>
       </defs>
       <use xlink:href="#DejaVuSans-2212"/>
       <use xlink:href="#DejaVuSans-31" x="83.789062"/>
       <use xlink:href="#DejaVuSans-2e" x="147.412109"/>
       <use xlink:href="#DejaVuSans-35" x="179.199219"/>
      </g>
     </g>
    </g>
    <g id="ytick_3">
     <g id="line2d_15">
      <path d="M 52.160938 115.295389 
L 386.960938 115.295389 
" clip-path="url(#p59ee1b88d5)" style="fill: none; stroke: #b0b0b0; stroke-width: 0.8; stroke-linecap: square"/>
     </g>
     <g id="line2d_16">
      <g>
       <use xlink:href="#mf4b62bbbb8" x="52.160938" y="115.295389" style="stroke: #000000; stroke-width: 0.8"/>
      </g>
     </g>
     <g id="text_9">
      <!-- −1.0 -->
      <g transform="translate(20.878125 119.094608)scale(0.1 -0.1)">
       <use xlink:href="#DejaVuSans-2212"/>
       <use xlink:href="#DejaVuSans-31" x="83.789062"/>
       <use xlink:href="#DejaVuSans-2e" x="147.412109"/>
       <use xlink:href="#DejaVuSans-30" x="179.199219"/>
      </g>
     </g>
    </g>
    <g id="ytick_4">
     <g id="line2d_17">
      <path d="M 52.160938 91.229427 
L 386.960938 91.229427 
" clip-path="url(#p59ee1b88d5)" style="fill: none; stroke: #b0b0b0; stroke-width: 0.8; stroke-linecap: square"/>
     </g>
     <g id="line2d_18">
      <g>
       <use xlink:href="#mf4b62bbbb8" x="52.160938" y="91.229427" style="stroke: #000000; stroke-width: 0.8"/>
      </g>
     </g>
     <g id="text_10">
      <!-- −0.5 -->
      <g transform="translate(20.878125 95.028646)scale(0.1 -0.1)">
       <use xlink:href="#DejaVuSans-2212"/>
       <use xlink:href="#DejaVuSans-30" x="83.789062"/>
       <use xlink:href="#DejaVuSans-2e" x="147.412109"/>
       <use xlink:href="#DejaVuSans-35" x="179.199219"/>
      </g>
     </g>
    </g>
    <g id="ytick_5">
     <g id="line2d_19">
      <path d="M 52.160938 67.163466 
L 386.960938 67.163466 
" clip-path="url(#p59ee1b88d5)" style="fill: none; stroke: #b0b0b0; stroke-width: 0.8; stroke-linecap: square"/>
     </g>
     <g id="line2d_20">
      <g>
       <use xlink:href="#mf4b62bbbb8" x="52.160938" y="67.163466" style="stroke: #000000; stroke-width: 0.8"/>
      </g>
     </g>
     <g id="text_11">
      <!-- 0.0 -->
      <g transform="translate(29.257812 70.962684)scale(0.1 -0.1)">
       <use xlink:href="#DejaVuSans-30"/>
       <use xlink:href="#DejaVuSans-2e" x="63.623047"/>
       <use xlink:href="#DejaVuSans-30" x="95.410156"/>
      </g>
     </g>
    </g>
    <g id="ytick_6">
     <g id="line2d_21">
      <path d="M 52.160938 43.097504 
L 386.960938 43.097504 
" clip-path="url(#p59ee1b88d5)" style="fill: none; stroke: #b0b0b0; stroke-width: 0.8; stroke-linecap: square"/>
     </g>
     <g id="line2d_22">
      <g>
       <use xlink:href="#mf4b62bbbb8" x="52.160938" y="43.097504" style="stroke: #000000; stroke-width: 0.8"/>
      </g>
     </g>
     <g id="text_12">
      <!-- 0.5 -->
      <g transform="translate(29.257812 46.896723)scale(0.1 -0.1)">
       <use xlink:href="#DejaVuSans-30"/>
       <use xlink:href="#DejaVuSans-2e" x="63.623047"/>
       <use xlink:href="#DejaVuSans-35" x="95.410156"/>
      </g>
     </g>
    </g>
    <g id="ytick_7">
     <g id="line2d_23">
      <path d="M 52.160938 19.031542 
L 386.960938 19.031542 
" clip-path="url(#p59ee1b88d5)" style="fill: none; stroke: #b0b0b0; stroke-width: 0.8; stroke-linecap: square"/>
     </g>
     <g id="line2d_24">
      <g>
       <use xlink:href="#mf4b62bbbb8" x="52.160938" y="19.031542" style="stroke: #000000; stroke-width: 0.8"/>
      </g>
     </g>
     <g id="text_13">
      <!-- 1.0 -->
      <g transform="translate(29.257812 22.830761)scale(0.1 -0.1)">
       <use xlink:href="#DejaVuSans-31"/>
       <use xlink:href="#DejaVuSans-2e" x="63.623047"/>
       <use xlink:href="#DejaVuSans-30" x="95.410156"/>
      </g>
     </g>
    </g>
    <g id="text_14">
     <!-- x -->
     <g transform="translate(14.798438 93.319375)rotate(-90)scale(0.1 -0.1)">
      <defs>
       <path id="DejaVuSans-78" d="M 3513 3500 
L 2247 1797 
L 3578 0 
L 2900 0 
L 1881 1375 
L 863 0 
L 184 0 
L 1544 1831 
L 300 3500 
L 978 3500 
L 1906 2253 
L 2834 3500 
L 3513 3500 
z
" transform="scale(0.015625)"/>
      </defs>
      <use xlink:href="#DejaVuSans-78"/>
     </g>
    </g>
   </g>
   <g id="line2d_25">
    <path d="M 52.160938 69.739304 
L 52.49742 68.599948 
L 52.833902 61.915928 
L 53.170385 66.508389 
L 53.506867 75.318403 
L 53.84335 67.932503 
L 54.179832 70.758265 
L 54.516314 66.525158 
L 54.852797 55.469923 
L 55.525762 60.234407 
L 55.862244 65.933644 
L 56.198726 69.411196 
L 56.535209 63.417299 
L 56.871691 54.894727 
L 57.208174 49.525022 
L 57.544656 55.003336 
L 57.881139 57.327476 
L 58.217621 52.989957 
L 58.554103 64.602666 
L 58.890586 55.374708 
L 59.227068 52.433634 
L 59.563551 58.007488 
L 59.900033 52.630524 
L 60.572998 66.533813 
L 60.90948 67.630274 
L 61.245963 65.095641 
L 62.25541 45.02372 
L 62.591892 49.568856 
L 62.928375 46.0735 
L 63.264857 46.692241 
L 63.60134 48.417492 
L 64.274304 40.236771 
L 64.947269 47.922159 
L 65.283752 53.501708 
L 65.620234 56.749982 
L 65.956716 49.772085 
L 66.293199 37.488329 
L 66.629681 43.558049 
L 66.966164 43.021269 
L 67.639128 48.179001 
L 67.975611 44.330827 
L 68.312093 43.05857 
L 68.648576 40.498967 
L 68.985058 45.198668 
L 69.321541 36.734512 
L 69.658023 41.777145 
L 69.994505 41.895484 
L 71.003953 43.310467 
L 71.340435 30.642728 
L 71.676917 37.121433 
L 72.0134 27.056508 
L 72.349882 40.811687 
L 72.686365 31.816518 
L 73.022847 40.763986 
L 73.359329 35.510485 
L 73.695812 38.714982 
L 74.368777 41.714399 
L 74.705259 43.807441 
L 75.041742 42.011848 
L 75.378224 43.673952 
L 76.051189 37.786914 
L 76.387671 35.201095 
L 76.724154 34.009633 
L 77.060636 33.869892 
L 77.397118 34.635136 
L 77.733601 34.406689 
L 78.070083 35.055301 
L 78.406566 33.745348 
L 78.743048 33.101068 
L 79.07953 31.908698 
L 79.416013 35.71238 
L 79.752495 28.793782 
L 80.088978 33.010497 
L 80.42546 31.001603 
L 80.761943 38.846271 
L 81.098425 26.942869 
L 81.434907 27.653541 
L 81.77139 25.050408 
L 82.107872 26.679049 
L 82.444355 24.874149 
L 82.780837 26.347641 
L 83.117319 21.086043 
L 83.453802 22.535178 
L 84.463249 29.786506 
L 85.472696 25.452927 
L 85.809179 28.258577 
L 86.145661 22.878698 
L 86.482144 26.753195 
L 86.818626 26.547201 
L 87.155108 27.626407 
L 87.491591 24.19087 
L 87.828073 27.433405 
L 88.164556 26.699843 
L 88.501038 35.013137 
L 88.83752 35.816601 
L 89.174003 36.182306 
L 89.846968 26.603213 
L 90.18345 25.77059 
L 90.519932 26.346224 
L 90.856415 25.187188 
L 91.192897 27.411837 
L 91.52938 25.544614 
L 91.865862 25.541346 
L 92.202345 20.991516 
L 92.538827 23.754845 
L 92.875309 20.711743 
L 93.211792 29.372663 
L 93.548274 25.131864 
L 93.884757 28.8287 
L 94.557721 23.865021 
L 94.894204 25.527575 
L 95.230686 35.114799 
L 95.567169 22.969481 
L 95.903651 30.20215 
L 96.240133 21.860204 
L 96.576616 22.00423 
L 96.913098 22.71166 
L 97.249581 15.031724 
L 97.586063 21.22021 
L 97.922546 19.911352 
L 98.59551 24.147245 
L 98.931993 23.721153 
L 99.268475 25.680958 
L 99.604958 23.436444 
L 99.94144 24.213333 
L 100.277922 22.652056 
L 100.614405 22.121809 
L 100.950887 22.940293 
L 101.28737 18.544411 
L 101.623852 20.861174 
L 101.960334 16.137404 
L 102.296817 16.713442 
L 102.633299 18.664198 
L 102.969782 18.178025 
L 103.306264 25.213943 
L 103.642747 23.09931 
L 103.979229 27.166421 
L 104.315711 19.358466 
L 104.652194 19.344139 
L 104.988676 24.722948 
L 105.325159 20.352234 
L 105.661641 29.281886 
L 105.998123 28.418885 
L 106.334606 28.177976 
L 106.671088 29.422811 
L 107.007571 25.113498 
L 107.344053 24.752844 
L 107.680535 22.11266 
L 108.3535 31.93278 
L 108.689983 28.909579 
L 109.026465 30.763603 
L 109.362948 23.297481 
L 109.69943 22.320465 
L 110.035912 24.971522 
L 110.372395 24.955973 
L 110.708877 29.886518 
L 111.04536 28.035788 
L 111.381842 31.117382 
L 111.718324 25.273848 
L 112.054807 24.900371 
L 112.391289 25.415643 
L 112.727772 24.290299 
L 113.064254 24.232945 
L 113.400736 26.334714 
L 113.737219 21.762857 
L 114.073701 28.553725 
L 114.410184 23.687799 
L 115.083149 29.565401 
L 115.419631 21.547713 
L 115.756113 20.074276 
L 116.092596 14.863045 
L 116.429078 16.450658 
L 116.765561 20.538749 
L 117.102043 23.112427 
L 117.438525 27.344995 
L 117.775008 22.92664 
L 118.11149 21.11446 
L 118.447973 23.505671 
L 118.784455 21.778765 
L 119.120937 20.763259 
L 119.45742 32.264151 
L 119.793902 25.783744 
L 120.130385 35.224445 
L 120.466867 30.989803 
L 120.80335 31.493829 
L 121.476314 24.77772 
L 121.812797 22.360578 
L 122.149279 27.316484 
L 122.485762 26.846351 
L 122.822244 30.674529 
L 123.158726 29.063483 
L 123.495209 30.218506 
L 123.831691 23.011232 
L 124.168174 30.033893 
L 124.504656 24.807921 
L 124.841139 23.174506 
L 125.177621 18.418943 
L 125.850586 28.829041 
L 126.187068 38.453996 
L 126.523551 33.981856 
L 126.860033 36.373213 
L 127.196515 31.923261 
L 127.532998 29.136904 
L 127.86948 33.196745 
L 128.205963 33.694703 
L 128.542445 33.991891 
L 128.878927 33.784878 
L 129.21541 36.283738 
L 129.551892 40.866704 
L 129.888375 40.172161 
L 130.224857 44.213842 
L 130.56134 37.613292 
L 130.897822 38.979212 
L 131.234304 36.806002 
L 131.907269 41.000219 
L 132.916716 33.460143 
L 133.253199 33.794291 
L 133.926164 38.475981 
L 134.262646 41.178916 
L 134.599128 31.57917 
L 134.935611 37.376979 
L 135.272093 26.52029 
L 135.608576 42.306655 
L 135.945058 38.859895 
L 136.281541 43.591018 
L 136.954505 39.025275 
L 137.290988 38.123948 
L 137.62747 42.289832 
L 137.963953 41.950586 
L 138.300435 44.93778 
L 138.636917 41.781127 
L 138.9734 36.950574 
L 139.309882 35.393945 
L 139.646365 32.80921 
L 139.982847 34.59986 
L 140.319329 39.135506 
L 140.655812 39.588893 
L 140.992294 41.73235 
L 141.328777 45.260538 
L 141.665259 41.314858 
L 142.001742 48.105796 
L 142.338224 41.998491 
L 142.674706 45.355036 
L 143.011189 43.719289 
L 143.347671 45.317896 
L 143.684154 44.148182 
L 144.020636 41.215887 
L 144.357118 41.719371 
L 144.693601 36.393186 
L 145.366566 48.430694 
L 145.703048 48.287075 
L 146.03953 52.208655 
L 146.376013 43.926167 
L 147.048978 53.598161 
L 148.058425 50.933577 
L 148.394907 48.333462 
L 148.73139 51.744225 
L 149.067872 48.195466 
L 149.404355 46.137826 
L 150.413802 52.40078 
L 150.750284 55.78311 
L 151.086767 62.863144 
L 151.423249 65.883001 
L 151.759731 70.05293 
L 152.432696 58.486448 
L 152.769179 62.734862 
L 153.105661 62.359463 
L 153.442144 60.019557 
L 153.778626 68.926059 
L 154.451591 58.112171 
L 154.788073 58.003644 
L 155.124556 62.931728 
L 155.461038 64.865336 
L 155.79752 64.302929 
L 156.134003 63.982248 
L 156.470485 79.550499 
L 156.806968 76.71545 
L 157.14345 82.281231 
L 157.479932 80.868594 
L 157.816415 73.564931 
L 158.152897 85.13474 
L 158.48938 81.431711 
L 158.825862 84.700006 
L 159.162345 84.042572 
L 159.498827 68.955211 
L 160.171792 79.254814 
L 160.508274 86.152598 
L 160.844757 83.195866 
L 161.181239 81.627294 
L 161.517721 79.38217 
L 161.854204 81.988493 
L 162.190686 78.696861 
L 162.527169 82.448722 
L 162.863651 82.473449 
L 163.200133 83.112634 
L 163.536616 85.630698 
L 163.873098 84.879056 
L 164.209581 86.295313 
L 164.546063 85.431463 
L 164.882546 83.997964 
L 165.219028 80.526494 
L 165.55551 79.05402 
L 165.891993 76.374165 
L 166.228475 76.919861 
L 166.90144 90.126892 
L 167.237922 91.937896 
L 167.574405 90.811198 
L 167.910887 92.426226 
L 168.583852 92.667127 
L 168.920334 98.066175 
L 169.256817 95.589782 
L 169.593299 96.035317 
L 169.929782 102.932578 
L 170.266264 95.344044 
L 170.602747 92.885432 
L 170.939229 96.866447 
L 171.275711 94.631637 
L 171.612194 99.165295 
L 171.948676 96.202736 
L 172.285159 97.181881 
L 172.621641 90.403048 
L 172.958123 88.673276 
L 173.294606 90.967633 
L 173.631088 88.955643 
L 173.967571 89.694834 
L 174.304053 87.176406 
L 174.640535 86.824198 
L 174.977018 82.586388 
L 175.3135 85.24446 
L 175.649983 93.865727 
L 175.986465 89.898198 
L 176.322948 90.985004 
L 176.65943 93.995556 
L 176.995912 91.207879 
L 177.668877 98.286578 
L 178.00536 106.688079 
L 178.678324 105.879759 
L 179.014807 109.309025 
L 179.351289 105.883684 
L 179.687772 99.092244 
L 180.024254 101.006279 
L 180.360736 99.297697 
L 181.033701 91.502563 
L 181.370184 96.169354 
L 181.706666 103.361368 
L 182.379631 106.847119 
L 182.716113 102.260458 
L 183.052596 95.37813 
L 183.389078 103.270174 
L 183.725561 105.140579 
L 184.062043 108.871749 
L 184.398525 108.097001 
L 184.735008 103.148605 
L 185.07149 104.180162 
L 185.407973 103.214773 
L 185.744455 104.565066 
L 186.080938 108.858128 
L 186.41742 105.543727 
L 186.753902 110.641032 
L 187.090385 104.09627 
L 187.426867 106.98669 
L 187.76335 102.098736 
L 188.099832 102.63051 
L 188.436314 109.521604 
L 188.772797 104.085936 
L 189.109279 112.638035 
L 189.445762 113.344986 
L 189.782244 114.913624 
L 190.118726 119.24565 
L 190.455209 112.344289 
L 190.791691 112.633043 
L 191.128174 107.464016 
L 191.464656 114.236991 
L 191.801139 110.947607 
L 192.137621 112.707777 
L 192.474103 112.534978 
L 192.810586 113.08386 
L 193.147068 115.329334 
L 193.483551 115.040084 
L 193.820033 122.331493 
L 194.156515 116.405924 
L 194.492998 116.080144 
L 194.82948 113.514164 
L 195.165963 105.441121 
L 195.502445 110.357115 
L 195.838927 111.457006 
L 196.17541 113.859319 
L 196.511892 121.538177 
L 196.848375 113.541831 
L 197.184857 113.583895 
L 197.857822 108.228792 
L 198.194304 111.024768 
L 198.530787 108.203666 
L 199.203752 112.883852 
L 199.540234 109.717107 
L 199.876716 111.817223 
L 200.213199 111.800503 
L 200.549681 109.374562 
L 200.886164 112.663459 
L 201.222646 114.278429 
L 201.559128 114.47057 
L 201.895611 118.747233 
L 202.568576 113.911189 
L 202.905058 114.437377 
L 203.241541 117.501356 
L 203.578023 128.751579 
L 203.914505 122.129977 
L 204.250988 121.905923 
L 204.58747 119.488634 
L 204.923953 112.527961 
L 205.260435 121.593455 
L 205.9334 112.628613 
L 206.269882 116.88913 
L 206.606365 117.139096 
L 206.942847 123.823372 
L 207.279329 124.444457 
L 207.615812 122.126081 
L 207.952294 123.099328 
L 208.288777 120.332798 
L 208.625259 125.29332 
L 208.961742 126.07617 
L 209.298224 125.618749 
L 209.634706 122.951322 
L 209.971189 125.167479 
L 210.307671 129.173695 
L 210.644154 129.218565 
L 211.317118 122.556357 
L 211.653601 120.150446 
L 211.990083 115.507744 
L 212.326566 122.205647 
L 212.663048 119.005048 
L 212.99953 120.082912 
L 213.336013 118.395278 
L 213.672495 117.61186 
L 214.008978 122.105505 
L 214.34546 114.561485 
L 214.681943 117.952689 
L 215.018425 116.463181 
L 215.354907 113.304391 
L 215.69139 113.963655 
L 216.027872 115.278328 
L 216.700837 114.233101 
L 217.037319 116.376621 
L 217.710284 111.165045 
L 218.046767 110.55835 
L 219.056214 126.018947 
L 219.392696 122.023513 
L 219.729179 111.492075 
L 220.065661 108.893949 
L 220.738626 117.156287 
L 221.075108 119.886611 
L 221.411591 119.286928 
L 222.084556 113.996349 
L 222.75752 110.74138 
L 223.094003 110.334434 
L 223.430485 107.128631 
L 223.766968 108.748129 
L 224.10345 110.949213 
L 224.439932 115.118296 
L 224.776415 113.003399 
L 225.112897 107.852991 
L 225.44938 110.301338 
L 225.785862 105.438266 
L 226.122345 106.403457 
L 226.458827 109.682204 
L 226.795309 101.658667 
L 227.468274 110.088777 
L 228.141239 106.255331 
L 228.477721 107.861867 
L 229.150686 104.036313 
L 229.487169 109.015848 
L 229.823651 109.789661 
L 230.160133 112.824099 
L 230.496616 107.586856 
L 230.833098 104.187314 
L 231.169581 103.85646 
L 231.506063 105.000664 
L 232.179028 110.415784 
L 232.51551 108.236314 
L 233.188475 99.729166 
L 233.524958 97.912951 
L 233.86144 100.560259 
L 234.197922 107.966868 
L 234.534405 106.591461 
L 234.870887 108.51268 
L 235.20737 109.634661 
L 235.543852 108.514774 
L 235.880334 113.301602 
L 236.216817 110.892627 
L 236.889782 97.211488 
L 237.226264 94.729084 
L 237.562747 98.619896 
L 237.899229 99.566095 
L 238.235711 102.386093 
L 238.572194 103.254266 
L 238.908676 100.708245 
L 239.245159 102.184496 
L 239.581641 102.694343 
L 239.918123 100.021562 
L 240.254606 94.780041 
L 240.591088 97.266385 
L 240.927571 95.481039 
L 241.264053 102.220156 
L 241.600535 101.976881 
L 241.937018 105.908597 
L 242.2735 105.725958 
L 242.609983 104.72369 
L 242.946465 105.735162 
L 243.282948 101.607724 
L 243.61943 101.48987 
L 243.955912 92.077149 
L 244.292395 93.152938 
L 244.628877 87.72613 
L 244.96536 90.31491 
L 245.301842 91.875733 
L 245.638324 86.665414 
L 246.311289 97.606009 
L 246.647772 96.996655 
L 246.984254 95.173409 
L 247.320736 98.746225 
L 247.657219 89.318419 
L 247.993701 92.776664 
L 248.330184 88.149205 
L 248.666666 87.207091 
L 249.003149 88.017471 
L 249.339631 83.070943 
L 249.676113 83.80065 
L 250.012596 80.979915 
L 250.349078 82.069077 
L 250.685561 79.936255 
L 251.022043 83.170537 
L 251.358525 90.080413 
L 251.695008 89.020755 
L 252.03149 89.994203 
L 252.704455 77.743531 
L 253.040938 75.49492 
L 253.37742 74.272662 
L 253.713902 76.346186 
L 254.050385 82.165133 
L 254.386867 84.489593 
L 254.72335 83.714102 
L 255.059832 83.712277 
L 255.396314 84.100572 
L 255.732797 79.830201 
L 256.069279 79.857168 
L 256.405762 77.88163 
L 256.742244 79.982364 
L 257.078726 73.400663 
L 257.415209 79.499401 
L 257.751691 77.518119 
L 258.088174 81.033452 
L 258.424656 75.518014 
L 258.761139 79.76343 
L 259.097621 78.52187 
L 259.434103 78.620219 
L 259.770586 70.970848 
L 260.107068 84.819441 
L 260.443551 79.449789 
L 260.780033 85.803819 
L 261.452998 78.282249 
L 261.78948 75.780515 
L 262.125963 79.356978 
L 262.462445 78.296244 
L 262.798927 72.820501 
L 263.13541 71.489129 
L 263.471892 72.512757 
L 264.817822 48.362315 
L 265.154304 51.153015 
L 265.490787 57.80084 
L 265.827269 56.718115 
L 266.163752 59.316147 
L 266.500234 73.584313 
L 266.836716 64.311166 
L 267.173199 66.883853 
L 267.509681 74.685687 
L 267.846164 56.97317 
L 268.182646 66.125492 
L 268.519128 67.914779 
L 268.855611 65.436704 
L 269.192093 71.944221 
L 269.528576 74.2312 
L 269.865058 59.395803 
L 270.538023 56.944893 
L 270.874505 47.597059 
L 271.210988 51.405793 
L 271.54747 57.236642 
L 271.883953 56.059399 
L 272.556917 65.766219 
L 273.229882 51.124392 
L 273.566365 56.09034 
L 273.902847 58.209224 
L 274.239329 58.204359 
L 274.575812 63.117602 
L 275.248777 44.934572 
L 275.585259 45.715205 
L 275.921742 51.387876 
L 276.258224 53.286297 
L 276.931189 45.346673 
L 277.267671 44.613963 
L 277.940636 48.973155 
L 278.277118 47.975921 
L 278.613601 50.40593 
L 278.950083 43.782984 
L 279.286566 43.255551 
L 279.623048 36.134533 
L 279.95953 37.842806 
L 280.296013 37.218069 
L 280.632495 41.270829 
L 280.968978 40.69342 
L 281.30546 40.560166 
L 281.641943 39.087794 
L 281.978425 35.186559 
L 282.314907 40.477244 
L 282.65139 37.708855 
L 282.987872 40.6242 
L 283.660837 35.669828 
L 283.997319 37.37162 
L 284.333802 34.926503 
L 284.670284 33.780185 
L 285.006767 29.194494 
L 285.343249 34.963856 
L 285.679731 28.069288 
L 286.352696 35.027089 
L 286.689179 36.093173 
L 287.025661 35.362493 
L 287.362144 33.508642 
L 287.698626 35.023583 
L 288.035108 31.763814 
L 288.371591 35.877019 
L 288.708073 36.839849 
L 289.044556 44.833407 
L 289.381038 38.554694 
L 289.71752 38.677075 
L 290.054003 34.270802 
L 290.390485 31.598167 
L 290.726968 33.111447 
L 291.06345 33.526934 
L 291.399932 35.45904 
L 291.736415 33.253225 
L 292.072897 29.266764 
L 292.40938 33.032103 
L 292.745862 29.846902 
L 293.082345 35.751273 
L 293.418827 34.596905 
L 293.755309 37.757256 
L 294.428274 40.212093 
L 294.764757 39.5374 
L 295.101239 37.949879 
L 295.437721 33.675872 
L 295.774204 31.544929 
L 296.110686 30.133994 
L 296.447169 27.401073 
L 296.783651 29.876939 
L 297.120133 31.435556 
L 297.456616 24.689347 
L 297.793098 33.415853 
L 298.129581 24.993343 
L 298.466063 29.270858 
L 298.802546 22.955166 
L 299.139028 24.046788 
L 299.47551 27.09854 
L 299.811993 33.282046 
L 300.484958 32.627263 
L 301.157922 23.012122 
L 301.494405 28.34061 
L 301.830887 24.8181 
L 302.16737 27.306979 
L 302.503852 25.336249 
L 302.840334 24.930715 
L 303.176817 22.579554 
L 303.513299 24.940854 
L 303.849782 22.932633 
L 304.186264 30.560242 
L 304.522747 28.807894 
L 304.859229 29.116001 
L 305.195711 23.283148 
L 305.532194 19.98792 
L 305.868676 29.199271 
L 306.205159 17.215342 
L 306.541641 22.502834 
L 306.878123 19.910067 
L 307.214606 24.238407 
L 307.551088 24.645407 
L 307.887571 27.737946 
L 308.224053 29.764226 
L 308.897018 26.523813 
L 309.2335 20.79663 
L 309.569983 23.388976 
L 309.906465 18.109706 
L 310.242948 22.084183 
L 310.57943 17.182264 
L 310.915912 19.553768 
L 311.252395 18.395034 
L 311.588877 16.166185 
L 311.92536 17.520379 
L 312.261842 20.566055 
L 312.598324 20.074529 
L 312.934807 24.153545 
L 313.271289 18.366735 
L 313.607772 18.997833 
L 314.280736 20.806668 
L 314.617219 24.958968 
L 314.953701 19.830897 
L 315.290184 20.973899 
L 315.626666 15.180045 
L 315.963149 20.222202 
L 316.299631 21.77694 
L 316.636113 26.849449 
L 316.972596 23.745934 
L 317.309078 26.383726 
L 317.645561 21.715583 
L 317.982043 19.89819 
L 318.318525 19.198319 
L 318.655008 18.128176 
L 318.99149 14.76 
L 319.664455 23.815407 
L 320.000938 22.803235 
L 320.33742 26.679835 
L 321.010385 22.642661 
L 321.346867 22.678169 
L 321.68335 20.500334 
L 322.019832 19.518518 
L 322.356314 20.153489 
L 323.365762 30.378348 
L 323.702244 22.389668 
L 324.038726 22.095418 
L 324.375209 22.153519 
L 324.711691 20.757685 
L 325.048174 23.323749 
L 325.384656 23.10479 
L 325.721139 18.692336 
L 326.057621 26.004186 
L 326.394103 16.675773 
L 326.730586 24.529433 
L 327.067068 22.524919 
L 327.403551 28.07393 
L 327.740033 27.582074 
L 328.076515 35.034379 
L 328.412998 30.870664 
L 328.74948 36.08856 
L 329.085963 26.053342 
L 329.422445 29.520463 
L 329.758927 24.667466 
L 330.09541 26.131203 
L 330.431892 30.619091 
L 330.768375 26.23471 
L 331.104857 25.170907 
L 331.44134 22.64849 
L 331.777822 21.729325 
L 332.114304 23.25353 
L 332.450787 22.441807 
L 332.787269 27.171533 
L 333.123752 28.518757 
L 333.460234 27.973944 
L 333.796716 31.022927 
L 334.133199 29.475559 
L 334.469681 31.958451 
L 335.142646 25.9755 
L 335.479128 27.764526 
L 335.815611 28.923648 
L 336.152093 30.527766 
L 336.488576 30.736259 
L 336.825058 34.027216 
L 337.161541 32.638804 
L 337.498023 27.003686 
L 337.834505 24.522659 
L 338.170988 23.832362 
L 338.50747 31.801523 
L 338.843953 35.516862 
L 339.180435 35.893257 
L 339.516917 31.65053 
L 339.8534 39.1829 
L 340.189882 30.251825 
L 340.526365 30.228768 
L 340.862847 31.432862 
L 341.199329 30.938266 
L 341.535812 26.159281 
L 341.872294 30.186759 
L 342.208777 32.2475 
L 342.545259 28.368972 
L 342.881742 34.594254 
L 343.218224 29.412974 
L 343.891189 36.872179 
L 344.227671 35.599552 
L 344.564154 38.931353 
L 344.900636 44.574685 
L 345.237118 34.170089 
L 345.573601 40.592613 
L 345.910083 42.508662 
L 346.246566 43.219561 
L 346.583048 50.044738 
L 347.256013 36.820926 
L 347.592495 37.827675 
L 347.928978 34.211499 
L 348.26546 29.270132 
L 348.601943 42.27889 
L 348.938425 31.276904 
L 349.274907 40.053925 
L 349.61139 37.802203 
L 349.947872 42.870331 
L 350.284355 41.462681 
L 350.620837 40.851017 
L 350.957319 40.858149 
L 351.293802 42.762487 
L 351.630284 53.091807 
L 351.966767 53.800839 
L 352.639731 37.303407 
L 352.976214 35.116719 
L 353.312696 33.720225 
L 353.649179 36.875179 
L 353.985661 37.997812 
L 354.322144 41.307408 
L 354.658626 41.59127 
L 355.331591 45.185669 
L 355.668073 40.875606 
L 356.004556 49.590009 
L 356.341038 54.739599 
L 356.67752 50.173685 
L 357.014003 50.402542 
L 357.350485 36.54376 
L 357.686968 44.475682 
L 358.02345 45.159935 
L 358.359932 53.181183 
L 358.696415 53.382287 
L 359.032897 52.978417 
L 359.36938 59.228739 
L 359.705862 54.869161 
L 360.378827 61.022954 
L 361.051792 54.907285 
L 361.388274 52.901002 
L 361.724757 53.566969 
L 362.061239 58.300983 
L 362.397721 68.184533 
L 362.734204 65.692154 
L 363.070686 60.584237 
L 363.407169 60.421918 
L 363.743651 56.319036 
L 364.080133 59.598386 
L 364.416616 58.918186 
L 364.753098 57.831556 
L 365.089581 59.70476 
L 365.426063 60.108818 
L 365.762546 55.876954 
L 365.762546 55.876954 
" clip-path="url(#p59ee1b88d5)" style="fill: none; stroke: #1f77b4; stroke-width: 1.5; stroke-linecap: square"/>
   </g>
   <g id="line2d_26">
    <path d="M 53.170385 64.660693 
L 53.506867 74.742732 
L 53.84335 64.864925 
L 54.179832 71.227277 
L 54.516314 80.731085 
L 54.852797 70.363051 
L 55.189279 69.377415 
L 55.862244 53.548806 
L 56.535209 71.661075 
L 56.871691 71.478732 
L 57.208174 64.886859 
L 57.544656 55.639015 
L 57.881139 52.403738 
L 58.217621 42.98144 
L 58.554103 61.191101 
L 58.890586 57.754788 
L 59.227068 50.235138 
L 59.563551 65.346725 
L 59.900033 51.556815 
L 60.236515 45.182045 
L 60.572998 58.943826 
L 60.90948 53.098266 
L 61.245963 73.650599 
L 61.582445 70.383596 
L 61.918927 68.522116 
L 62.25541 53.542935 
L 62.591892 56.272849 
L 62.928375 47.142527 
L 63.264857 41.780831 
L 63.937822 46.294645 
L 64.274304 46.099182 
L 64.610787 42.524989 
L 64.947269 37.298687 
L 65.956716 52.400097 
L 66.293199 45.66277 
L 66.629681 51.350383 
L 66.966164 38.554135 
L 67.302646 38.256967 
L 67.639128 42.850318 
L 67.975611 44.599386 
L 68.312093 43.719045 
L 68.648576 42.073676 
L 68.985058 42.154487 
L 69.321541 35.973526 
L 69.658023 43.069825 
L 69.994505 37.966426 
L 70.330988 37.872077 
L 70.66747 41.107507 
L 71.003953 41.948234 
L 71.340435 38.782025 
L 71.676917 41.610712 
L 72.0134 30.520301 
L 72.349882 35.244837 
L 72.686365 28.595413 
L 73.022847 39.283076 
L 73.359329 33.346381 
L 73.695812 37.893812 
L 74.368777 36.249541 
L 74.705259 38.927199 
L 75.041742 40.095166 
L 75.378224 42.264259 
L 75.714706 38.513663 
L 76.051189 41.687819 
L 76.387671 41.190905 
L 76.724154 36.882831 
L 77.060636 34.04564 
L 77.397118 34.48332 
L 77.733601 34.421364 
L 78.070083 34.509057 
L 78.406566 33.86072 
L 78.743048 35.273919 
L 79.07953 34.192217 
L 79.416013 33.673738 
L 79.752495 30.877624 
L 80.088978 36.045274 
L 80.42546 30.003222 
L 80.761943 32.254207 
L 81.098425 31.098238 
L 81.434907 38.219864 
L 81.77139 30.123789 
L 82.107872 26.383129 
L 82.444355 27.377935 
L 82.780837 30.347362 
L 83.117319 25.89473 
L 83.453802 27.73761 
L 84.126767 23.305537 
L 84.463249 26.832574 
L 84.799731 28.441294 
L 85.136214 30.961435 
L 85.472696 29.595329 
L 85.809179 29.099367 
L 86.145661 26.048852 
L 86.482144 30.50503 
L 86.818626 25.566721 
L 87.155108 26.424386 
L 87.828073 30.933085 
L 88.164556 24.596105 
L 88.501038 28.067561 
L 88.83752 28.157595 
L 89.174003 34.602333 
L 89.510485 36.405023 
L 89.846968 36.09646 
L 90.519932 27.672567 
L 90.856415 26.902908 
L 91.192897 29.563542 
L 91.52938 26.585064 
L 91.865862 28.289759 
L 92.202345 27.676979 
L 92.538827 28.908087 
L 92.875309 22.216244 
L 93.211792 26.279384 
L 93.548274 22.789115 
L 93.884757 30.371231 
L 94.221239 28.177847 
L 94.557721 28.415901 
L 94.894204 29.07967 
L 95.230686 26.751947 
L 95.567169 23.572527 
L 95.903651 36.182105 
L 96.240133 26.418015 
L 96.576616 28.54781 
L 96.913098 27.740267 
L 97.249581 22.547279 
L 97.586063 26.271535 
L 97.922546 18.622927 
L 98.59551 25.072237 
L 98.931993 24.050096 
L 99.268475 25.826703 
L 99.604958 25.635652 
L 99.94144 28.171822 
L 100.277922 25.936862 
L 100.614405 25.404119 
L 100.950887 26.056254 
L 101.28737 23.903912 
L 101.623852 26.549045 
L 101.960334 21.417021 
L 102.296817 23.238244 
L 102.633299 21.679056 
L 102.969782 18.329187 
L 103.306264 22.774495 
L 103.642747 20.487281 
L 103.979229 27.293929 
L 104.315711 25.476326 
L 104.652194 28.832254 
L 104.988676 24.481568 
L 105.325159 18.317792 
L 105.661641 28.019674 
L 105.998123 24.203937 
L 106.334606 27.410454 
L 106.671088 31.834879 
L 107.007571 28.884824 
L 107.344053 30.410896 
L 107.680535 27.526515 
L 108.017018 27.014832 
L 108.3535 23.963407 
L 108.689983 26.692223 
L 109.026465 34.537143 
L 109.362948 29.923294 
L 109.69943 30.64043 
L 110.035912 27.570383 
L 110.372395 22.723779 
L 110.708877 27.311208 
L 111.04536 26.941056 
L 111.381842 30.990761 
L 111.718324 28.675185 
L 112.054807 32.085626 
L 112.727772 24.895072 
L 113.064254 27.292491 
L 113.400736 28.402963 
L 113.737219 24.477311 
L 114.073701 28.656125 
L 114.410184 23.506095 
L 114.746666 29.512217 
L 115.083149 28.039374 
L 115.419631 25.113647 
L 115.756113 31.597209 
L 116.429078 21.705858 
L 116.765561 18.780962 
L 117.102043 19.278344 
L 117.438525 24.215628 
L 117.775008 24.586239 
L 118.11149 28.933311 
L 118.447973 27.173174 
L 118.784455 21.650161 
L 119.45742 27.967747 
L 119.793902 19.316121 
L 120.130385 32.146664 
L 120.466867 29.403785 
L 120.80335 33.769782 
L 121.476314 31.771155 
L 122.149279 27.817652 
L 122.485762 22.680037 
L 122.822244 28.86209 
L 123.158726 29.532638 
L 123.495209 31.046876 
L 123.831691 29.284858 
L 124.168174 32.03355 
L 124.504656 23.80289 
L 124.841139 30.28385 
L 125.177621 30.007473 
L 125.514103 25.898921 
L 125.850586 18.703932 
L 126.860033 38.136365 
L 127.196515 33.493302 
L 127.86948 35.261026 
L 128.205963 28.856533 
L 128.542445 31.509438 
L 128.878927 35.839322 
L 129.21541 34.709386 
L 129.551892 32.168858 
L 129.888375 34.233357 
L 130.224857 41.290128 
L 130.56134 38.428013 
L 130.897822 41.228531 
L 131.234304 37.667138 
L 131.570787 37.47317 
L 131.907269 36.876981 
L 132.243752 36.544953 
L 132.580234 40.412903 
L 132.916716 39.060599 
L 133.253199 34.456688 
L 133.589681 32.803323 
L 133.926164 34.099747 
L 134.262646 36.014666 
L 134.599128 36.557298 
L 134.935611 40.216938 
L 135.272093 29.903166 
L 135.608576 35.590894 
L 135.945058 28.050904 
L 136.281541 40.227439 
L 136.618023 40.711669 
L 136.954505 40.632115 
L 137.290988 39.415352 
L 137.62747 38.619322 
L 137.963953 36.109193 
L 138.300435 41.057488 
L 138.636917 40.841833 
L 138.9734 42.415486 
L 139.309882 41.501872 
L 139.646365 35.933166 
L 140.319329 34.00273 
L 140.655812 33.137072 
L 140.992294 38.039738 
L 141.328777 40.059276 
L 141.665259 37.406371 
L 142.001742 43.127971 
L 142.338224 39.259869 
L 142.674706 45.201947 
L 143.011189 40.095389 
L 143.347671 42.237977 
L 143.684154 43.12681 
L 144.357118 42.556174 
L 144.693601 39.131897 
L 145.030083 40.41875 
L 145.366566 36.223348 
L 145.703048 36.608184 
L 146.03953 48.737596 
L 146.376013 40.774007 
L 146.712495 46.633944 
L 147.048978 47.264963 
L 147.38546 45.807287 
L 147.721943 45.281102 
L 148.058425 54.964576 
L 148.394907 45.45763 
L 148.73139 46.041618 
L 149.067872 51.229795 
L 149.404355 46.097728 
L 149.740837 45.619238 
L 150.077319 42.732283 
L 150.413802 46.190407 
L 150.750284 42.32744 
L 151.086767 51.919554 
L 151.423249 48.915094 
L 151.759731 68.428906 
L 152.096214 69.27044 
L 152.769179 68.04796 
L 153.105661 66.178464 
L 153.442144 51.283995 
L 153.778626 64.435493 
L 154.115108 72.723068 
L 154.451591 65.360372 
L 154.788073 65.325446 
L 155.124556 58.629503 
L 155.461038 63.103386 
L 155.79752 63.784019 
L 156.134003 63.983447 
L 156.470485 60.651782 
L 157.479932 86.977245 
L 157.816415 80.377481 
L 158.152897 82.642249 
L 158.825862 79.559794 
L 159.162345 90.413413 
L 159.835309 81.694062 
L 160.171792 81.333293 
L 160.508274 71.899526 
L 160.844757 84.748565 
L 161.181239 86.114728 
L 161.517721 85.913467 
L 162.190686 82.706839 
L 162.527169 81.131387 
L 162.863651 83.401887 
L 163.536616 83.750921 
L 164.209581 85.588813 
L 164.546063 89.18077 
L 164.882546 85.257984 
L 165.219028 88.852638 
L 165.55551 85.893319 
L 165.891993 86.399551 
L 166.228475 81.296124 
L 166.564958 79.195568 
L 166.90144 78.186437 
L 167.574405 93.054897 
L 167.910887 91.522894 
L 168.24737 93.832985 
L 168.583852 89.338456 
L 168.920334 95.982521 
L 169.256817 93.563981 
L 169.593299 96.030374 
L 169.929782 99.503869 
L 170.266264 96.641584 
L 170.602747 97.648305 
L 170.939229 106.504436 
L 171.275711 90.452946 
L 171.612194 93.473203 
L 171.948676 94.528678 
L 172.285159 103.851227 
L 172.958123 94.655397 
L 173.294606 97.194665 
L 173.631088 90.663568 
L 173.967571 89.825274 
L 174.304053 91.499197 
L 174.640535 91.06397 
L 174.977018 91.513886 
L 175.3135 86.100275 
L 175.649983 88.736862 
L 175.986465 83.56228 
L 176.322948 88.33683 
L 176.65943 98.513435 
L 176.995912 90.786893 
L 177.332395 89.717648 
L 177.668877 92.313892 
L 178.00536 97.936571 
L 178.341842 97.318168 
L 178.678324 100.80688 
L 179.014807 110.167424 
L 179.687772 106.871654 
L 180.024254 111.140706 
L 180.697219 97.246254 
L 181.033701 103.245809 
L 181.370184 100.534565 
L 181.706666 93.183994 
L 182.043149 90.046502 
L 182.379631 98.048678 
L 182.716113 114.386242 
L 183.052596 104.774024 
L 183.389078 108.13269 
L 183.725561 95.66717 
L 184.062043 99.000709 
L 184.735008 112.841077 
L 185.07149 108.144337 
L 185.407973 109.79269 
L 185.744455 98.533551 
L 186.080938 108.457304 
L 186.41742 102.729625 
L 186.753902 112.118147 
L 187.090385 105.770162 
L 187.426867 109.63088 
L 187.76335 110.844539 
L 188.099832 104.394193 
L 188.436314 109.491762 
L 188.772797 98.67942 
L 189.109279 106.85152 
L 189.445762 111.186786 
L 189.782244 105.248541 
L 190.118726 117.700067 
L 190.455209 112.167554 
L 190.791691 123.526304 
L 191.128174 115.691445 
L 191.464656 114.996816 
L 191.801139 108.562937 
L 192.137621 111.066964 
L 192.474103 117.343745 
L 192.810586 111.318043 
L 193.147068 115.249892 
L 193.483551 110.974385 
L 193.820033 119.14672 
L 194.156515 113.94837 
L 194.492998 120.316663 
L 194.82948 123.83969 
L 195.165963 116.338654 
L 195.502445 116.16426 
L 195.838927 112.095494 
L 196.17541 103.982286 
L 196.511892 114.927664 
L 196.848375 112.794888 
L 197.184857 121.632621 
L 197.52134 121.24706 
L 197.857822 112.178313 
L 198.194304 113.745276 
L 198.530787 109.88691 
L 198.867269 111.282497 
L 199.203752 112.029108 
L 199.540234 108.616143 
L 199.876716 113.963311 
L 200.213199 114.548242 
L 200.549681 110.121379 
L 200.886164 113.737013 
L 201.559128 111.063142 
L 201.895611 114.997344 
L 202.232093 116.727537 
L 202.568576 116.281896 
L 202.905058 122.485231 
L 203.241541 114.094603 
L 203.578023 116.57404 
L 203.914505 112.548984 
L 204.250988 125.135015 
L 204.58747 133.186561 
L 204.923953 119.322278 
L 205.260435 122.840491 
L 205.596917 116.115105 
L 205.9334 116.005112 
L 206.269882 125.966475 
L 206.606365 115.603221 
L 206.942847 112.597595 
L 207.279329 118.374898 
L 207.615812 121.668023 
L 207.952294 129.905422 
L 208.288777 122.377212 
L 208.625259 124.016086 
L 208.961742 122.139364 
L 209.298224 123.97124 
L 209.634706 127.92748 
L 209.971189 128.303401 
L 210.307671 125.89706 
L 210.644154 122.145555 
L 210.980636 129.261156 
L 211.317118 132.537688 
L 211.653601 131.477376 
L 211.990083 121.167707 
L 212.326566 124.176967 
L 212.663048 118.56818 
L 212.99953 118.140062 
L 213.336013 125.398424 
L 213.672495 118.462399 
L 214.008978 124.028422 
L 214.34546 114.13868 
L 214.681943 123.001218 
L 215.018425 121.927933 
L 215.354907 115.274966 
L 215.69139 118.817268 
L 216.364355 114.750969 
L 216.700837 114.26661 
L 217.037319 118.382712 
L 217.373802 115.329999 
L 218.046767 117.263273 
L 218.383249 115.231479 
L 218.719731 109.986403 
L 219.056214 112.305324 
L 219.729179 126.894514 
L 220.065661 129.011546 
L 220.738626 106.19408 
L 221.075108 110.544505 
L 221.411591 118.901114 
L 221.748073 122.759049 
L 222.084556 119.850825 
L 222.421038 119.50175 
L 222.75752 115.709473 
L 223.094003 115.980732 
L 223.430485 111.436912 
L 223.766968 112.869324 
L 224.10345 109.767852 
L 224.439932 108.54523 
L 224.776415 110.006841 
L 225.44938 118.623802 
L 226.122345 105.620145 
L 226.458827 113.538394 
L 226.795309 103.513467 
L 227.131792 110.554317 
L 227.468274 108.341155 
L 227.804757 101.573544 
L 228.477721 113.025506 
L 228.814204 110.307317 
L 229.150686 104.164211 
L 229.487169 111.086627 
L 229.823651 104.999809 
L 230.160133 107.910816 
L 230.496616 109.429243 
L 230.833098 114.860917 
L 231.169581 113.61839 
L 231.506063 105.919688 
L 231.842546 102.602676 
L 232.179028 106.084821 
L 232.51551 108.127664 
L 232.851993 111.237376 
L 233.188475 111.603382 
L 233.524958 108.152996 
L 233.86144 101.056958 
L 234.197922 99.917083 
L 234.534405 98.25041 
L 235.20737 111.867331 
L 235.543852 107.216333 
L 235.880334 110.774664 
L 236.216817 109.665909 
L 236.553299 112.074298 
L 236.889782 115.922034 
L 237.226264 110.529369 
L 237.562747 99.724997 
L 237.899229 95.088117 
L 238.235711 95.456132 
L 238.572194 104.036288 
L 238.908676 101.175956 
L 239.245159 106.054486 
L 239.581641 101.183197 
L 239.918123 104.311227 
L 240.254606 101.383205 
L 240.591088 107.859113 
L 240.927571 96.351319 
L 241.264053 96.140763 
L 241.600535 96.153142 
L 242.2735 105.362014 
L 242.609983 103.035193 
L 242.946465 109.706285 
L 243.282948 104.799231 
L 243.61943 108.535711 
L 243.955912 103.861839 
L 244.292395 103.832686 
L 244.628877 100.061721 
L 244.96536 88.103308 
L 245.301842 94.41596 
L 245.638324 91.463965 
L 245.974807 92.19819 
L 246.311289 91.773426 
L 246.647772 86.427351 
L 247.320736 103.915335 
L 247.657219 96.145198 
L 247.993701 95.483834 
L 248.330184 98.155392 
L 248.666666 86.987251 
L 249.003149 95.4366 
L 249.339631 89.021223 
L 249.676113 86.314142 
L 250.012596 86.981786 
L 250.349078 85.227009 
L 250.685561 86.231897 
L 251.022043 81.700221 
L 251.358525 83.757519 
L 251.695008 84.261029 
L 252.03149 85.455289 
L 252.367973 92.95551 
L 252.704455 93.001527 
L 253.37742 82.698373 
L 253.713902 78.428623 
L 254.050385 79.247321 
L 254.386867 82.272991 
L 254.72335 80.732689 
L 255.396314 88.495938 
L 255.732797 85.37142 
L 256.069279 84.218934 
L 256.405762 84.303884 
L 256.742244 82.408575 
L 257.078726 81.177157 
L 257.415209 79.20365 
L 257.751691 82.018518 
L 258.088174 80.382642 
L 258.424656 81.202877 
L 258.761139 78.940441 
L 259.097621 82.379 
L 259.434103 82.362159 
L 259.770586 80.175167 
L 260.107068 79.637039 
L 260.443551 82.258128 
L 260.780033 75.548806 
L 261.116515 88.24887 
L 261.452998 86.937651 
L 261.78948 83.494081 
L 262.125963 82.003792 
L 262.462445 82.426465 
L 262.798927 80.579829 
L 263.13541 80.256609 
L 263.471892 79.619647 
L 263.808375 76.532523 
L 264.144857 75.616308 
L 264.48134 75.833357 
L 264.817822 57.311521 
L 265.154304 51.907734 
L 265.490787 52.130007 
L 265.827269 45.33084 
L 266.163752 45.361333 
L 266.500234 66.730963 
L 267.173199 50.686219 
L 267.509681 80.146323 
L 267.846164 65.438914 
L 268.519128 75.47751 
L 268.855611 52.065632 
L 269.192093 70.551757 
L 269.528576 80.072619 
L 269.865058 70.757052 
L 270.201541 67.103226 
L 270.538023 77.372904 
L 270.874505 50.554574 
L 271.210988 52.373996 
L 271.54747 55.202656 
L 271.883953 46.04274 
L 272.220435 44.720619 
L 272.556917 64.163198 
L 272.8934 65.826601 
L 273.566365 57.751417 
L 273.902847 56.352853 
L 274.239329 45.029627 
L 274.575812 61.460373 
L 274.912294 63.274381 
L 275.248777 60.890393 
L 275.921742 43.181772 
L 276.258224 43.475135 
L 276.594706 51.776042 
L 276.931189 52.322595 
L 277.267671 43.120013 
L 277.604154 40.603134 
L 277.940636 45.929424 
L 278.277118 45.844936 
L 278.613601 44.749891 
L 278.950083 40.272007 
L 279.286566 51.209982 
L 279.623048 42.302659 
L 279.95953 40.206507 
L 280.296013 36.459535 
L 280.632495 37.175991 
L 280.968978 36.138834 
L 281.30546 39.555032 
L 281.641943 40.513667 
L 281.978425 38.674568 
L 282.314907 38.709072 
L 282.65139 33.482409 
L 282.987872 39.228891 
L 283.324355 38.483652 
L 283.660837 38.377409 
L 283.997319 38.149392 
L 284.333802 34.351684 
L 284.670284 36.950729 
L 285.343249 34.683302 
L 285.679731 27.795941 
L 286.016214 34.993813 
L 286.689179 29.12921 
L 287.025661 34.73116 
L 287.362144 37.755953 
L 287.698626 35.570728 
L 288.035108 31.274528 
L 288.371591 35.666991 
L 288.708073 32.981289 
L 289.044556 34.488826 
L 289.381038 34.798898 
L 289.71752 43.935706 
L 290.390485 35.974008 
L 290.726968 35.373134 
L 291.06345 32.190179 
L 291.399932 32.819446 
L 291.736415 33.71266 
L 292.072897 35.424461 
L 292.40938 35.14475 
L 292.745862 27.933154 
L 293.082345 33.328912 
L 293.418827 31.677067 
L 293.755309 34.656845 
L 294.091792 34.586262 
L 295.101239 39.358401 
L 295.437721 38.342646 
L 295.774204 37.760314 
L 296.447169 31.345806 
L 296.783651 31.93595 
L 297.120133 29.031122 
L 297.456616 28.983051 
L 297.793098 33.684103 
L 298.129581 24.70755 
L 298.466063 32.455938 
L 298.802546 29.054435 
L 299.139028 29.969033 
L 299.47551 25.796795 
L 299.811993 24.58455 
L 300.148475 27.529398 
L 300.484958 34.994888 
L 300.82144 34.236398 
L 301.157922 31.627964 
L 301.494405 31.078555 
L 301.830887 23.534956 
L 302.16737 29.687707 
L 303.176817 26.651944 
L 303.513299 28.184996 
L 303.849782 24.244851 
L 304.186264 27.218669 
L 304.522747 24.098061 
L 304.859229 31.096084 
L 305.195711 31.915392 
L 305.868676 26.988269 
L 306.205159 19.416991 
L 306.541641 30.964878 
L 306.878123 23.296483 
L 307.214606 21.712284 
L 307.551088 22.996724 
L 307.887571 27.284203 
L 308.224053 26.850063 
L 308.560535 26.921183 
L 308.897018 31.785838 
L 309.569983 29.069187 
L 309.906465 21.64957 
L 310.242948 26.35654 
L 310.57943 22.297416 
L 310.915912 24.261547 
L 311.252395 21.100626 
L 311.588877 21.503403 
L 311.92536 23.318037 
L 312.261842 20.163539 
L 312.598324 18.41635 
L 312.934807 24.849985 
L 313.271289 23.061796 
L 313.607772 26.244074 
L 314.280736 20.125004 
L 314.617219 23.882086 
L 314.953701 23.046921 
L 315.290184 27.760659 
L 315.626666 22.634358 
L 315.963149 24.007092 
L 316.299631 18.869461 
L 316.972596 24.276342 
L 317.309078 29.661755 
L 317.645561 25.307555 
L 317.982043 27.112483 
L 318.318525 26.388385 
L 318.655008 22.515905 
L 318.99149 21.210275 
L 319.327973 23.366914 
L 319.664455 18.700777 
L 320.000938 19.062497 
L 320.33742 28.304393 
L 320.673902 25.990895 
L 321.010385 26.070512 
L 321.346867 27.633413 
L 321.68335 25.373195 
L 322.019832 24.809852 
L 322.692797 22.565146 
L 323.029279 22.137811 
L 324.038726 32.363807 
L 324.375209 25.644494 
L 324.711691 21.550077 
L 325.048174 26.233947 
L 325.384656 25.067842 
L 325.721139 23.325745 
L 326.057621 27.1445 
L 326.394103 20.29549 
L 326.730586 27.392954 
L 327.067068 20.677448 
L 327.403551 24.896908 
L 327.740033 25.520578 
L 328.076515 29.854481 
L 328.412998 27.196355 
L 328.74948 34.829308 
L 329.085963 32.137725 
L 329.422445 35.050536 
L 329.758927 27.701399 
L 330.09541 29.395293 
L 330.431892 29.339869 
L 330.768375 25.162246 
L 331.104857 31.854399 
L 331.44134 30.483312 
L 331.777822 25.721762 
L 332.114304 24.630808 
L 332.450787 24.437525 
L 332.787269 26.618051 
L 333.123752 23.96555 
L 333.460234 26.851572 
L 333.796716 32.001143 
L 334.133199 28.570437 
L 334.469681 30.636976 
L 334.806164 30.810423 
L 335.142646 32.894221 
L 335.479128 31.293334 
L 335.815611 26.030732 
L 336.152093 28.225694 
L 336.488576 31.296177 
L 336.825058 31.896827 
L 337.161541 29.624084 
L 337.498023 33.689442 
L 337.834505 35.62417 
L 338.170988 28.288471 
L 338.50747 25.082663 
L 338.843953 24.830149 
L 339.180435 32.686367 
L 339.516917 36.44635 
L 339.8534 36.199218 
L 340.189882 28.715175 
L 340.526365 38.564761 
L 340.862847 35.658252 
L 341.199329 27.749499 
L 341.535812 30.533334 
L 341.872294 34.753044 
L 342.208777 27.546675 
L 342.545259 26.695292 
L 342.881742 35.11037 
L 343.218224 29.448046 
L 343.554706 33.163314 
L 343.891189 31.77255 
L 344.227671 31.347005 
L 344.564154 37.532111 
L 344.900636 36.412021 
L 345.237118 34.692835 
L 345.573601 43.618215 
L 345.910083 36.554642 
L 346.246566 33.184329 
L 346.583048 42.889696 
L 346.91953 43.80193 
L 347.256013 43.229837 
L 347.592495 43.068241 
L 347.928978 36.337671 
L 348.26546 36.405919 
L 348.601943 36.621808 
L 348.938425 24.439869 
L 349.274907 40.709847 
L 349.61139 35.561359 
L 349.947872 36.637891 
L 350.284355 36.241569 
L 350.620837 41.631489 
L 350.957319 42.034983 
L 351.293802 36.017721 
L 351.630284 38.072819 
L 351.966767 40.911714 
L 352.303249 55.532863 
L 353.312696 37.481699 
L 353.649179 36.352706 
L 353.985661 33.06152 
L 354.995108 40.035037 
L 355.331591 39.774005 
L 355.668073 40.632244 
L 356.004556 43.92191 
L 356.341038 39.376492 
L 356.67752 38.401332 
L 357.014003 63.635484 
L 357.350485 44.045275 
L 357.686968 45.848341 
L 358.02345 38.213268 
L 358.696415 44.562742 
L 359.032897 45.002074 
L 359.36938 54.460221 
L 359.705862 53.748083 
L 360.042345 47.244829 
L 360.378827 60.855412 
L 360.715309 53.619075 
L 361.051792 62.778766 
L 361.388274 59.450663 
L 362.061239 45.652353 
L 362.397721 56.013495 
L 362.734204 62.873107 
L 363.070686 64.533008 
L 363.407169 68.977173 
L 363.743651 64.524559 
L 364.080133 57.722005 
L 364.416616 61.964891 
L 364.753098 52.325073 
L 365.089581 60.2172 
L 365.426063 62.118875 
L 365.762546 60.619404 
L 366.099028 47.836637 
L 366.43551 59.537398 
L 366.771993 57.550095 
L 366.771993 57.550095 
" clip-path="url(#p59ee1b88d5)" style="fill: none; stroke-dasharray: 5.55,2.4; stroke-dashoffset: 0; stroke: #bf00bf; stroke-width: 1.5"/>
   </g>
   <g id="line2d_27">
    <path d="M 57.208174 83.327192 
L 57.544656 85.843521 
L 57.881139 83.998153 
L 58.217621 85.64228 
L 58.554103 88.734348 
L 59.227068 85.676707 
L 59.563551 72.899073 
L 59.900033 40.763854 
L 60.236515 71.154869 
L 60.572998 85.380675 
L 60.90948 86.498603 
L 61.245963 84.352767 
L 61.582445 44.304576 
L 61.918927 38.792075 
L 62.25541 37.062262 
L 62.591892 52.887211 
L 62.928375 57.782168 
L 63.264857 40.190467 
L 63.60134 74.745469 
L 63.937822 41.338699 
L 64.274304 37.675252 
L 64.610787 42.874419 
L 64.947269 40.955935 
L 65.283752 85.486482 
L 65.620234 86.34473 
L 65.956716 85.305255 
L 66.293199 50.444773 
L 66.629681 40.609752 
L 66.966164 37.931191 
L 67.302646 36.506596 
L 67.639128 36.857011 
L 67.975611 37.486622 
L 68.312093 37.655809 
L 68.648576 36.816881 
L 68.985058 35.345266 
L 69.321541 35.999613 
L 69.658023 37.90245 
L 69.994505 40.981918 
L 70.330988 38.605918 
L 70.66747 38.51552 
L 71.003953 36.200171 
L 71.340435 35.177639 
L 72.0134 37.121258 
L 72.349882 36.951667 
L 72.686365 36.511772 
L 73.022847 36.314952 
L 73.359329 35.238265 
L 73.695812 36.13678 
L 74.368777 35.155053 
L 74.705259 35.918185 
L 75.041742 36.258294 
L 75.378224 35.749334 
L 75.714706 36.077833 
L 76.051189 34.346405 
L 76.387671 34.046501 
L 76.724154 33.37344 
L 77.060636 34.697127 
L 77.397118 34.599516 
L 78.070083 35.125489 
L 78.406566 34.797446 
L 79.07953 35.755579 
L 79.416013 36.281859 
L 79.752495 35.74322 
L 80.088978 36.046266 
L 80.42546 36.145091 
L 81.098425 34.409291 
L 81.434907 34.257091 
L 82.107872 34.337704 
L 82.444355 34.228873 
L 82.780837 34.438201 
L 83.453802 34.146794 
L 83.790284 33.567962 
L 84.126767 34.36579 
L 84.463249 33.66104 
L 84.799731 33.508573 
L 85.136214 33.544661 
L 85.472696 34.817078 
L 85.809179 33.983465 
L 86.145661 32.318045 
L 86.482144 32.347222 
L 86.818626 32.955701 
L 87.155108 32.393339 
L 87.491591 32.398047 
L 87.828073 32.016267 
L 88.164556 31.418632 
L 89.174003 33.241683 
L 89.510485 33.171972 
L 89.846968 32.923203 
L 90.18345 32.288261 
L 90.519932 32.919401 
L 90.856415 32.350619 
L 91.192897 32.074259 
L 91.865862 33.213528 
L 92.202345 32.187307 
L 92.538827 32.341134 
L 92.875309 32.646266 
L 93.548274 34.799867 
L 93.884757 34.816206 
L 94.221239 34.010003 
L 94.557721 32.777552 
L 94.894204 32.304499 
L 95.230686 32.797649 
L 95.567169 32.446956 
L 96.576616 32.732947 
L 96.913098 31.553063 
L 97.249581 31.800699 
L 97.586063 31.471328 
L 97.922546 32.669754 
L 98.259028 32.896522 
L 98.59551 32.668537 
L 98.931993 32.882748 
L 99.268475 32.402445 
L 99.604958 31.631785 
L 99.94144 33.913789 
L 100.614405 32.474345 
L 100.950887 32.649098 
L 101.28737 31.424749 
L 101.623852 31.879416 
L 101.960334 30.67008 
L 102.296817 30.667455 
L 102.633299 31.637982 
L 102.969782 31.608886 
L 103.306264 31.940873 
L 103.642747 31.999576 
L 103.979229 32.456495 
L 104.652194 31.93309 
L 104.988676 32.037641 
L 105.325159 31.641447 
L 105.661641 32.019701 
L 105.998123 31.222748 
L 106.671088 31.038172 
L 107.007571 30.21319 
L 107.344053 30.88895 
L 107.680535 30.768055 
L 108.017018 31.922862 
L 108.3535 32.135183 
L 108.689983 32.573612 
L 109.026465 32.028081 
L 109.362948 30.388166 
L 109.69943 31.901965 
L 110.035912 31.903893 
L 110.372395 32.192408 
L 110.708877 33.401219 
L 111.04536 33.041206 
L 111.381842 33.15245 
L 112.391289 31.737767 
L 112.727772 32.020703 
L 113.064254 33.828118 
L 113.737219 33.254088 
L 114.073701 32.719466 
L 114.410184 31.456616 
L 114.746666 32.067368 
L 115.083149 32.355393 
L 115.419631 33.118631 
L 115.756113 33.012999 
L 116.092596 33.433061 
L 116.429078 33.076611 
L 116.765561 31.999479 
L 117.102043 32.228387 
L 117.438525 32.612824 
L 117.775008 31.944717 
L 118.11149 32.483913 
L 118.447973 31.797899 
L 118.784455 32.529362 
L 119.120937 32.777383 
L 119.45742 32.006869 
L 119.793902 33.126159 
L 120.130385 32.584909 
L 120.466867 31.191804 
L 120.80335 30.331012 
L 121.139832 30.152122 
L 121.476314 31.235184 
L 121.812797 31.712558 
L 122.149279 32.582356 
L 122.485762 32.558234 
L 122.822244 31.272836 
L 123.158726 31.532676 
L 123.495209 32.374247 
L 123.831691 30.9166 
L 124.168174 32.832029 
L 125.177621 34.037194 
L 126.187068 32.666216 
L 126.523551 31.517414 
L 127.196515 32.995169 
L 127.532998 33.319663 
L 127.86948 33.130158 
L 128.205963 33.459842 
L 128.542445 32.144656 
L 129.21541 33.188563 
L 129.551892 32.298061 
L 129.888375 30.6465 
L 130.224857 31.307231 
L 130.897822 34.845012 
L 131.570787 34.204077 
L 131.907269 34.479137 
L 132.243752 33.24928 
L 132.580234 33.328198 
L 132.916716 34.400458 
L 133.253199 34.481808 
L 133.589681 33.931407 
L 133.926164 34.11326 
L 134.262646 35.670032 
L 134.599128 35.643888 
L 134.935611 35.96889 
L 135.608576 35.068556 
L 136.281541 34.882405 
L 136.618023 35.66387 
L 136.954505 35.670898 
L 137.62747 33.976551 
L 137.963953 34.09316 
L 138.300435 34.596053 
L 138.636917 34.881392 
L 138.9734 35.641323 
L 139.309882 34.141604 
L 139.646365 34.126247 
L 139.982847 33.306618 
L 140.655812 35.973027 
L 140.992294 35.96399 
L 141.328777 35.81671 
L 141.665259 35.46213 
L 142.001742 34.921267 
L 142.338224 35.738848 
L 143.011189 36.352494 
L 143.347671 36.310413 
L 143.684154 35.106835 
L 144.020636 34.44731 
L 144.693601 34.002558 
L 145.366566 35.710836 
L 145.703048 35.32963 
L 146.03953 36.30831 
L 146.376013 35.939573 
L 146.712495 36.785274 
L 147.048978 36.334076 
L 147.38546 36.199204 
L 147.721943 36.573057 
L 148.394907 36.538883 
L 148.73139 35.817909 
L 149.067872 35.789564 
L 149.404355 35.122881 
L 149.740837 34.816811 
L 150.077319 37.686282 
L 150.413802 36.952436 
L 151.086767 37.481108 
L 151.759731 37.388151 
L 152.096214 40.219713 
L 152.432696 37.883894 
L 152.769179 37.342171 
L 153.105661 38.478296 
L 153.442144 37.740946 
L 153.778626 37.430883 
L 154.115108 36.663157 
L 154.451591 37.382361 
L 154.788073 36.818014 
L 155.124556 38.595995 
L 155.461038 38.341872 
L 155.79752 81.930177 
L 156.134003 85.464731 
L 156.470485 85.399271 
L 156.806968 84.234434 
L 157.14345 81.878781 
L 157.479932 43.425452 
L 157.816415 73.423075 
L 158.152897 85.100373 
L 158.48938 85.081281 
L 158.825862 83.859371 
L 159.162345 53.899645 
L 159.498827 70.513179 
L 159.835309 81.496025 
L 160.171792 82.495783 
L 160.508274 74.455551 
L 160.844757 83.35521 
L 161.517721 92.126141 
L 161.854204 90.199761 
L 162.190686 90.006037 
L 162.527169 89.108041 
L 162.863651 88.857217 
L 163.200133 95.326946 
L 163.536616 94.370574 
L 163.873098 89.847132 
L 164.209581 89.555811 
L 164.546063 86.530209 
L 164.882546 90.604033 
L 165.219028 92.908044 
L 165.55551 93.249473 
L 165.891993 91.541158 
L 166.564958 89.854103 
L 166.90144 90.815123 
L 167.910887 91.80445 
L 168.24737 92.50103 
L 168.583852 95.117701 
L 168.920334 92.946545 
L 169.256817 94.88166 
L 169.593299 93.272947 
L 169.929782 93.160188 
L 170.266264 90.018927 
L 170.939229 87.654115 
L 171.275711 90.932879 
L 171.612194 98.160877 
L 171.948676 98.87519 
L 172.285159 100.09418 
L 172.621641 96.623946 
L 172.958123 101.395994 
L 173.294606 100.576944 
L 173.631088 102.219826 
L 173.967571 105.770019 
L 174.304053 103.612108 
L 174.640535 104.075758 
L 174.977018 111.862087 
L 175.3135 100.425516 
L 175.649983 99.386202 
L 175.986465 100.80626 
L 176.322948 108.614261 
L 176.65943 106.684981 
L 176.995912 101.877462 
L 177.332395 103.169944 
L 177.668877 97.976313 
L 178.00536 96.535412 
L 178.341842 97.791035 
L 178.678324 97.539368 
L 179.014807 98.059858 
L 179.351289 93.595022 
L 179.687772 94.826549 
L 180.024254 91.621963 
L 180.360736 94.361586 
L 180.697219 103.478929 
L 181.370184 96.655541 
L 181.706666 98.304936 
L 182.043149 103.227259 
L 182.379631 104.366852 
L 182.716113 107.03063 
L 183.052596 115.576988 
L 183.389078 115.590202 
L 183.725561 113.880618 
L 184.062043 117.130266 
L 184.398525 112.46962 
L 184.735008 105.00888 
L 185.07149 108.626184 
L 185.407973 107.476874 
L 186.080938 96.7689 
L 186.41742 103.262882 
L 186.753902 118.315007 
L 187.090385 113.897246 
L 187.426867 114.27552 
L 187.76335 104.305696 
L 188.099832 104.48108 
L 188.772797 118.323137 
L 189.109279 115.977989 
L 189.445762 116.069994 
L 189.782244 107.034342 
L 190.118726 113.206441 
L 190.455209 110.30913 
L 190.791691 117.162948 
L 191.128174 113.837212 
L 191.464656 115.376062 
L 191.801139 117.483994 
L 192.137621 111.836795 
L 192.474103 115.319499 
L 192.810586 107.106753 
L 193.483551 117.36264 
L 193.820033 112.766343 
L 194.156515 122.618726 
L 194.492998 119.833594 
L 194.82948 128.240705 
L 195.165963 124.076786 
L 195.502445 121.374817 
L 195.838927 116.273892 
L 196.17541 116.868182 
L 196.511892 123.240242 
L 196.848375 118.93635 
L 197.184857 121.289996 
L 197.52134 118.311685 
L 197.857822 124.331096 
L 198.194304 121.694692 
L 198.867269 130.266184 
L 199.203752 124.086052 
L 199.540234 122.801738 
L 199.876716 119.219314 
L 200.213199 111.569788 
L 200.549681 119.751079 
L 200.886164 119.880443 
L 201.222646 126.873141 
L 201.559128 128.473457 
L 201.895611 120.051027 
L 202.232093 120.003932 
L 202.568576 116.938079 
L 202.905058 117.530906 
L 203.241541 118.677921 
L 203.578023 115.705376 
L 203.914505 119.741383 
L 204.250988 121.199391 
L 204.58747 117.428704 
L 204.923953 119.799713 
L 205.260435 119.245157 
L 205.596917 117.824611 
L 205.9334 121.089398 
L 206.269882 123.14966 
L 206.606365 123.068459 
L 206.942847 128.270248 
L 207.279329 122.144603 
L 207.615812 122.620597 
L 207.952294 119.870282 
L 208.625259 139.165498 
L 208.961742 128.344048 
L 209.298224 128.798772 
L 209.634706 123.681901 
L 209.971189 122.261716 
L 210.307671 131.325601 
L 210.644154 123.966747 
L 210.980636 119.528913 
L 211.653601 127.744737 
L 211.990083 135.595014 
L 212.326566 130.54679 
L 212.663048 130.239727 
L 212.99953 129.109329 
L 213.336013 130.149323 
L 213.672495 134.193448 
L 214.008978 135.009251 
L 214.34546 133.021422 
L 214.681943 129.313014 
L 215.354907 138.890154 
L 215.69139 138.482732 
L 216.027872 129.507025 
L 216.364355 130.016987 
L 216.700837 126.018362 
L 217.037319 124.622385 
L 217.373802 131.096273 
L 217.710284 126.236988 
L 218.046767 129.769741 
L 218.383249 122.444734 
L 218.719731 128.042189 
L 219.056214 129.006118 
L 219.392696 122.781645 
L 219.729179 124.965739 
L 220.065661 123.814639 
L 220.402144 121.647826 
L 220.738626 121.011886 
L 221.075108 124.3155 
L 221.411591 122.527719 
L 221.748073 122.764609 
L 222.084556 123.823526 
L 222.421038 122.113538 
L 222.75752 117.400222 
L 223.094003 118.410414 
L 223.766968 132.679652 
L 224.10345 135.742842 
L 224.439932 126.919565 
L 224.776415 114.458148 
L 225.112897 115.996184 
L 225.44938 124.280259 
L 225.785862 129.065986 
L 226.458827 126.152965 
L 226.795309 122.813374 
L 227.131792 122.398212 
L 227.468274 118.789716 
L 227.804757 119.11079 
L 228.477721 115.193971 
L 228.814204 116.41842 
L 229.487169 124.897901 
L 230.160133 113.0414 
L 230.496616 118.691841 
L 230.833098 111.765991 
L 231.169581 116.033841 
L 231.506063 115.471585 
L 231.842546 109.034541 
L 232.51551 119.050119 
L 232.851993 117.416035 
L 233.188475 111.816082 
L 233.524958 116.438262 
L 233.86144 112.56995 
L 234.197922 113.930927 
L 234.534405 116.021418 
L 234.870887 120.567318 
L 235.20737 120.713539 
L 235.543852 113.667775 
L 235.880334 109.516136 
L 236.889782 117.527796 
L 237.226264 118.350231 
L 237.562747 115.277639 
L 237.899229 108.646989 
L 238.235711 106.410268 
L 238.572194 104.94989 
L 239.245159 117.801143 
L 239.581641 114.697878 
L 239.918123 116.869857 
L 240.254606 116.497235 
L 240.591088 118.213368 
L 240.927571 122.153152 
L 241.264053 118.042193 
L 241.600535 108.005116 
L 241.937018 101.964177 
L 242.2735 101.673129 
L 242.609983 109.218913 
L 242.946465 108.462072 
L 243.282948 112.005394 
L 243.61943 108.681973 
L 243.955912 110.174224 
L 244.292395 108.571388 
L 244.628877 113.323905 
L 244.96536 105.279735 
L 245.301842 102.394762 
L 245.638324 102.716322 
L 245.974807 106.340497 
L 246.311289 111.589899 
L 246.647772 110.110833 
L 246.984254 115.332696 
L 247.320736 112.287531 
L 247.657219 114.431995 
L 247.993701 111.347707 
L 248.330184 110.188069 
L 248.666666 107.285278 
L 249.003149 95.716604 
L 249.339631 99.858139 
L 249.676113 98.174499 
L 250.012596 98.860447 
L 250.349078 98.482606 
L 250.685561 93.780585 
L 251.022043 99.679769 
L 251.358525 108.929093 
L 251.695008 104.746064 
L 252.03149 102.042572 
L 252.367973 104.228096 
L 252.704455 95.424821 
L 253.040938 100.743265 
L 253.713902 93.684924 
L 254.050385 93.717211 
L 254.386867 92.471451 
L 254.72335 93.041046 
L 255.059832 90.1534 
L 255.396314 91.048054 
L 255.732797 91.574856 
L 256.069279 92.542462 
L 256.405762 98.472209 
L 256.742244 99.49118 
L 257.415209 90.06581 
L 257.751691 88.336448 
L 258.088174 88.252617 
L 258.424656 89.791588 
L 258.761139 89.985665 
L 259.097621 91.493881 
L 259.434103 94.317063 
L 260.107068 91.82065 
L 260.443551 91.572506 
L 261.452998 88.781289 
L 261.78948 89.88505 
L 262.125963 89.76981 
L 262.462445 89.859569 
L 262.798927 88.799914 
L 263.13541 90.165099 
L 263.471892 90.523848 
L 264.144857 88.765809 
L 264.48134 89.827489 
L 264.817822 88.313592 
L 265.154304 93.611421 
L 265.490787 94.120114 
L 265.827269 90.828205 
L 266.163752 89.67413 
L 266.500234 90.09097 
L 266.836716 89.846492 
L 267.509681 88.723062 
L 267.846164 87.663508 
L 268.519128 87.197664 
L 268.855611 77.045435 
L 269.192093 39.335542 
L 269.528576 38.618163 
L 269.865058 37.523046 
L 270.201541 37.299462 
L 270.538023 77.425201 
L 270.874505 76.694872 
L 271.210988 42.27875 
L 271.54747 87.759751 
L 271.883953 85.685514 
L 272.220435 85.753573 
L 272.556917 86.377642 
L 272.8934 48.045472 
L 273.229882 83.733472 
L 273.566365 88.022274 
L 273.902847 87.200312 
L 274.239329 85.573843 
L 274.575812 86.613194 
L 274.912294 48.901876 
L 275.248777 39.718828 
L 275.585259 39.780472 
L 275.921742 37.720571 
L 276.258224 37.249862 
L 276.594706 67.806902 
L 276.931189 82.608915 
L 277.267671 82.626389 
L 277.940636 40.873013 
L 278.277118 37.520656 
L 278.950083 78.630069 
L 279.286566 79.250608 
L 279.623048 43.115873 
L 279.95953 36.810311 
L 280.296013 36.56118 
L 280.968978 41.72053 
L 281.30546 37.7095 
L 281.641943 36.011332 
L 281.978425 37.071162 
L 282.314907 37.633222 
L 282.65139 37.279159 
L 282.987872 36.231571 
L 283.324355 38.138697 
L 284.333802 35.12293 
L 284.670284 34.905442 
L 285.006767 34.865143 
L 285.679731 35.908273 
L 286.016214 35.591281 
L 286.352696 35.467222 
L 286.689179 34.439727 
L 287.025661 35.164176 
L 287.362144 35.475499 
L 288.035108 35.371447 
L 288.371591 34.541447 
L 288.708073 34.777395 
L 289.044556 34.780847 
L 289.381038 34.452617 
L 289.71752 33.054609 
L 290.054003 33.915103 
L 290.390485 33.912704 
L 290.726968 33.051826 
L 291.399932 34.995872 
L 291.736415 34.813145 
L 292.072897 33.806891 
L 292.40938 34.303513 
L 292.745862 34.127966 
L 293.082345 34.20367 
L 293.418827 34.441417 
L 293.755309 36.292643 
L 294.091792 36.133894 
L 294.428274 34.942594 
L 294.764757 34.612615 
L 295.101239 33.88339 
L 295.437721 33.813584 
L 296.447169 34.557581 
L 296.783651 33.10544 
L 297.120133 33.598868 
L 297.456616 33.712034 
L 298.129581 34.438649 
L 298.466063 34.670039 
L 299.139028 35.57177 
L 299.811993 35.249703 
L 300.484958 33.675442 
L 300.82144 33.577696 
L 301.157922 33.062209 
L 301.494405 32.842865 
L 301.830887 33.79652 
L 302.16737 32.488027 
L 302.503852 33.195612 
L 302.840334 33.199052 
L 303.176817 32.976925 
L 303.849782 31.707374 
L 304.186264 32.258668 
L 304.522747 33.957186 
L 304.859229 34.390236 
L 305.195711 33.79158 
L 305.532194 33.461693 
L 305.868676 31.90107 
L 306.205159 32.551802 
L 306.541641 32.889487 
L 307.214606 32.363382 
L 307.551088 32.507335 
L 307.887571 31.876122 
L 308.224053 32.158315 
L 308.560535 31.802834 
L 309.2335 33.65033 
L 309.569983 33.225623 
L 309.906465 32.550138 
L 310.242948 30.78839 
L 310.57943 32.543095 
L 310.915912 32.05741 
L 311.252395 30.930486 
L 311.588877 31.219976 
L 311.92536 32.043863 
L 312.261842 32.381121 
L 312.598324 32.335649 
L 312.934807 33.290153 
L 313.271289 33.359572 
L 313.607772 32.988177 
L 313.944254 31.433815 
L 314.280736 31.746276 
L 314.617219 31.384389 
L 314.953701 31.415741 
L 315.626666 30.783381 
L 315.963149 31.235948 
L 316.636113 30.157734 
L 316.972596 31.29402 
L 317.309078 31.432194 
L 317.645561 31.919947 
L 317.982043 31.485426 
L 318.318525 30.624826 
L 318.655008 31.223944 
L 318.99149 31.334959 
L 319.327973 32.217055 
L 319.664455 31.600003 
L 320.000938 31.391324 
L 320.33742 30.536611 
L 320.673902 30.707131 
L 321.010385 31.483297 
L 321.346867 32.673489 
L 321.68335 32.275339 
L 322.356314 32.237154 
L 322.692797 31.366924 
L 323.029279 30.870813 
L 323.365762 31.18452 
L 323.702244 30.438931 
L 324.038726 30.164642 
L 324.375209 32.044463 
L 324.711691 32.271472 
L 325.048174 32.109139 
L 325.384656 32.433102 
L 326.057621 31.779831 
L 327.067068 31.054519 
L 327.740033 32.406034 
L 328.076515 33.479135 
L 328.412998 32.54191 
L 328.74948 31.106153 
L 329.085963 31.760236 
L 329.422445 31.877356 
L 329.758927 31.488851 
L 330.09541 32.129497 
L 330.431892 31.040946 
L 330.768375 31.890553 
L 331.104857 31.239798 
L 331.44134 31.37271 
L 332.114304 32.760956 
L 332.450787 32.653476 
L 332.787269 33.900879 
L 333.123752 33.971505 
L 333.460234 34.242078 
L 333.796716 33.221693 
L 334.133199 32.732163 
L 334.469681 32.976174 
L 334.806164 32.096889 
L 335.142646 33.175771 
L 335.479128 33.389993 
L 335.815611 32.313358 
L 336.152093 31.779194 
L 336.488576 31.612632 
L 336.825058 32.053557 
L 337.161541 31.740613 
L 337.498023 32.086377 
L 337.834505 33.333947 
L 338.170988 33.023246 
L 338.843953 33.362558 
L 339.180435 33.736236 
L 339.516917 33.63166 
L 339.8534 32.435526 
L 340.189882 32.468705 
L 340.526365 33.252184 
L 340.862847 33.615382 
L 341.199329 33.240837 
L 341.872294 34.51686 
L 342.545259 32.012796 
L 342.881742 31.718597 
L 343.554706 34.656893 
L 343.891189 34.883513 
L 344.227671 33.395444 
L 344.564154 34.675596 
L 344.900636 34.868626 
L 345.237118 33.039375 
L 345.573601 33.089285 
L 345.910083 34.06895 
L 346.583048 32.292794 
L 346.91953 33.929591 
L 347.256013 33.42856 
L 347.592495 33.703218 
L 347.928978 33.768158 
L 348.26546 33.468793 
L 348.601943 34.752726 
L 348.938425 34.94979 
L 349.274907 34.524497 
L 349.61139 36.167474 
L 349.947872 35.550382 
L 350.284355 34.100464 
L 350.620837 36.008099 
L 350.957319 36.963696 
L 351.630284 36.745454 
L 351.966767 35.292177 
L 352.303249 34.751977 
L 352.639731 34.881777 
L 352.976214 32.656901 
L 353.312696 34.702471 
L 353.649179 35.023035 
L 353.985661 34.742951 
L 354.322144 34.941381 
L 354.658626 35.843032 
L 354.995108 36.347499 
L 355.331591 35.283214 
L 355.668073 35.140843 
L 356.004556 35.812865 
L 356.341038 40.968807 
L 356.67752 41.200748 
L 357.014003 37.428668 
L 357.350485 35.356919 
L 358.02345 34.163127 
L 358.359932 34.411317 
L 359.032897 35.646702 
L 359.705862 35.92602 
L 360.042345 36.694985 
L 360.715309 35.38498 
L 361.051792 55.315666 
L 361.388274 39.322775 
L 362.061239 35.883919 
L 362.397721 35.820319 
L 362.734204 37.025262 
L 363.070686 37.292336 
L 363.407169 40.177715 
L 363.743651 41.573945 
L 364.080133 38.484473 
L 364.416616 52.605429 
L 364.753098 42.413481 
L 365.089581 75.967407 
L 365.426063 70.351172 
L 365.762546 41.413542 
L 366.099028 37.688322 
L 366.43551 40.611227 
L 366.771993 74.664653 
L 367.108475 83.355393 
L 367.444958 84.961815 
L 367.78144 81.622761 
L 368.117922 57.52004 
L 368.454405 68.196478 
L 368.790887 41.977924 
L 369.463852 72.946141 
L 369.800334 76.137735 
L 370.136817 40.731837 
L 370.473299 44.854117 
L 370.809782 45.121139 
L 370.809782 45.121139 
" clip-path="url(#p59ee1b88d5)" style="fill: none; stroke-dasharray: 9.6,2.4,1.5,2.4; stroke-dashoffset: 0; stroke: #008000; stroke-width: 1.5"/>
   </g>
   <g id="line2d_28">
    <path d="M 73.359329 110.438425 
L 73.695812 112.316226 
L 74.032294 110.918051 
L 74.368777 112.169385 
L 74.705259 114.811514 
L 75.041742 113.218674 
L 75.378224 112.191785 
L 75.714706 106.021729 
L 76.051189 34.315866 
L 76.387671 105.577941 
L 76.724154 111.981851 
L 77.060636 112.853264 
L 77.397118 111.133671 
L 77.733601 34.335191 
L 78.406566 34.295242 
L 78.743048 34.402664 
L 79.07953 34.892805 
L 79.416013 34.312745 
L 79.752495 106.543367 
L 80.088978 34.319096 
L 81.098425 34.316919 
L 81.434907 112.052713 
L 81.77139 112.733781 
L 82.107872 111.909028 
L 82.444355 34.368341 
L 83.453802 34.292092 
L 99.604958 34.278918 
L 112.054807 34.27001 
L 171.612194 34.302371 
L 171.948676 109.696852 
L 172.285159 112.042878 
L 172.621641 111.986763 
L 172.958123 111.053021 
L 173.294606 109.637369 
L 173.631088 34.330589 
L 173.967571 106.160514 
L 174.304053 111.757178 
L 174.640535 111.732327 
L 174.977018 110.775313 
L 175.3135 34.416693 
L 175.649983 105.414171 
L 175.986465 109.445309 
L 176.322948 109.961289 
L 176.65943 106.368285 
L 177.668877 118.220873 
L 178.00536 116.270168 
L 178.341842 116.060527 
L 178.678324 115.169482 
L 179.014807 114.92958 
L 179.351289 121.473146 
L 179.687772 120.506549 
L 180.024254 115.898079 
L 180.360736 115.608981 
L 180.697219 112.881678 
L 181.033701 116.683201 
L 181.370184 119.018985 
L 181.706666 119.367417 
L 182.043149 117.631627 
L 182.716113 115.908912 
L 183.052596 116.901007 
L 184.062043 117.898043 
L 184.398525 118.606486 
L 184.735008 121.260263 
L 185.07149 119.062879 
L 185.407973 121.019712 
L 185.744455 119.39279 
L 186.080938 119.274293 
L 186.41742 116.076518 
L 187.090385 113.827498 
L 187.426867 117.012452 
L 187.76335 124.346203 
L 188.099832 125.077758 
L 188.436314 126.309743 
L 188.772797 122.793757 
L 189.109279 127.629311 
L 189.445762 126.804397 
L 189.782244 128.466796 
L 190.118726 132.071196 
L 190.455209 129.883194 
L 190.791691 130.351304 
L 191.128174 138.250576 
L 191.464656 126.658646 
L 191.801139 125.58691 
L 192.137621 127.036639 
L 192.474103 134.95247 
L 192.810586 133.005397 
L 193.147068 128.12168 
L 193.483551 129.431797 
L 193.820033 124.166112 
L 194.156515 122.700065 
L 194.492998 123.974378 
L 194.82948 123.719483 
L 195.165963 124.247416 
L 195.502445 119.719149 
L 195.838927 120.964251 
L 196.17541 117.716477 
L 196.511892 120.492641 
L 196.848375 129.745303 
L 197.52134 122.819761 
L 197.857822 124.496389 
L 198.194304 129.488429 
L 198.530787 130.649519 
L 198.867269 133.348739 
L 199.203752 142.020533 
L 199.540234 142.038601 
L 199.876716 140.302248 
L 200.213199 143.597537 
L 200.549681 138.873715 
L 200.886164 131.30211 
L 201.222646 134.966103 
L 201.559128 133.806195 
L 202.232093 122.936031 
L 202.568576 129.525857 
L 202.905058 144.795813 
L 203.241541 140.327162 
L 203.578023 140.698045 
L 203.914505 130.593048 
L 204.250988 130.758336 
L 204.923953 144.806652 
L 205.260435 142.43445 
L 205.596917 142.521177 
L 205.9334 133.361271 
L 206.269882 139.611151 
L 206.606365 136.682781 
L 206.942847 143.626088 
L 207.279329 140.263989 
L 207.615812 141.814995 
L 207.952294 143.959981 
L 208.288777 138.230143 
L 208.625259 141.758891 
L 208.961742 133.434634 
L 209.634706 143.836182 
L 209.971189 139.17376 
L 210.307671 149.162786 
L 210.644154 146.348041 
L 210.980636 154.866315 
L 211.317118 150.655995 
L 211.653601 147.903758 
L 211.990083 142.734943 
L 212.326566 143.330157 
L 212.663048 149.798577 
L 212.99953 145.435655 
L 213.336013 147.817669 
L 213.672495 144.801706 
L 214.008978 150.901365 
L 214.34546 148.236302 
L 215.018425 156.930204 
L 215.354907 150.661177 
L 215.69139 149.353687 
L 216.027872 145.721666 
L 216.364355 137.959602 
L 216.700837 146.253208 
L 217.037319 146.39372 
L 217.373802 153.480546 
L 217.710284 155.113372 
L 218.046767 146.566306 
L 218.383249 146.51376 
L 218.719731 143.406882 
L 219.056214 144.004351 
L 219.392696 145.170605 
L 219.729179 142.154946 
L 220.065661 146.246207 
L 220.402144 147.7298 
L 220.738626 143.904089 
L 221.075108 146.30615 
L 221.411591 145.747205 
L 221.748073 144.304103 
L 222.084556 147.615475 
L 222.421038 149.707777 
L 222.75752 149.625836 
L 223.094003 154.901144 
L 223.430485 148.693161 
L 223.766968 149.167566 
L 224.10345 146.383357 
L 224.776415 165.96 
L 225.112897 154.985914 
L 225.44938 155.435927 
L 225.785862 150.252682 
L 226.122345 148.804456 
L 226.458827 158.001079 
L 226.795309 150.543283 
L 227.131792 146.032464 
L 227.804757 154.369964 
L 228.141239 162.333751 
L 228.477721 157.21941 
L 228.814204 156.899644 
L 229.150686 155.757621 
L 229.487169 156.808873 
L 229.823651 160.91387 
L 230.160133 161.742818 
L 230.496616 159.726518 
L 230.833098 155.963446 
L 231.506063 165.680949 
L 231.842546 165.267944 
L 232.179028 156.163867 
L 232.51551 156.672922 
L 232.851993 152.622858 
L 233.188475 151.200688 
L 233.524958 157.769295 
L 233.86144 152.845013 
L 234.197922 156.421366 
L 234.534405 148.99903 
L 234.870887 154.665941 
L 235.20737 155.654203 
L 235.543852 149.335963 
L 235.880334 151.548626 
L 236.216817 150.384174 
L 236.553299 148.184174 
L 236.889782 147.538687 
L 237.226264 150.888788 
L 237.562747 149.07906 
L 237.899229 149.315721 
L 238.235711 150.391874 
L 238.572194 148.657191 
L 238.908676 143.875681 
L 239.245159 144.896523 
L 239.918123 159.37648 
L 240.254606 162.487305 
L 240.591088 153.538423 
L 240.927571 140.892011 
L 241.264053 142.444623 
L 241.600535 150.852962 
L 241.937018 155.710835 
L 242.609983 152.754815 
L 242.946465 149.368497 
L 243.282948 148.944211 
L 243.61943 145.286112 
L 243.955912 145.607479 
L 244.628877 141.634186 
L 244.96536 142.876769 
L 245.638324 151.481265 
L 246.311289 139.451721 
L 246.647772 145.179854 
L 246.984254 138.162438 
L 247.320736 142.48142 
L 247.657219 141.919818 
L 247.993701 135.38613 
L 248.666666 145.54737 
L 249.003149 143.891041 
L 249.339631 138.209413 
L 249.676113 142.892893 
L 250.012596 138.976444 
L 250.349078 140.349682 
L 250.685561 142.475229 
L 251.022043 147.084341 
L 251.358525 147.237872 
L 251.695008 140.088688 
L 252.03149 135.87329 
L 253.040938 144.00174 
L 253.37742 144.838118 
L 253.713902 141.720958 
L 254.050385 134.993816 
L 254.386867 132.720442 
L 254.72335 131.240246 
L 255.396314 144.279265 
L 255.732797 141.134042 
L 256.069279 143.332641 
L 256.405762 142.95882 
L 256.742244 144.696733 
L 257.078726 148.69584 
L 257.415209 144.527865 
L 257.751691 134.344369 
L 258.088174 128.209244 
L 258.424656 127.913588 
L 258.761139 135.567949 
L 259.097621 134.80638 
L 259.434103 138.39573 
L 259.770586 135.030308 
L 260.107068 136.537529 
L 260.443551 134.917159 
L 260.780033 139.732677 
L 261.116515 131.582102 
L 261.452998 128.643003 
L 261.78948 128.974112 
L 262.125963 132.647584 
L 262.462445 137.976878 
L 262.798927 136.477914 
L 263.13541 141.771858 
L 263.471892 138.689154 
L 263.808375 140.858037 
L 264.144857 137.73537 
L 264.48134 136.553113 
L 264.817822 133.61177 
L 265.154304 121.871215 
L 265.490787 126.070627 
L 265.827269 124.365109 
L 266.163752 125.059414 
L 266.500234 124.677232 
L 266.836716 119.907239 
L 267.173199 125.888763 
L 267.509681 135.274634 
L 267.846164 131.039263 
L 268.182646 128.286549 
L 268.519128 130.506872 
L 268.855611 121.580258 
L 269.192093 126.966546 
L 269.865058 119.807436 
L 270.201541 119.841036 
L 270.538023 118.577613 
L 270.874505 119.154271 
L 271.210988 116.216732 
L 271.54747 117.133668 
L 271.883953 117.665502 
L 272.220435 118.648899 
L 272.556917 124.664282 
L 272.8934 125.700553 
L 273.566365 116.121519 
L 273.902847 114.444262 
L 274.239329 114.366854 
L 274.575812 115.844982 
L 274.912294 116.044318 
L 275.248777 117.583716 
L 275.585259 120.447737 
L 276.258224 117.914321 
L 276.594706 117.664056 
L 277.604154 114.859333 
L 277.940636 115.941198 
L 278.277118 115.825462 
L 278.613601 115.914162 
L 278.950083 114.877281 
L 279.286566 116.230313 
L 279.623048 116.60604 
L 279.95953 115.518543 
L 280.296013 114.84407 
L 280.632495 115.881549 
L 280.968978 114.425678 
L 281.30546 119.734291 
L 281.641943 120.249055 
L 281.978425 116.910239 
L 282.314907 115.727501 
L 282.65139 116.151224 
L 282.987872 115.90295 
L 283.660837 114.803705 
L 283.997319 113.837252 
L 284.670284 113.428728 
L 285.006767 107.439969 
L 285.343249 34.307802 
L 286.352696 34.296521 
L 286.689179 107.752964 
L 287.025661 107.379745 
L 287.362144 34.323816 
L 287.698626 113.921264 
L 288.035108 112.215712 
L 288.371591 112.252158 
L 288.708073 112.740454 
L 289.044556 34.354507 
L 289.381038 110.707676 
L 289.71752 114.161126 
L 290.054003 113.438339 
L 290.390485 112.113258 
L 290.726968 112.929955 
L 291.06345 34.359496 
L 292.072897 34.298894 
L 292.40938 34.296252 
L 292.745862 104.506573 
L 293.082345 110.086321 
L 293.418827 110.027199 
L 293.755309 97.6464 
L 294.091792 34.316517 
L 294.428274 34.297786 
L 294.764757 34.629831 
L 295.101239 108.18791 
L 295.437721 108.345154 
L 295.774204 34.328661 
L 296.783651 34.308028 
L 299.139028 34.290614 
L 302.503852 34.286285 
L 309.2335 34.279193 
L 331.44134 34.26159 
L 353.649179 34.267368 
L 358.696415 34.267018 
L 372.155711 34.288207 
L 373.165159 34.297304 
L 376.529983 34.289748 
L 376.866465 34.285812 
L 377.202948 34.489394 
L 377.53943 34.307928 
L 380.231289 34.303168 
L 380.567772 34.39802 
L 380.904254 34.325216 
L 381.240736 107.061522 
L 381.577219 105.301478 
L 381.913701 34.319498 
L 382.586666 34.314968 
L 382.923149 106.562657 
L 383.259631 110.49259 
L 383.596113 111.622173 
L 383.932596 109.476402 
L 384.269078 34.658096 
L 384.605561 104.584339 
L 384.942043 34.322622 
L 385.278525 34.79001 
L 385.615008 106.064487 
L 385.95149 107.117965 
L 386.287973 34.315858 
L 386.960938 34.340834 
L 386.960938 34.340834 
" clip-path="url(#p59ee1b88d5)" style="fill: none; stroke-dasharray: 1.5,2.475; stroke-dashoffset: 0; stroke: #ff0000; stroke-width: 1.5"/>
   </g>
   <g id="patch_3">
    <path d="M 52.160938 173.52 
L 52.160938 7.2 
" style="fill: none; stroke: #000000; stroke-width: 0.8; stroke-linejoin: miter; stroke-linecap: square"/>
   </g>
   <g id="patch_4">
    <path d="M 386.960938 173.52 
L 386.960938 7.2 
" style="fill: none; stroke: #000000; stroke-width: 0.8; stroke-linejoin: miter; stroke-linecap: square"/>
   </g>
   <g id="patch_5">
    <path d="M 52.160938 173.52 
L 386.960938 173.52 
" style="fill: none; stroke: #000000; stroke-width: 0.8; stroke-linejoin: miter; stroke-linecap: square"/>
   </g>
   <g id="patch_6">
    <path d="M 52.160938 7.2 
L 386.960938 7.2 
" style="fill: none; stroke: #000000; stroke-width: 0.8; stroke-linejoin: miter; stroke-linecap: square"/>
   </g>
   <g id="legend_1">
    <g id="patch_7">
     <path d="M 59.160938 168.52 
L 160.248438 168.52 
Q 162.248438 168.52 162.248438 166.52 
L 162.248438 108.8075 
Q 162.248438 106.8075 160.248438 106.8075 
L 59.160938 106.8075 
Q 57.160938 106.8075 57.160938 108.8075 
L 57.160938 166.52 
Q 57.160938 168.52 59.160938 168.52 
z
" style="fill: #ffffff; opacity: 0.8; stroke: #cccccc; stroke-linejoin: miter"/>
    </g>
    <g id="line2d_29">
     <path d="M 61.160938 114.905938 
L 71.160938 114.905938 
L 81.160938 114.905938 
" style="fill: none; stroke: #1f77b4; stroke-width: 1.5; stroke-linecap: square"/>
    </g>
    <g id="text_15">
     <!-- 1-step preds -->
     <g transform="translate(89.160938 118.405938)scale(0.1 -0.1)">
      <defs>
       <path id="DejaVuSans-2d" d="M 313 2009 
L 1997 2009 
L 1997 1497 
L 313 1497 
L 313 2009 
z
" transform="scale(0.015625)"/>
       <path id="DejaVuSans-73" d="M 2834 3397 
L 2834 2853 
Q 2591 2978 2328 3040 
Q 2066 3103 1784 3103 
Q 1356 3103 1142 2972 
Q 928 2841 928 2578 
Q 928 2378 1081 2264 
Q 1234 2150 1697 2047 
L 1894 2003 
Q 2506 1872 2764 1633 
Q 3022 1394 3022 966 
Q 3022 478 2636 193 
Q 2250 -91 1575 -91 
Q 1294 -91 989 -36 
Q 684 19 347 128 
L 347 722 
Q 666 556 975 473 
Q 1284 391 1588 391 
Q 1994 391 2212 530 
Q 2431 669 2431 922 
Q 2431 1156 2273 1281 
Q 2116 1406 1581 1522 
L 1381 1569 
Q 847 1681 609 1914 
Q 372 2147 372 2553 
Q 372 3047 722 3315 
Q 1072 3584 1716 3584 
Q 2034 3584 2315 3537 
Q 2597 3491 2834 3397 
z
" transform="scale(0.015625)"/>
       <path id="DejaVuSans-70" d="M 1159 525 
L 1159 -1331 
L 581 -1331 
L 581 3500 
L 1159 3500 
L 1159 2969 
Q 1341 3281 1617 3432 
Q 1894 3584 2278 3584 
Q 2916 3584 3314 3078 
Q 3713 2572 3713 1747 
Q 3713 922 3314 415 
Q 2916 -91 2278 -91 
Q 1894 -91 1617 61 
Q 1341 213 1159 525 
z
M 3116 1747 
Q 3116 2381 2855 2742 
Q 2594 3103 2138 3103 
Q 1681 3103 1420 2742 
Q 1159 2381 1159 1747 
Q 1159 1113 1420 752 
Q 1681 391 2138 391 
Q 2594 391 2855 752 
Q 3116 1113 3116 1747 
z
" transform="scale(0.015625)"/>
       <path id="DejaVuSans-20" transform="scale(0.015625)"/>
       <path id="DejaVuSans-72" d="M 2631 2963 
Q 2534 3019 2420 3045 
Q 2306 3072 2169 3072 
Q 1681 3072 1420 2755 
Q 1159 2438 1159 1844 
L 1159 0 
L 581 0 
L 581 3500 
L 1159 3500 
L 1159 2956 
Q 1341 3275 1631 3429 
Q 1922 3584 2338 3584 
Q 2397 3584 2469 3576 
Q 2541 3569 2628 3553 
L 2631 2963 
z
" transform="scale(0.015625)"/>
       <path id="DejaVuSans-64" d="M 2906 2969 
L 2906 4863 
L 3481 4863 
L 3481 0 
L 2906 0 
L 2906 525 
Q 2725 213 2448 61 
Q 2172 -91 1784 -91 
Q 1150 -91 751 415 
Q 353 922 353 1747 
Q 353 2572 751 3078 
Q 1150 3584 1784 3584 
Q 2172 3584 2448 3432 
Q 2725 3281 2906 2969 
z
M 947 1747 
Q 947 1113 1208 752 
Q 1469 391 1925 391 
Q 2381 391 2643 752 
Q 2906 1113 2906 1747 
Q 2906 2381 2643 2742 
Q 2381 3103 1925 3103 
Q 1469 3103 1208 2742 
Q 947 2381 947 1747 
z
" transform="scale(0.015625)"/>
      </defs>
      <use xlink:href="#DejaVuSans-31"/>
      <use xlink:href="#DejaVuSans-2d" x="63.623047"/>
      <use xlink:href="#DejaVuSans-73" x="99.707031"/>
      <use xlink:href="#DejaVuSans-74" x="151.806641"/>
      <use xlink:href="#DejaVuSans-65" x="191.015625"/>
      <use xlink:href="#DejaVuSans-70" x="252.539062"/>
      <use xlink:href="#DejaVuSans-20" x="316.015625"/>
      <use xlink:href="#DejaVuSans-70" x="347.802734"/>
      <use xlink:href="#DejaVuSans-72" x="411.279297"/>
      <use xlink:href="#DejaVuSans-65" x="450.142578"/>
      <use xlink:href="#DejaVuSans-64" x="511.666016"/>
      <use xlink:href="#DejaVuSans-73" x="575.142578"/>
     </g>
    </g>
    <g id="line2d_30">
     <path d="M 61.160938 129.584063 
L 71.160938 129.584063 
L 81.160938 129.584063 
" style="fill: none; stroke-dasharray: 5.55,2.4; stroke-dashoffset: 0; stroke: #bf00bf; stroke-width: 1.5"/>
    </g>
    <g id="text_16">
     <!-- 4-step preds -->
     <g transform="translate(89.160938 133.084063)scale(0.1 -0.1)">
      <use xlink:href="#DejaVuSans-34"/>
      <use xlink:href="#DejaVuSans-2d" x="63.623047"/>
      <use xlink:href="#DejaVuSans-73" x="99.707031"/>
      <use xlink:href="#DejaVuSans-74" x="151.806641"/>
      <use xlink:href="#DejaVuSans-65" x="191.015625"/>
      <use xlink:href="#DejaVuSans-70" x="252.539062"/>
      <use xlink:href="#DejaVuSans-20" x="316.015625"/>
      <use xlink:href="#DejaVuSans-70" x="347.802734"/>
      <use xlink:href="#DejaVuSans-72" x="411.279297"/>
      <use xlink:href="#DejaVuSans-65" x="450.142578"/>
      <use xlink:href="#DejaVuSans-64" x="511.666016"/>
      <use xlink:href="#DejaVuSans-73" x="575.142578"/>
     </g>
    </g>
    <g id="line2d_31">
     <path d="M 61.160938 144.262188 
L 71.160938 144.262188 
L 81.160938 144.262188 
" style="fill: none; stroke-dasharray: 9.6,2.4,1.5,2.4; stroke-dashoffset: 0; stroke: #008000; stroke-width: 1.5"/>
    </g>
    <g id="text_17">
     <!-- 16-step preds -->
     <g transform="translate(89.160938 147.762188)scale(0.1 -0.1)">
      <use xlink:href="#DejaVuSans-31"/>
      <use xlink:href="#DejaVuSans-36" x="63.623047"/>
      <use xlink:href="#DejaVuSans-2d" x="127.246094"/>
      <use xlink:href="#DejaVuSans-73" x="163.330078"/>
      <use xlink:href="#DejaVuSans-74" x="215.429688"/>
      <use xlink:href="#DejaVuSans-65" x="254.638672"/>
      <use xlink:href="#DejaVuSans-70" x="316.162109"/>
      <use xlink:href="#DejaVuSans-20" x="379.638672"/>
      <use xlink:href="#DejaVuSans-70" x="411.425781"/>
      <use xlink:href="#DejaVuSans-72" x="474.902344"/>
      <use xlink:href="#DejaVuSans-65" x="513.765625"/>
      <use xlink:href="#DejaVuSans-64" x="575.289062"/>
      <use xlink:href="#DejaVuSans-73" x="638.765625"/>
     </g>
    </g>
    <g id="line2d_32">
     <path d="M 61.160938 158.940313 
L 71.160938 158.940313 
L 81.160938 158.940313 
" style="fill: none; stroke-dasharray: 1.5,2.475; stroke-dashoffset: 0; stroke: #ff0000; stroke-width: 1.5"/>
    </g>
    <g id="text_18">
     <!-- 64-step preds -->
     <g transform="translate(89.160938 162.440313)scale(0.1 -0.1)">
      <use xlink:href="#DejaVuSans-36"/>
      <use xlink:href="#DejaVuSans-34" x="63.623047"/>
      <use xlink:href="#DejaVuSans-2d" x="127.246094"/>
      <use xlink:href="#DejaVuSans-73" x="163.330078"/>
      <use xlink:href="#DejaVuSans-74" x="215.429688"/>
      <use xlink:href="#DejaVuSans-65" x="254.638672"/>
      <use xlink:href="#DejaVuSans-70" x="316.162109"/>
      <use xlink:href="#DejaVuSans-20" x="379.638672"/>
      <use xlink:href="#DejaVuSans-70" x="411.425781"/>
      <use xlink:href="#DejaVuSans-72" x="474.902344"/>
      <use xlink:href="#DejaVuSans-65" x="513.765625"/>
      <use xlink:href="#DejaVuSans-64" x="575.289062"/>
      <use xlink:href="#DejaVuSans-73" x="638.765625"/>
     </g>
    </g>
   </g>
  </g>
 </g>
 <defs>
  <clipPath id="p59ee1b88d5">
   <rect x="52.160938" y="7.2" width="334.8" height="166.32"/>
  </clipPath>
 </defs>
</svg>
