<?xml version="1.0" encoding="utf-8" standalone="no"?>
<!DOCTYPE svg PUBLIC "-//W3C//DTD SVG 1.1//EN"
  "http://www.w3.org/Graphics/SVG/1.1/DTD/svg11.dtd">
<svg xmlns:xlink="http://www.w3.org/1999/xlink" width="406.885938pt" height="211.07625pt" viewBox="0 0 406.885938 211.07625" xmlns="http://www.w3.org/2000/svg" version="1.1">
 <metadata>
  <rdf:RDF xmlns:dc="http://purl.org/dc/elements/1.1/" xmlns:cc="http://creativecommons.org/ns#" xmlns:rdf="http://www.w3.org/1999/02/22-rdf-syntax-ns#">
   <cc:Work>
    <dc:type rdf:resource="http://purl.org/dc/dcmitype/StillImage"/>
    <dc:date>2024-02-21T16:49:24.437786</dc:date>
    <dc:format>image/svg+xml</dc:format>
    <dc:creator>
     <cc:Agent>
      <dc:title>Matplotlib v3.5.1, https://matplotlib.org/</dc:title>
     </cc:Agent>
    </dc:creator>
   </cc:Work>
  </rdf:RDF>
 </metadata>
 <defs>
  <style type="text/css">*{stroke-linejoin: round; stroke-linecap: butt}</style>
 </defs>
 <g id="figure_1">
  <g id="patch_1">
   <path d="M 0 211.07625 
L 406.885938 211.07625 
L 406.885938 0 
L 0 0 
z
" style="fill: #ffffff"/>
  </g>
  <g id="axes_1">
   <g id="patch_2">
    <path d="M 52.160938 173.52 
L 386.960938 173.52 
L 386.960938 7.2 
L 52.160938 7.2 
z
" style="fill: #ffffff"/>
   </g>
   <g id="matplotlib.axis_1">
    <g id="xtick_1">
     <g id="line2d_1">
      <path d="M 118.852829 173.52 
L 118.852829 7.2 
" clip-path="url(#p5531fe48a8)" style="fill: none; stroke: #b0b0b0; stroke-width: 0.8; stroke-linecap: square"/>
     </g>
     <g id="line2d_2">
      <defs>
       <path id="m700e088454" d="M 0 0 
L 0 3.5 
" style="stroke: #000000; stroke-width: 0.8"/>
      </defs>
      <g>
       <use xlink:href="#m700e088454" x="118.852829" y="173.52" style="stroke: #000000; stroke-width: 0.8"/>
      </g>
     </g>
     <g id="text_1">
      <!-- 200 -->
      <g transform="translate(109.309079 188.118438)scale(0.1 -0.1)">
       <defs>
        <path id="DejaVuSans-32" d="M 1228 531 
L 3431 531 
L 3431 0 
L 469 0 
L 469 531 
Q 828 903 1448 1529 
Q 2069 2156 2228 2338 
Q 2531 2678 2651 2914 
Q 2772 3150 2772 3378 
Q 2772 3750 2511 3984 
Q 2250 4219 1831 4219 
Q 1534 4219 1204 4116 
Q 875 4013 500 3803 
L 500 4441 
Q 881 4594 1212 4672 
Q 1544 4750 1819 4750 
Q 2544 4750 2975 4387 
Q 3406 4025 3406 3419 
Q 3406 3131 3298 2873 
Q 3191 2616 2906 2266 
Q 2828 2175 2409 1742 
Q 1991 1309 1228 531 
z
" transform="scale(0.015625)"/>
        <path id="DejaVuSans-30" d="M 2034 4250 
Q 1547 4250 1301 3770 
Q 1056 3291 1056 2328 
Q 1056 1369 1301 889 
Q 1547 409 2034 409 
Q 2525 409 2770 889 
Q 3016 1369 3016 2328 
Q 3016 3291 2770 3770 
Q 2525 4250 2034 4250 
z
M 2034 4750 
Q 2819 4750 3233 4129 
Q 3647 3509 3647 2328 
Q 3647 1150 3233 529 
Q 2819 -91 2034 -91 
Q 1250 -91 836 529 
Q 422 1150 422 2328 
Q 422 3509 836 4129 
Q 1250 4750 2034 4750 
z
" transform="scale(0.015625)"/>
       </defs>
       <use xlink:href="#DejaVuSans-32"/>
       <use xlink:href="#DejaVuSans-30" x="63.623047"/>
       <use xlink:href="#DejaVuSans-30" x="127.246094"/>
      </g>
     </g>
    </g>
    <g id="xtick_2">
     <g id="line2d_3">
      <path d="M 185.879856 173.52 
L 185.879856 7.2 
" clip-path="url(#p5531fe48a8)" style="fill: none; stroke: #b0b0b0; stroke-width: 0.8; stroke-linecap: square"/>
     </g>
     <g id="line2d_4">
      <g>
       <use xlink:href="#m700e088454" x="185.879856" y="173.52" style="stroke: #000000; stroke-width: 0.8"/>
      </g>
     </g>
     <g id="text_2">
      <!-- 400 -->
      <g transform="translate(176.336106 188.118438)scale(0.1 -0.1)">
       <defs>
        <path id="DejaVuSans-34" d="M 2419 4116 
L 825 1625 
L 2419 1625 
L 2419 4116 
z
M 2253 4666 
L 3047 4666 
L 3047 1625 
L 3713 1625 
L 3713 1100 
L 3047 1100 
L 3047 0 
L 2419 0 
L 2419 1100 
L 313 1100 
L 313 1709 
L 2253 4666 
z
" transform="scale(0.015625)"/>
       </defs>
       <use xlink:href="#DejaVuSans-34"/>
       <use xlink:href="#DejaVuSans-30" x="63.623047"/>
       <use xlink:href="#DejaVuSans-30" x="127.246094"/>
      </g>
     </g>
    </g>
    <g id="xtick_3">
     <g id="line2d_5">
      <path d="M 252.906883 173.52 
L 252.906883 7.2 
" clip-path="url(#p5531fe48a8)" style="fill: none; stroke: #b0b0b0; stroke-width: 0.8; stroke-linecap: square"/>
     </g>
     <g id="line2d_6">
      <g>
       <use xlink:href="#m700e088454" x="252.906883" y="173.52" style="stroke: #000000; stroke-width: 0.8"/>
      </g>
     </g>
     <g id="text_3">
      <!-- 600 -->
      <g transform="translate(243.363133 188.118438)scale(0.1 -0.1)">
       <defs>
        <path id="DejaVuSans-36" d="M 2113 2584 
Q 1688 2584 1439 2293 
Q 1191 2003 1191 1497 
Q 1191 994 1439 701 
Q 1688 409 2113 409 
Q 2538 409 2786 701 
Q 3034 994 3034 1497 
Q 3034 2003 2786 2293 
Q 2538 2584 2113 2584 
z
M 3366 4563 
L 3366 3988 
Q 3128 4100 2886 4159 
Q 2644 4219 2406 4219 
Q 1781 4219 1451 3797 
Q 1122 3375 1075 2522 
Q 1259 2794 1537 2939 
Q 1816 3084 2150 3084 
Q 2853 3084 3261 2657 
Q 3669 2231 3669 1497 
Q 3669 778 3244 343 
Q 2819 -91 2113 -91 
Q 1303 -91 875 529 
Q 447 1150 447 2328 
Q 447 3434 972 4092 
Q 1497 4750 2381 4750 
Q 2619 4750 2861 4703 
Q 3103 4656 3366 4563 
z
" transform="scale(0.015625)"/>
       </defs>
       <use xlink:href="#DejaVuSans-36"/>
       <use xlink:href="#DejaVuSans-30" x="63.623047"/>
       <use xlink:href="#DejaVuSans-30" x="127.246094"/>
      </g>
     </g>
    </g>
    <g id="xtick_4">
     <g id="line2d_7">
      <path d="M 319.93391 173.52 
L 319.93391 7.2 
" clip-path="url(#p5531fe48a8)" style="fill: none; stroke: #b0b0b0; stroke-width: 0.8; stroke-linecap: square"/>
     </g>
     <g id="line2d_8">
      <g>
       <use xlink:href="#m700e088454" x="319.93391" y="173.52" style="stroke: #000000; stroke-width: 0.8"/>
      </g>
     </g>
     <g id="text_4">
      <!-- 800 -->
      <g transform="translate(310.39016 188.118438)scale(0.1 -0.1)">
       <defs>
        <path id="DejaVuSans-38" d="M 2034 2216 
Q 1584 2216 1326 1975 
Q 1069 1734 1069 1313 
Q 1069 891 1326 650 
Q 1584 409 2034 409 
Q 2484 409 2743 651 
Q 3003 894 3003 1313 
Q 3003 1734 2745 1975 
Q 2488 2216 2034 2216 
z
M 1403 2484 
Q 997 2584 770 2862 
Q 544 3141 544 3541 
Q 544 4100 942 4425 
Q 1341 4750 2034 4750 
Q 2731 4750 3128 4425 
Q 3525 4100 3525 3541 
Q 3525 3141 3298 2862 
Q 3072 2584 2669 2484 
Q 3125 2378 3379 2068 
Q 3634 1759 3634 1313 
Q 3634 634 3220 271 
Q 2806 -91 2034 -91 
Q 1263 -91 848 271 
Q 434 634 434 1313 
Q 434 1759 690 2068 
Q 947 2378 1403 2484 
z
M 1172 3481 
Q 1172 3119 1398 2916 
Q 1625 2713 2034 2713 
Q 2441 2713 2670 2916 
Q 2900 3119 2900 3481 
Q 2900 3844 2670 4047 
Q 2441 4250 2034 4250 
Q 1625 4250 1398 4047 
Q 1172 3844 1172 3481 
z
" transform="scale(0.015625)"/>
       </defs>
       <use xlink:href="#DejaVuSans-38"/>
       <use xlink:href="#DejaVuSans-30" x="63.623047"/>
       <use xlink:href="#DejaVuSans-30" x="127.246094"/>
      </g>
     </g>
    </g>
    <g id="xtick_5">
     <g id="line2d_9">
      <path d="M 386.960938 173.52 
L 386.960938 7.2 
" clip-path="url(#p5531fe48a8)" style="fill: none; stroke: #b0b0b0; stroke-width: 0.8; stroke-linecap: square"/>
     </g>
     <g id="line2d_10">
      <g>
       <use xlink:href="#m700e088454" x="386.960938" y="173.52" style="stroke: #000000; stroke-width: 0.8"/>
      </g>
     </g>
     <g id="text_5">
      <!-- 1000 -->
      <g transform="translate(374.235937 188.118438)scale(0.1 -0.1)">
       <defs>
        <path id="DejaVuSans-31" d="M 794 531 
L 1825 531 
L 1825 4091 
L 703 3866 
L 703 4441 
L 1819 4666 
L 2450 4666 
L 2450 531 
L 3481 531 
L 3481 0 
L 794 0 
L 794 531 
z
" transform="scale(0.015625)"/>
       </defs>
       <use xlink:href="#DejaVuSans-31"/>
       <use xlink:href="#DejaVuSans-30" x="63.623047"/>
       <use xlink:href="#DejaVuSans-30" x="127.246094"/>
       <use xlink:href="#DejaVuSans-30" x="190.869141"/>
      </g>
     </g>
    </g>
    <g id="text_6">
     <!-- time -->
     <g transform="translate(208.264844 201.796563)scale(0.1 -0.1)">
      <defs>
       <path id="DejaVuSans-74" d="M 1172 4494 
L 1172 3500 
L 2356 3500 
L 2356 3053 
L 1172 3053 
L 1172 1153 
Q 1172 725 1289 603 
Q 1406 481 1766 481 
L 2356 481 
L 2356 0 
L 1766 0 
Q 1100 0 847 248 
Q 594 497 594 1153 
L 594 3053 
L 172 3053 
L 172 3500 
L 594 3500 
L 594 4494 
L 1172 4494 
z
" transform="scale(0.015625)"/>
       <path id="DejaVuSans-69" d="M 603 3500 
L 1178 3500 
L 1178 0 
L 603 0 
L 603 3500 
z
M 603 4863 
L 1178 4863 
L 1178 4134 
L 603 4134 
L 603 4863 
z
" transform="scale(0.015625)"/>
       <path id="DejaVuSans-6d" d="M 3328 2828 
Q 3544 3216 3844 3400 
Q 4144 3584 4550 3584 
Q 5097 3584 5394 3201 
Q 5691 2819 5691 2113 
L 5691 0 
L 5113 0 
L 5113 2094 
Q 5113 2597 4934 2840 
Q 4756 3084 4391 3084 
Q 3944 3084 3684 2787 
Q 3425 2491 3425 1978 
L 3425 0 
L 2847 0 
L 2847 2094 
Q 2847 2600 2669 2842 
Q 2491 3084 2119 3084 
Q 1678 3084 1418 2786 
Q 1159 2488 1159 1978 
L 1159 0 
L 581 0 
L 581 3500 
L 1159 3500 
L 1159 2956 
Q 1356 3278 1631 3431 
Q 1906 3584 2284 3584 
Q 2666 3584 2933 3390 
Q 3200 3197 3328 2828 
z
" transform="scale(0.015625)"/>
       <path id="DejaVuSans-65" d="M 3597 1894 
L 3597 1613 
L 953 1613 
Q 991 1019 1311 708 
Q 1631 397 2203 397 
Q 2534 397 2845 478 
Q 3156 559 3463 722 
L 3463 178 
Q 3153 47 2828 -22 
Q 2503 -91 2169 -91 
Q 1331 -91 842 396 
Q 353 884 353 1716 
Q 353 2575 817 3079 
Q 1281 3584 2069 3584 
Q 2775 3584 3186 3129 
Q 3597 2675 3597 1894 
z
M 3022 2063 
Q 3016 2534 2758 2815 
Q 2500 3097 2075 3097 
Q 1594 3097 1305 2825 
Q 1016 2553 972 2059 
L 3022 2063 
z
" transform="scale(0.015625)"/>
      </defs>
      <use xlink:href="#DejaVuSans-74"/>
      <use xlink:href="#DejaVuSans-69" x="39.208984"/>
      <use xlink:href="#DejaVuSans-6d" x="66.992188"/>
      <use xlink:href="#DejaVuSans-65" x="164.404297"/>
     </g>
    </g>
   </g>
   <g id="matplotlib.axis_2">
    <g id="ytick_1">
     <g id="line2d_11">
      <path d="M 52.160938 168.136282 
L 386.960938 168.136282 
" clip-path="url(#p5531fe48a8)" style="fill: none; stroke: #b0b0b0; stroke-width: 0.8; stroke-linecap: square"/>
     </g>
     <g id="line2d_12">
      <defs>
       <path id="mcd91e9a1cd" d="M 0 0 
L -3.5 0 
" style="stroke: #000000; stroke-width: 0.8"/>
      </defs>
      <g>
       <use xlink:href="#mcd91e9a1cd" x="52.160938" y="168.136282" style="stroke: #000000; stroke-width: 0.8"/>
      </g>
     </g>
     <g id="text_7">
      <!-- −1.5 -->
      <g transform="translate(20.878125 171.935501)scale(0.1 -0.1)">
       <defs>
        <path id="DejaVuSans-2212" d="M 678 2272 
L 4684 2272 
L 4684 1741 
L 678 1741 
L 678 2272 
z
" transform="scale(0.015625)"/>
        <path id="DejaVuSans-2e" d="M 684 794 
L 1344 794 
L 1344 0 
L 684 0 
L 684 794 
z
" transform="scale(0.015625)"/>
        <path id="DejaVuSans-35" d="M 691 4666 
L 3169 4666 
L 3169 4134 
L 1269 4134 
L 1269 2991 
Q 1406 3038 1543 3061 
Q 1681 3084 1819 3084 
Q 2600 3084 3056 2656 
Q 3513 2228 3513 1497 
Q 3513 744 3044 326 
Q 2575 -91 1722 -91 
Q 1428 -91 1123 -41 
Q 819 9 494 109 
L 494 744 
Q 775 591 1075 516 
Q 1375 441 1709 441 
Q 2250 441 2565 725 
Q 2881 1009 2881 1497 
Q 2881 1984 2565 2268 
Q 2250 2553 1709 2553 
Q 1456 2553 1204 2497 
Q 953 2441 691 2322 
L 691 4666 
z
" transform="scale(0.015625)"/>
       </defs>
       <use xlink:href="#DejaVuSans-2212"/>
       <use xlink:href="#DejaVuSans-31" x="83.789062"/>
       <use xlink:href="#DejaVuSans-2e" x="147.412109"/>
       <use xlink:href="#DejaVuSans-35" x="179.199219"/>
      </g>
     </g>
    </g>
    <g id="ytick_2">
     <g id="line2d_13">
      <path d="M 52.160938 142.180529 
L 386.960938 142.180529 
" clip-path="url(#p5531fe48a8)" style="fill: none; stroke: #b0b0b0; stroke-width: 0.8; stroke-linecap: square"/>
     </g>
     <g id="line2d_14">
      <g>
       <use xlink:href="#mcd91e9a1cd" x="52.160938" y="142.180529" style="stroke: #000000; stroke-width: 0.8"/>
      </g>
     </g>
     <g id="text_8">
      <!-- −1.0 -->
      <g transform="translate(20.878125 145.979748)scale(0.1 -0.1)">
       <use xlink:href="#DejaVuSans-2212"/>
       <use xlink:href="#DejaVuSans-31" x="83.789062"/>
       <use xlink:href="#DejaVuSans-2e" x="147.412109"/>
       <use xlink:href="#DejaVuSans-30" x="179.199219"/>
      </g>
     </g>
    </g>
    <g id="ytick_3">
     <g id="line2d_15">
      <path d="M 52.160938 116.224776 
L 386.960938 116.224776 
" clip-path="url(#p5531fe48a8)" style="fill: none; stroke: #b0b0b0; stroke-width: 0.8; stroke-linecap: square"/>
     </g>
     <g id="line2d_16">
      <g>
       <use xlink:href="#mcd91e9a1cd" x="52.160938" y="116.224776" style="stroke: #000000; stroke-width: 0.8"/>
      </g>
     </g>
     <g id="text_9">
      <!-- −0.5 -->
      <g transform="translate(20.878125 120.023994)scale(0.1 -0.1)">
       <use xlink:href="#DejaVuSans-2212"/>
       <use xlink:href="#DejaVuSans-30" x="83.789062"/>
       <use xlink:href="#DejaVuSans-2e" x="147.412109"/>
       <use xlink:href="#DejaVuSans-35" x="179.199219"/>
      </g>
     </g>
    </g>
    <g id="ytick_4">
     <g id="line2d_17">
      <path d="M 52.160938 90.269022 
L 386.960938 90.269022 
" clip-path="url(#p5531fe48a8)" style="fill: none; stroke: #b0b0b0; stroke-width: 0.8; stroke-linecap: square"/>
     </g>
     <g id="line2d_18">
      <g>
       <use xlink:href="#mcd91e9a1cd" x="52.160938" y="90.269022" style="stroke: #000000; stroke-width: 0.8"/>
      </g>
     </g>
     <g id="text_10">
      <!-- 0.0 -->
      <g transform="translate(29.257812 94.068241)scale(0.1 -0.1)">
       <use xlink:href="#DejaVuSans-30"/>
       <use xlink:href="#DejaVuSans-2e" x="63.623047"/>
       <use xlink:href="#DejaVuSans-30" x="95.410156"/>
      </g>
     </g>
    </g>
    <g id="ytick_5">
     <g id="line2d_19">
      <path d="M 52.160938 64.313269 
L 386.960938 64.313269 
" clip-path="url(#p5531fe48a8)" style="fill: none; stroke: #b0b0b0; stroke-width: 0.8; stroke-linecap: square"/>
     </g>
     <g id="line2d_20">
      <g>
       <use xlink:href="#mcd91e9a1cd" x="52.160938" y="64.313269" style="stroke: #000000; stroke-width: 0.8"/>
      </g>
     </g>
     <g id="text_11">
      <!-- 0.5 -->
      <g transform="translate(29.257812 68.112488)scale(0.1 -0.1)">
       <use xlink:href="#DejaVuSans-30"/>
       <use xlink:href="#DejaVuSans-2e" x="63.623047"/>
       <use xlink:href="#DejaVuSans-35" x="95.410156"/>
      </g>
     </g>
    </g>
    <g id="ytick_6">
     <g id="line2d_21">
      <path d="M 52.160938 38.357515 
L 386.960938 38.357515 
" clip-path="url(#p5531fe48a8)" style="fill: none; stroke: #b0b0b0; stroke-width: 0.8; stroke-linecap: square"/>
     </g>
     <g id="line2d_22">
      <g>
       <use xlink:href="#mcd91e9a1cd" x="52.160938" y="38.357515" style="stroke: #000000; stroke-width: 0.8"/>
      </g>
     </g>
     <g id="text_12">
      <!-- 1.0 -->
      <g transform="translate(29.257812 42.156734)scale(0.1 -0.1)">
       <use xlink:href="#DejaVuSans-31"/>
       <use xlink:href="#DejaVuSans-2e" x="63.623047"/>
       <use xlink:href="#DejaVuSans-30" x="95.410156"/>
      </g>
     </g>
    </g>
    <g id="ytick_7">
     <g id="line2d_23">
      <path d="M 52.160938 12.401762 
L 386.960938 12.401762 
" clip-path="url(#p5531fe48a8)" style="fill: none; stroke: #b0b0b0; stroke-width: 0.8; stroke-linecap: square"/>
     </g>
     <g id="line2d_24">
      <g>
       <use xlink:href="#mcd91e9a1cd" x="52.160938" y="12.401762" style="stroke: #000000; stroke-width: 0.8"/>
      </g>
     </g>
     <g id="text_13">
      <!-- 1.5 -->
      <g transform="translate(29.257812 16.200981)scale(0.1 -0.1)">
       <use xlink:href="#DejaVuSans-31"/>
       <use xlink:href="#DejaVuSans-2e" x="63.623047"/>
       <use xlink:href="#DejaVuSans-35" x="95.410156"/>
      </g>
     </g>
    </g>
    <g id="text_14">
     <!-- x -->
     <g transform="translate(14.798438 93.319375)rotate(-90)scale(0.1 -0.1)">
      <defs>
       <path id="DejaVuSans-78" d="M 3513 3500 
L 2247 1797 
L 3578 0 
L 2900 0 
L 1881 1375 
L 863 0 
L 184 0 
L 1544 1831 
L 300 3500 
L 978 3500 
L 1906 2253 
L 2834 3500 
L 3513 3500 
z
" transform="scale(0.015625)"/>
      </defs>
      <use xlink:href="#DejaVuSans-78"/>
     </g>
    </g>
   </g>
   <g id="line2d_25">
    <path d="M 52.160938 96.023914 
L 52.831208 84.758128 
L 53.166343 74.617428 
L 53.501478 97.020808 
L 53.836613 81.608205 
L 54.171748 87.827463 
L 54.506883 102.264089 
L 54.842019 78.585938 
L 55.177154 79.544335 
L 55.512289 77.787904 
L 55.847424 77.898181 
L 56.182559 89.60066 
L 56.517694 94.55737 
L 56.852829 85.703351 
L 57.187965 73.256363 
L 57.5231 72.159219 
L 57.858235 79.743279 
L 58.19337 59.326363 
L 58.528505 93.359784 
L 58.86364 79.165441 
L 59.198775 70.461935 
L 59.53391 89.348993 
L 59.869046 71.258625 
L 60.204181 62.765845 
L 60.539316 88.495415 
L 60.874451 78.59607 
L 61.209586 98.950297 
L 61.544721 83.601696 
L 61.879856 81.209039 
L 62.214992 61.989574 
L 62.550127 83.637399 
L 63.220397 60.38843 
L 63.555532 73.902993 
L 63.890667 79.475373 
L 64.225802 73.40736 
L 64.560938 59.863154 
L 64.896073 53.824538 
L 65.231208 75.195867 
L 65.566343 84.092035 
L 65.901478 82.383341 
L 66.236613 56.489488 
L 66.571748 77.566582 
L 66.906883 50.656885 
L 67.577154 76.689704 
L 67.912289 76.552744 
L 68.247424 66.763134 
L 68.582559 64.985116 
L 68.917694 70.217711 
L 69.252829 48.972798 
L 69.587965 74.970684 
L 69.9231 56.855971 
L 70.258235 60.733646 
L 70.59337 71.285287 
L 70.928505 71.137508 
L 71.26364 57.288 
L 71.598775 69.436604 
L 71.93391 30.063063 
L 72.269046 60.58528 
L 72.604181 37.273227 
L 72.939316 71.960165 
L 73.274451 47.091659 
L 73.609586 64.981024 
L 73.944721 58.897146 
L 74.279856 57.720546 
L 74.614992 66.134851 
L 74.950127 67.743045 
L 75.285262 71.796125 
L 75.620397 56.146806 
L 75.955532 70.121193 
L 76.290667 68.565996 
L 76.625802 53.739591 
L 76.960938 49.025881 
L 77.296073 56.2519 
L 77.631208 56.36976 
L 77.966343 55.24029 
L 78.301478 52.734921 
L 78.636613 58.40699 
L 78.971748 53.694725 
L 79.306883 52.585074 
L 79.642019 44.748904 
L 79.977154 64.294091 
L 80.312289 39.448414 
L 80.647424 52.72648 
L 80.982559 48.477975 
L 81.317694 70.363533 
L 81.652829 35.34147 
L 81.987965 33.656145 
L 82.658235 54.183214 
L 82.99337 33.839394 
L 83.328505 43.277142 
L 83.66364 35.616232 
L 83.998775 32.712455 
L 84.33391 45.849354 
L 84.669046 47.74985 
L 85.004181 51.869922 
L 85.339316 44.001109 
L 85.674451 44.023056 
L 86.009586 35.982885 
L 86.344721 53.932698 
L 86.679856 33.41024 
L 87.685262 52.942614 
L 88.020397 28.183573 
L 88.355532 46.240221 
L 88.690667 45.887551 
L 89.025802 63.833122 
L 89.360938 61.545617 
L 89.696073 56.705108 
L 90.031208 44.458442 
L 90.366343 36.459071 
L 90.701478 40.783454 
L 91.036613 51.138495 
L 91.371748 37.702827 
L 91.706883 44.793995 
L 92.042019 42.593346 
L 92.377154 46.982893 
L 92.712289 23.909371 
L 93.047424 44.418144 
L 93.382559 31.426637 
L 93.717694 56.663263 
L 94.052829 41.900498 
L 94.387965 43.274011 
L 94.7231 45.828156 
L 95.39337 30.571849 
L 95.728505 71.61122 
L 96.06364 28.61019 
L 96.398775 44.732585 
L 96.73391 42.834722 
L 97.069046 27.881458 
L 97.404181 43.777682 
L 97.739316 17.327496 
L 98.074451 35.768205 
L 98.409586 43.946082 
L 98.744721 35.907158 
L 99.079856 40.165759 
L 99.414992 39.166597 
L 99.750127 47.355328 
L 100.085262 37.045818 
L 100.420397 37.112503 
L 100.755532 40.921401 
L 101.090667 33.904508 
L 101.425802 43.829197 
L 101.760938 25.3754 
L 102.096073 36.121231 
L 102.431208 30.96289 
L 102.766343 21.592552 
L 103.101478 39.198269 
L 103.436613 28.566792 
L 103.771748 50.415855 
L 104.106883 37.381844 
L 104.442019 48.241996 
L 105.112289 16.816977 
L 105.447424 55.204181 
L 105.782559 34.878044 
L 106.452829 56.004806 
L 106.787965 42.299472 
L 107.1231 48.044696 
L 107.458235 39.135429 
L 107.79337 40.881421 
L 108.128505 32.288691 
L 108.46364 44.651664 
L 108.798775 66.53877 
L 109.13391 41.38051 
L 109.469046 46.334631 
L 109.804181 38.918869 
L 110.139316 27.968677 
L 110.474451 47.878824 
L 110.809586 43.134018 
L 111.144721 53.680174 
L 111.479856 41.412841 
L 111.814992 54.467896 
L 112.485262 31.886635 
L 112.820397 44.864508 
L 113.155532 47.577468 
L 113.490667 31.811657 
L 113.825802 48.58931 
L 114.160938 29.655641 
L 114.496073 53.060731 
L 115.166343 33.574447 
L 115.501478 57.466088 
L 115.836613 34.933461 
L 116.171748 24.186837 
L 116.506883 22.088361 
L 116.842019 29.905848 
L 117.177154 44.426594 
L 117.512289 38.419817 
L 117.847424 49.607767 
L 118.182559 39.820815 
L 118.517694 23.724309 
L 118.852829 41.500589 
L 119.187965 49.746126 
L 119.5231 16.284088 
L 119.858235 61.942927 
L 120.19337 46.193747 
L 120.528505 58.417786 
L 120.86364 49.833245 
L 121.198775 48.75974 
L 121.869046 40.461388 
L 122.204181 26.951438 
L 122.539316 52.986112 
L 122.874451 49.525688 
L 123.209586 50.267954 
L 123.544721 42.308516 
L 123.879856 54.130935 
L 124.214992 24.677579 
L 124.550127 54.02358 
L 124.885262 49.577169 
L 125.555532 14.76 
L 125.890667 46.998404 
L 126.560938 71.182522 
L 126.896073 45.162981 
L 127.231208 53.75823 
L 127.566343 58.928769 
L 127.901478 37.413021 
L 128.571748 65.07073 
L 129.242019 45.628755 
L 129.577154 56.714741 
L 129.912289 77.252764 
L 130.247424 59.547676 
L 130.582559 68.067261 
L 130.917694 55.925453 
L 131.252829 60.410664 
L 131.587965 59.094641 
L 131.9231 58.760133 
L 132.258235 70.528576 
L 132.59337 62.521824 
L 132.928505 47.892457 
L 133.26364 48.8101 
L 133.598775 57.372823 
L 133.93391 61.72782 
L 134.269046 59.462577 
L 134.604181 69.40041 
L 134.939316 28.726475 
L 135.274451 61.299646 
L 135.609586 35.281375 
L 135.944721 73.9336 
L 136.279856 71.416597 
L 136.950127 60.282918 
L 137.285262 61.599007 
L 137.620397 55.324624 
L 137.955532 72.424318 
L 138.290667 68.02026 
L 138.625802 70.702906 
L 138.960938 66.197616 
L 139.296073 49.805976 
L 139.631208 53.424246 
L 139.966343 54.430246 
L 140.301478 52.279627 
L 140.636613 67.434697 
L 140.971748 69.11185 
L 141.306883 56.354106 
L 141.642019 74.764569 
L 141.977154 59.875135 
L 142.312289 77.487153 
L 142.647424 57.482629 
L 142.982559 70.273069 
L 143.317694 73.686961 
L 143.652829 70.344284 
L 143.987965 68.410526 
L 144.3231 58.681003 
L 144.658235 67.347687 
L 144.99337 53.088813 
L 145.328505 59.016024 
L 145.66364 89.143601 
L 145.998775 49.709556 
L 146.33391 74.658501 
L 146.669046 75.265831 
L 147.004181 76.836042 
L 147.339316 69.792017 
L 147.674451 84.871004 
L 148.009586 63.246809 
L 148.679856 82.140132 
L 149.014992 70.105815 
L 149.350127 70.479684 
L 149.685262 67.794757 
L 150.020397 79.101298 
L 150.355532 61.008723 
L 150.690667 84.271955 
L 151.025802 73.782206 
L 151.360938 98.106794 
L 151.696073 87.515785 
L 152.031208 82.214396 
L 152.366343 81.540807 
L 152.701478 87.23746 
L 153.036613 65.753167 
L 153.371748 89.599822 
L 153.706883 96.509 
L 154.042019 81.150998 
L 154.377154 75.979196 
L 154.712289 77.072397 
L 155.047424 90.845036 
L 155.382559 86.870411 
L 155.717694 80.278205 
L 156.052829 76.405142 
L 156.387965 94.272895 
L 156.7231 99.23488 
L 157.058235 119.896794 
L 157.39337 85.031323 
L 157.728505 93.520715 
L 158.06364 94.292384 
L 158.398775 99.018107 
L 158.73391 126.959199 
L 159.069046 105.605222 
L 159.404181 68.47704 
L 159.739316 102.778988 
L 160.074451 83.822791 
L 160.409586 114.704498 
L 160.744721 110.277717 
L 161.079856 102.441543 
L 161.414992 101.176775 
L 161.750127 98.605537 
L 162.085262 92.040277 
L 162.420397 107.060293 
L 162.755532 104.829268 
L 163.090667 100.849681 
L 163.425802 105.94424 
L 163.760938 107.900684 
L 164.096073 116.321772 
L 164.431208 100.203219 
L 164.766343 114.435956 
L 165.101478 103.061103 
L 165.436613 107.373165 
L 165.771748 84.881702 
L 166.106883 85.95713 
L 166.442019 90.251528 
L 166.777154 118.472533 
L 167.112289 125.09625 
L 167.447424 108.089473 
L 167.782559 116.852174 
L 168.117694 107.151538 
L 168.452829 126.027387 
L 168.787965 114.277211 
L 169.458235 124.857483 
L 169.79337 116.889564 
L 170.128505 120.723642 
L 170.46364 138.899886 
L 170.798775 92.302408 
L 171.13391 115.203394 
L 171.469046 120.98978 
L 171.804181 140.588565 
L 172.139316 112.944456 
L 172.474451 110.343496 
L 172.809586 123.638808 
L 173.144721 108.101891 
L 173.479856 109.654031 
L 173.814992 115.447473 
L 174.150127 114.004556 
L 174.485262 113.714316 
L 174.820397 100.890624 
L 175.155532 114.321068 
L 175.490667 97.133609 
L 176.160938 136.313531 
L 176.496073 101.958817 
L 176.831208 105.489749 
L 177.501478 131.040894 
L 177.836613 117.774656 
L 178.171748 125.240556 
L 178.506883 142.655632 
L 178.842019 131.512008 
L 179.177154 126.745769 
L 179.512289 138.736016 
L 180.182559 111.003821 
L 180.517694 133.855493 
L 180.852829 122.737168 
L 181.187965 104.729257 
L 181.5231 108.825026 
L 182.19337 159.815968 
L 182.528505 112.713011 
L 182.86364 131.150347 
L 183.198775 104.511759 
L 183.53391 127.109359 
L 184.204181 145.50411 
L 184.539316 124.058906 
L 184.874451 134.105459 
L 185.209586 108.764683 
L 185.544721 143.139857 
L 185.879856 121.389386 
L 186.214992 145.323534 
L 186.550127 120.619343 
L 186.885262 137.421706 
L 187.220397 135.555967 
L 187.555532 121.771045 
L 187.890667 137.385529 
L 188.225802 109.818298 
L 188.560938 137.650681 
L 188.896073 139.944573 
L 189.231208 122.599471 
L 189.566343 152.4062 
L 189.901478 131.058382 
L 190.236613 160.198667 
L 190.571748 129.829227 
L 190.906883 138.59904 
L 191.242019 124.978684 
L 191.577154 139.406828 
L 191.912289 147.714434 
L 192.247424 128.991779 
L 192.582559 141.961861 
L 192.917694 130.641901 
L 193.252829 152.776757 
L 193.587965 131.904417 
L 193.9231 151.106316 
L 194.258235 151.571684 
L 194.59337 133.049664 
L 194.928505 138.81138 
L 195.26364 132.769518 
L 195.598775 119.892688 
L 195.93391 150.516202 
L 196.269046 135.875431 
L 196.604181 155.052461 
L 196.939316 143.261885 
L 197.274451 126.617723 
L 197.609586 138.798113 
L 197.944721 131.365193 
L 198.279856 137.093579 
L 198.614992 136.053955 
L 198.950127 128.829446 
L 199.285262 143.189908 
L 199.620397 139.509288 
L 199.955532 128.849246 
L 200.290667 140.684908 
L 200.625802 135.698423 
L 200.960938 133.516032 
L 201.296073 142.541538 
L 201.631208 143.101433 
L 201.966343 139.518203 
L 202.301478 152.842465 
L 202.636613 129.334866 
L 202.971748 143.035497 
L 203.306883 132.50631 
L 203.642019 163.50148 
L 203.977154 165.96 
L 204.312289 127.807443 
L 204.647424 149.284885 
L 204.982559 135.25018 
L 205.317694 141.791874 
L 205.652829 160.29778 
L 205.987965 129.342187 
L 206.3231 132.011945 
L 206.658235 149.207574 
L 206.99337 151.617305 
L 207.328505 162.299452 
L 207.66364 137.481767 
L 207.998775 149.894522 
L 208.33391 145.381253 
L 209.004181 156.294101 
L 209.339316 153.619843 
L 210.009586 142.728512 
L 210.344721 162.467038 
L 210.679856 161.847902 
L 211.014992 154.760601 
L 211.350127 133.529823 
L 211.685262 152.849291 
L 212.020397 138.725384 
L 212.355532 142.567683 
L 212.690667 157.126296 
L 213.025802 136.20585 
L 213.360938 153.570776 
L 213.696073 127.801007 
L 214.031208 156.843879 
L 214.701478 132.686338 
L 215.036613 145.442004 
L 215.706883 136.688123 
L 216.042019 137.089022 
L 216.377154 147.583532 
L 216.712289 136.365389 
L 217.047424 140.89105 
L 217.382559 142.30515 
L 217.717694 137.734093 
L 218.052829 127.787913 
L 219.058235 159.184344 
L 219.39337 154.451073 
L 219.728505 130.461078 
L 220.06364 116.531748 
L 220.398775 140.866059 
L 220.73391 153.763469 
L 221.069046 151.075999 
L 221.404181 138.498436 
L 221.739316 142.846505 
L 222.074451 136.827181 
L 222.409586 141.157783 
L 222.744721 130.45859 
L 223.079856 138.562773 
L 223.414992 130.417775 
L 223.750127 131.230965 
L 224.085262 135.056012 
L 224.420397 144.650776 
L 224.755532 146.306105 
L 225.090667 127.715574 
L 225.425802 121.800619 
L 225.760938 147.11838 
L 226.096073 116.987036 
L 226.431208 139.801133 
L 227.101478 117.953561 
L 227.436613 137.654069 
L 227.771748 142.484686 
L 228.442019 119.238234 
L 228.777154 142.453595 
L 229.112289 123.332857 
L 229.447424 134.101665 
L 229.782559 133.883709 
L 230.117694 145.333547 
L 230.452829 135.255462 
L 230.787965 120.647887 
L 231.1231 122.187959 
L 231.458235 134.618524 
L 231.79337 134.562337 
L 232.128505 137.348712 
L 232.46364 134.736137 
L 232.798775 127.924452 
L 233.13391 116.605884 
L 233.469046 122.387728 
L 233.804181 120.487031 
L 234.139316 135.798024 
L 234.474451 141.572565 
L 234.809586 125.214912 
L 235.144721 136.81783 
L 235.479856 132.589756 
L 236.150127 143.297808 
L 236.820397 110.285344 
L 237.155532 113.427517 
L 237.490667 120.390765 
L 237.825802 137.831111 
L 238.160938 120.804053 
L 238.496073 132.650699 
L 238.831208 118.661116 
L 239.166343 131.530345 
L 239.501478 121.125484 
L 239.836613 138.476762 
L 240.171748 104.06215 
L 240.506883 118.013891 
L 240.842019 119.460426 
L 241.177154 130.086099 
L 241.512289 132.048791 
L 241.847424 123.052318 
L 242.182559 139.423075 
L 242.517694 123.149967 
L 242.852829 135.813362 
L 243.187965 121.774817 
L 243.5231 127.618946 
L 243.858235 118.861365 
L 244.19337 91.420445 
L 244.528505 125.740416 
L 244.86364 112.227881 
L 245.198775 112.993084 
L 245.53391 112.847169 
L 245.869046 103.022074 
L 246.539316 140.314047 
L 246.874451 106.262087 
L 247.544721 124.986219 
L 247.879856 95.438241 
L 248.214992 125.755002 
L 248.550127 103.95246 
L 248.885262 102.103929 
L 249.220397 109.975972 
L 249.555532 104.907176 
L 249.890667 107.519755 
L 250.225802 85.866004 
L 250.560938 108.207364 
L 250.896073 106.239758 
L 251.231208 106.183799 
L 251.566343 124.141561 
L 251.901478 116.250225 
L 252.571748 83.177311 
L 252.906883 89.238431 
L 253.577154 107.201469 
L 253.912289 94.507136 
L 254.582559 117.887504 
L 254.917694 101.654821 
L 255.252829 99.869967 
L 255.587965 103.915456 
L 255.9231 99.166524 
L 256.258235 90.013086 
L 256.59337 90.143876 
L 256.928505 105.450951 
L 257.598775 92.195952 
L 257.93391 88.030621 
L 258.269046 107.863032 
L 258.604181 103.568477 
L 258.939316 81.330102 
L 259.609586 106.462564 
L 259.944721 82.160571 
L 260.279856 121.184846 
L 260.614992 109.204081 
L 260.950127 76.113538 
L 261.285262 98.547056 
L 261.620397 105.030555 
L 262.290667 86.945081 
L 262.625802 93.646782 
L 262.960938 90.259238 
L 263.631208 88.128449 
L 263.966343 63.970262 
L 264.636613 82.014968 
L 264.971748 68.299595 
L 265.306883 71.623939 
L 265.642019 97.515992 
L 266.312289 64.172834 
L 266.647424 109.768332 
L 266.982559 75.121401 
L 267.652829 89.637751 
L 267.987965 67.498205 
L 268.3231 93.832505 
L 268.658235 103.332576 
L 268.99337 80.712647 
L 269.328505 72.712009 
L 269.66364 96.742388 
L 269.998775 59.855097 
L 270.33391 74.773439 
L 270.669046 82.121671 
L 271.004181 69.846899 
L 271.339316 67.302185 
L 271.674451 95.912563 
L 272.009586 89.938916 
L 272.344721 76.006044 
L 272.679856 71.301581 
L 273.014992 81.854732 
L 273.350127 64.97608 
L 273.685262 92.055812 
L 274.020397 87.258421 
L 274.355532 79.856574 
L 274.690667 58.089878 
L 275.360937 75.731636 
L 275.696073 86.960592 
L 276.031208 77.411118 
L 276.366343 48.893482 
L 276.701478 62.31768 
L 277.036613 82.800256 
L 277.371748 77.384753 
L 278.042019 57.456128 
L 278.377154 87.260231 
L 278.712289 57.229366 
L 279.047424 61.29809 
L 279.382559 54.371203 
L 279.717694 62.10732 
L 280.052829 57.338949 
L 280.387965 68.261045 
L 280.7231 68.007588 
L 281.058235 59.957619 
L 281.39337 61.827078 
L 281.728505 46.412418 
L 282.06364 69.563331 
L 282.398775 63.668813 
L 282.73391 61.54829 
L 283.069046 60.469695 
L 283.404181 50.121891 
L 283.739316 62.677763 
L 284.409586 53.590867 
L 284.744721 32.898768 
L 285.079856 63.684506 
L 285.414992 49.189083 
L 285.750127 40.809785 
L 286.085262 61.765504 
L 286.420397 67.574595 
L 287.090667 41.429033 
L 287.425802 62.588679 
L 287.760938 51.121 
L 288.096073 56.319965 
L 288.431208 55.950209 
L 288.766343 80.339612 
L 289.101478 59.975866 
L 289.436613 51.353802 
L 289.771748 55.179916 
L 290.106883 48.374485 
L 290.442019 52.863477 
L 290.777154 55.38492 
L 291.112289 59.46738 
L 291.447424 55.888013 
L 291.782559 32.823251 
L 292.117694 58.47116 
L 292.452829 50.645139 
L 292.787965 59.119806 
L 293.1231 54.852807 
L 293.79337 64.848453 
L 294.128505 65.691282 
L 294.46364 60.326404 
L 294.798775 59.705884 
L 295.13391 50.853278 
L 295.469046 45.050833 
L 295.804181 51.469379 
L 296.139316 42.497601 
L 296.474451 44.630778 
L 296.809586 60.318003 
L 297.144721 25.059739 
L 297.479856 57.980951 
L 297.814992 43.215877 
L 298.150127 48.088243 
L 298.485262 33.18332 
L 298.820397 35.28153 
L 299.155532 47.185941 
L 299.490667 67.017345 
L 300.160938 44.210835 
L 300.496073 47.264239 
L 300.831208 26.290995 
L 301.166343 53.669387 
L 301.501478 46.079535 
L 301.836613 41.13979 
L 302.171748 38.190381 
L 302.506883 46.312368 
L 302.842019 32.231189 
L 303.177154 45.008149 
L 303.512289 33.222461 
L 303.847424 57.372403 
L 304.182559 53.243893 
L 304.517694 42.859674 
L 304.852829 36.290197 
L 305.187965 18.029866 
L 305.5231 61.972798 
L 305.858235 26.931982 
L 306.19337 27.776931 
L 306.528505 35.671964 
L 306.86364 50.166524 
L 307.198775 41.263879 
L 307.53391 40.012462 
L 307.869046 56.503687 
L 308.204181 47.453979 
L 308.539316 42.330868 
L 308.874451 21.257893 
L 309.209586 46.303692 
L 309.544721 30.178791 
L 309.879856 38.402641 
L 310.214992 26.734902 
L 310.885262 37.92716 
L 311.220397 25.747919 
L 311.555532 22.538018 
L 311.890667 46.574589 
L 312.225802 34.336806 
L 312.560938 42.910279 
L 312.896073 28.875986 
L 313.231208 25.191111 
L 313.566343 41.130381 
L 313.901478 35.229542 
L 314.236613 48.50267 
L 314.571748 26.935268 
L 314.906883 36.5828 
L 315.242019 20.961144 
L 315.577154 36.612387 
L 315.912289 40.998597 
L 316.247424 54.06967 
L 316.582559 32.410254 
L 316.917694 42.225766 
L 317.252829 40.529379 
L 317.587965 28.852464 
L 317.9231 28.337421 
L 318.258235 38.627451 
L 318.59337 21.595634 
L 318.928505 26.352624 
L 319.26364 57.023127 
L 319.598775 39.196189 
L 319.93391 37.360037 
L 320.269046 44.114365 
L 320.604181 37.051598 
L 320.939316 36.302135 
L 321.609586 32.27619 
L 321.944721 32.305405 
L 322.279856 43.688747 
L 322.614992 46.923163 
L 322.950127 57.223165 
L 323.285262 29.330618 
L 323.620397 24.267416 
L 323.955532 47.108881 
L 324.625802 31.410065 
L 324.960938 45.813137 
L 325.296073 21.588208 
L 325.631208 50.004804 
L 325.966343 22.131828 
L 326.301478 42.357361 
L 326.636613 40.935012 
L 326.971748 53.04448 
L 327.306883 38.202751 
L 327.642019 63.459208 
L 327.977154 48.752017 
L 328.312289 59.113172 
L 328.647424 31.411235 
L 328.982559 47.564358 
L 329.317694 47.559243 
L 329.652829 33.322371 
L 329.987965 57.500152 
L 330.3231 48.310423 
L 330.658235 31.959564 
L 330.99337 34.153712 
L 331.328505 38.134624 
L 331.66364 44.880378 
L 331.998775 32.706607 
L 332.669046 58.573793 
L 333.004181 40.803027 
L 333.339316 48.714122 
L 333.674451 49.356694 
L 334.009586 55.679841 
L 334.344721 47.199995 
L 334.679856 31.95626 
L 335.350127 55.554378 
L 335.685262 51.991588 
L 336.020397 41.961846 
L 336.355532 58.329048 
L 336.690667 61.476682 
L 337.025802 33.554663 
L 337.360937 31.4109 
L 337.696073 38.427694 
L 338.031208 63.835792 
L 338.366343 65.379644 
L 338.701478 56.485766 
L 339.036613 32.283387 
L 339.371748 71.224309 
L 339.706883 57.564133 
L 340.042019 31.440901 
L 340.712289 64.322734 
L 341.047424 33.557305 
L 341.382559 36.845322 
L 341.717694 67.516426 
L 342.052829 40.981821 
L 342.387965 54.922741 
L 342.7231 48.943372 
L 343.058235 49.281283 
L 343.39337 68.070807 
L 344.06364 51.77607 
L 344.398775 79.041216 
L 344.73391 49.64598 
L 345.069046 47.181603 
L 345.404181 79.908271 
L 345.739316 76.552198 
L 346.074451 65.556004 
L 346.409586 67.344568 
L 346.744721 50.302318 
L 347.079856 58.60325 
L 347.414992 60.527788 
L 347.750127 19.063603 
L 348.085262 75.768789 
L 348.420397 57.358077 
L 348.755532 59.714334 
L 349.090667 56.066921 
L 349.425802 74.513029 
L 349.760938 71.052052 
L 350.096073 44.897607 
L 351.101478 92.848923 
L 351.436613 67.715957 
L 351.771748 54.647098 
L 352.106883 55.139281 
L 352.442019 59.761366 
L 352.777154 49.057151 
L 353.112289 59.309326 
L 353.782559 68.970705 
L 354.117694 63.903648 
L 354.452829 66.657951 
L 354.787965 75.952686 
L 355.1231 55.299713 
L 355.458235 59.861156 
L 355.79337 101.224268 
L 356.128505 47.356943 
L 356.46364 67.438325 
L 356.798775 55.733679 
L 357.13391 72.853696 
L 357.469046 77.843768 
L 357.804181 72.777311 
L 358.139316 83.788868 
L 358.474451 79.201821 
L 358.809586 67.295449 
L 359.144721 88.665041 
L 359.479856 76.0927 
L 359.814992 87.794133 
L 360.150127 77.515171 
L 360.485262 73.045125 
L 360.820397 65.786959 
L 361.155532 88.074897 
L 361.490667 91.217203 
L 361.825802 84.688104 
L 362.160938 83.441848 
L 362.496073 80.955412 
L 362.831208 76.9586 
L 363.166343 85.980082 
L 363.501478 71.914452 
L 363.836613 85.105171 
L 364.171748 86.276444 
L 364.506883 82.046142 
L 364.842019 57.36441 
L 365.177154 86.667517 
L 365.512289 83.616969 
L 365.847424 91.951608 
L 366.182559 95.65341 
L 366.517694 100.950748 
L 366.852829 97.300262 
L 367.187965 88.985474 
L 367.5231 96.103583 
L 367.858235 93.092158 
L 368.19337 97.961631 
L 368.528505 91.86676 
L 368.86364 106.90366 
L 369.53391 94.076183 
L 369.869046 95.647378 
L 370.204181 100.079513 
L 370.539316 89.911302 
L 370.874451 94.081158 
L 371.209586 88.617364 
L 371.544721 96.926031 
L 371.879856 72.8304 
L 372.214992 91.60701 
L 372.550127 80.904033 
L 372.885262 94.277718 
L 373.220397 99.236124 
L 373.555532 90.763296 
L 373.890667 87.765276 
L 374.225802 114.857364 
L 374.560938 100.853962 
L 374.896073 81.59092 
L 375.231208 110.209632 
L 375.566343 106.979433 
L 375.901478 106.967576 
L 376.236613 99.407691 
L 376.571748 112.365242 
L 376.906883 110.710849 
L 377.242019 114.392339 
L 377.577154 124.306325 
L 377.912289 94.671493 
L 378.247424 100.210678 
L 378.582559 86.590576 
L 378.917694 92.328455 
L 379.252829 107.49551 
L 379.587965 116.505856 
L 379.9231 121.876395 
L 380.258235 105.457991 
L 380.59337 102.804916 
L 380.928505 88.331641 
L 381.26364 109.013329 
L 381.598775 100.719732 
L 381.93391 124.709529 
L 382.269046 100.099146 
L 382.604181 94.878214 
L 382.939316 113.43328 
L 383.609586 122.420545 
L 383.944721 112.953728 
L 384.614992 106.226693 
L 384.950127 119.679134 
L 385.285262 83.50526 
L 385.620397 100.47902 
L 385.955532 130.406921 
L 386.290667 118.38701 
L 386.625802 128.737491 
L 386.960938 105.532415 
L 386.960938 105.532415 
" clip-path="url(#p5531fe48a8)" style="fill: none; stroke: #1f77b4; stroke-width: 1.5; stroke-linecap: square"/>
   </g>
   <g id="line2d_26">
    <path d="M 53.501478 93.04713 
L 53.836613 91.818305 
L 54.171748 84.609419 
L 54.506883 89.562506 
L 54.842019 99.06433 
L 55.177154 91.098448 
L 55.512289 94.146105 
L 55.847424 89.580591 
L 56.182559 77.657238 
L 56.852829 82.795856 
L 57.187965 88.942628 
L 57.5231 92.693256 
L 57.858235 86.228687 
L 58.19337 77.036875 
L 58.528505 71.245512 
L 58.86364 77.154012 
L 59.198775 79.660657 
L 59.53391 74.982532 
L 59.869046 87.507134 
L 60.204181 77.554547 
L 60.539316 74.382523 
L 60.874451 80.394067 
L 61.209586 74.594875 
L 61.879856 89.589926 
L 62.214992 90.772487 
L 62.550127 88.03882 
L 63.555532 66.390742 
L 63.890667 71.292787 
L 64.225802 67.522956 
L 64.560938 68.190285 
L 64.896073 70.051012 
L 65.566343 61.227896 
L 66.236613 69.516782 
L 66.571748 75.534468 
L 66.906883 79.037814 
L 67.242019 71.511975 
L 67.577154 58.263631 
L 67.912289 64.809979 
L 68.247424 64.231048 
L 68.917694 69.793793 
L 69.252829 65.643439 
L 69.587965 64.271278 
L 69.9231 61.510681 
L 70.258235 66.579427 
L 70.59337 57.45062 
L 70.928505 62.889228 
L 71.26364 63.016859 
L 72.269046 64.542955 
L 72.604181 50.880475 
L 72.939316 57.867924 
L 73.274451 47.012646 
L 73.609586 61.847957 
L 73.944721 52.146438 
L 74.279856 61.796511 
L 74.614992 56.130475 
L 74.950127 59.586607 
L 75.620397 62.821556 
L 75.955532 65.078954 
L 76.290667 63.142362 
L 76.625802 64.934983 
L 77.296073 58.585663 
L 77.631208 55.796791 
L 77.966343 54.511768 
L 78.301478 54.361054 
L 78.636613 55.186389 
L 78.971748 54.940004 
L 79.306883 55.639549 
L 79.642019 54.22673 
L 79.977154 53.531858 
L 80.312289 52.245857 
L 80.647424 56.348224 
L 80.982559 48.88634 
L 81.317694 53.434175 
L 81.652829 51.267531 
L 81.987965 59.728205 
L 82.3231 46.890083 
L 82.658235 47.656561 
L 82.99337 44.849016 
L 83.328505 46.605547 
L 83.66364 44.658916 
L 83.998775 46.248115 
L 84.33391 40.573347 
L 84.669046 42.136276 
L 85.674451 49.957018 
L 86.679856 45.283143 
L 87.014992 48.309108 
L 87.350127 42.506772 
L 87.685262 46.685515 
L 88.020397 46.463345 
L 88.355532 47.627296 
L 88.690667 43.921982 
L 89.025802 47.419139 
L 89.360938 46.627973 
L 89.696073 55.594074 
L 90.031208 56.460629 
L 90.366343 56.855052 
L 91.036613 46.523755 
L 91.371748 45.625751 
L 91.706883 46.246586 
L 92.042019 44.996536 
L 92.377154 47.395877 
L 92.712289 45.382029 
L 93.047424 45.378505 
L 93.382559 40.471398 
L 93.717694 43.451718 
L 94.052829 40.169655 
L 94.387965 49.510678 
L 94.7231 44.936868 
L 95.058235 48.924 
L 95.728505 43.570546 
L 96.06364 45.363653 
L 96.398775 55.703718 
L 96.73391 42.604683 
L 97.069046 50.405301 
L 97.404181 41.408299 
L 97.739316 41.563636 
L 98.074451 42.326617 
L 98.409586 34.043609 
L 98.744721 40.718049 
L 99.079856 39.306413 
L 99.750127 43.874932 
L 100.085262 43.41538 
L 100.420397 45.52908 
L 100.755532 43.108315 
L 101.090667 43.946209 
L 101.425802 42.262332 
L 101.760938 41.690447 
L 102.096073 42.573203 
L 102.431208 37.832132 
L 102.766343 40.33082 
L 103.101478 35.236114 
L 103.436613 35.857385 
L 103.771748 37.961326 
L 104.106883 37.436976 
L 104.442019 45.025393 
L 104.777154 42.744707 
L 105.112289 47.13119 
L 105.447424 38.710111 
L 105.782559 38.694659 
L 106.117694 44.495841 
L 106.452829 39.781915 
L 106.787965 49.412773 
L 107.1231 48.482004 
L 107.458235 48.222178 
L 107.79337 49.564764 
L 108.128505 44.91706 
L 108.46364 44.528086 
L 108.798775 41.68058 
L 109.469046 52.271829 
L 109.804181 49.01123 
L 110.139316 51.010842 
L 110.474451 42.95844 
L 110.809586 41.904702 
L 111.144721 44.763935 
L 111.479856 44.747165 
L 111.814992 50.064884 
L 112.150127 48.068824 
L 112.485262 51.392402 
L 112.820397 45.090002 
L 113.155532 44.687197 
L 113.490667 45.242931 
L 113.825802 44.029219 
L 114.160938 43.967361 
L 114.496073 46.234172 
L 114.831208 41.303308 
L 115.166343 48.627433 
L 115.501478 43.379407 
L 116.171748 49.718551 
L 116.506883 41.07127 
L 116.842019 39.482131 
L 117.177154 33.861685 
L 117.512289 35.573966 
L 117.847424 39.983076 
L 118.182559 42.758853 
L 118.517694 47.323786 
L 118.852829 42.558478 
L 119.187965 40.603995 
L 119.5231 43.182977 
L 119.858235 41.320465 
L 120.19337 40.225217 
L 120.528505 52.629221 
L 120.86364 45.639937 
L 121.198775 55.821974 
L 121.53391 51.254805 
L 121.869046 51.798409 
L 122.539316 44.554915 
L 122.874451 41.947965 
L 123.209586 47.293036 
L 123.544721 46.785986 
L 123.879856 50.914774 
L 124.214992 49.17722 
L 124.550127 50.422941 
L 124.885262 42.649713 
L 125.220397 50.223831 
L 125.555532 44.587488 
L 125.890667 42.825808 
L 126.225802 37.696812 
L 126.896073 48.924368 
L 127.231208 59.305128 
L 127.566343 54.48181 
L 127.901478 57.06095 
L 128.236613 52.261563 
L 128.571748 49.256406 
L 128.906883 53.635048 
L 129.242019 54.172109 
L 129.577154 54.492634 
L 129.912289 54.269365 
L 130.247424 56.964449 
L 130.582559 61.907294 
L 130.917694 61.158212 
L 131.252829 65.517268 
L 131.587965 58.398407 
L 131.9231 59.871586 
L 132.258235 57.527724 
L 132.928505 62.051294 
L 133.93391 53.91913 
L 134.269046 54.279517 
L 134.939316 59.328838 
L 135.274451 62.244023 
L 135.609586 51.890452 
L 135.944721 58.143537 
L 136.279856 46.434321 
L 136.614992 63.460318 
L 136.950127 59.7429 
L 137.285262 64.845537 
L 137.955532 59.921266 
L 138.290667 58.949162 
L 138.625802 63.442174 
L 138.960938 63.076289 
L 139.296073 66.298053 
L 139.631208 62.893523 
L 139.966343 57.683648 
L 140.301478 56.004784 
L 140.636613 53.217082 
L 140.971748 55.148343 
L 141.306883 60.040153 
L 141.642019 60.529143 
L 141.977154 62.840916 
L 142.312289 66.646156 
L 142.647424 62.39064 
L 142.982559 69.71484 
L 143.317694 63.127955 
L 143.652829 66.748075 
L 143.987965 64.98388 
L 144.3231 66.708018 
L 144.658235 65.446452 
L 144.99337 62.283898 
L 145.328505 62.826918 
L 145.66364 57.082492 
L 146.33391 70.065251 
L 146.669046 69.910354 
L 147.004181 74.139877 
L 147.339316 65.207003 
L 148.009586 75.638495 
L 149.014992 72.764673 
L 149.350127 69.960383 
L 149.685262 73.638978 
L 150.020397 69.811551 
L 150.355532 67.592334 
L 151.360938 74.347089 
L 151.696073 77.995018 
L 152.031208 85.631016 
L 152.366343 88.888009 
L 152.701478 93.385383 
L 153.371748 80.910637 
L 153.706883 85.49266 
L 154.042019 85.087782 
L 154.377154 82.564135 
L 154.712289 92.170024 
L 155.382559 80.50697 
L 155.717694 80.389921 
L 156.052829 85.704986 
L 156.387965 87.790431 
L 156.7231 87.183861 
L 157.058235 86.837998 
L 157.39337 103.628753 
L 157.728505 100.571081 
L 158.06364 106.573917 
L 158.398775 105.050353 
L 158.73391 97.173166 
L 159.069046 109.6515 
L 159.404181 105.657688 
L 159.739316 109.182628 
L 160.074451 108.473569 
L 160.409586 92.201465 
L 161.079856 103.30985 
L 161.414992 110.749285 
L 161.750127 107.560375 
L 162.085262 105.86863 
L 162.420397 103.447206 
L 162.755532 106.258192 
L 163.090667 102.708083 
L 163.425802 106.754561 
L 163.760938 106.78123 
L 164.096073 107.470607 
L 164.431208 110.186404 
L 164.766343 109.375738 
L 165.101478 110.903208 
L 165.436613 109.971523 
L 165.771748 108.425458 
L 166.106883 104.681389 
L 166.442019 103.093288 
L 166.777154 100.202996 
L 167.112289 100.791544 
L 167.782559 115.035662 
L 168.117694 116.988877 
L 168.452829 115.773705 
L 168.787965 117.515554 
L 169.458235 117.775371 
L 169.79337 123.598383 
L 170.128505 120.927529 
L 170.46364 121.40805 
L 170.798775 128.846922 
L 171.13391 120.662495 
L 171.469046 118.010818 
L 171.804181 122.304445 
L 172.139316 119.894145 
L 172.474451 124.783811 
L 172.809586 121.588616 
L 173.144721 122.644649 
L 173.479856 115.333504 
L 173.814992 113.467901 
L 174.150127 115.942424 
L 174.485262 113.772441 
L 174.820397 114.569678 
L 175.155532 111.853488 
L 175.490667 111.473623 
L 175.825802 106.903038 
L 176.160938 109.769836 
L 176.496073 119.068092 
L 176.831208 114.789011 
L 177.166343 115.961159 
L 177.501478 119.208116 
L 177.836613 116.201535 
L 178.506883 123.836092 
L 178.842019 132.897326 
L 179.512289 132.025532 
L 179.847424 135.724082 
L 180.182559 132.029765 
L 180.517694 124.705024 
L 180.852829 126.769359 
L 181.187965 124.926609 
L 181.858235 116.519359 
L 182.19337 121.552612 
L 182.528505 129.309382 
L 183.198775 133.068854 
L 183.53391 128.122024 
L 183.869046 120.699257 
L 184.204181 129.211028 
L 184.539316 131.228307 
L 184.874451 135.25247 
L 185.209586 134.416884 
L 185.544721 129.079913 
L 185.879856 130.192473 
L 186.214992 129.151277 
L 186.550127 130.607602 
L 186.885262 135.237778 
L 187.220397 131.663112 
L 187.555532 137.160686 
L 187.890667 130.101994 
L 188.225802 133.219385 
L 188.560938 127.947602 
L 188.896073 128.521134 
L 189.231208 135.953354 
L 189.566343 130.090848 
L 189.901478 139.314504 
L 190.236613 140.076969 
L 190.571748 141.768785 
L 190.906883 146.440986 
L 191.242019 138.997692 
L 191.577154 139.30912 
L 191.912289 133.734193 
L 192.247424 141.03902 
L 192.582559 137.491334 
L 192.917694 139.389723 
L 193.252829 139.203356 
L 193.587965 139.795338 
L 193.9231 142.217139 
L 194.258235 141.905176 
L 194.59337 149.769147 
L 194.928505 143.378269 
L 195.26364 143.026907 
L 195.598775 140.259432 
L 195.93391 131.552449 
L 196.269046 136.854474 
L 196.604181 138.040735 
L 196.939316 140.631691 
L 197.274451 148.913535 
L 197.609586 140.289272 
L 197.944721 140.334639 
L 198.614992 134.559023 
L 198.950127 137.574555 
L 199.285262 134.531925 
L 199.955532 139.579625 
L 200.290667 136.164209 
L 200.625802 138.429238 
L 200.960938 138.411206 
L 201.296073 135.794766 
L 201.631208 139.341925 
L 201.966343 141.083712 
L 202.301478 141.29094 
L 202.636613 145.903431 
L 203.306883 140.687634 
L 203.642019 141.255141 
L 203.977154 144.559721 
L 204.312289 156.693372 
L 204.647424 149.551806 
L 204.982559 149.310158 
L 205.317694 146.70305 
L 205.652829 139.195787 
L 205.987965 148.973154 
L 206.658235 139.304343 
L 206.99337 143.899419 
L 207.328505 144.169014 
L 207.66364 151.378175 
L 207.998775 152.048031 
L 208.33391 149.547604 
L 208.669046 150.597276 
L 209.004181 147.613502 
L 209.339316 152.963552 
L 209.674451 153.807876 
L 210.009586 153.314536 
L 210.344721 150.437648 
L 210.679856 152.82783 
L 211.014992 157.148636 
L 211.350127 157.197028 
L 212.020397 150.011667 
L 212.355532 147.416831 
L 212.690667 142.409559 
L 213.025802 149.633418 
L 213.360938 146.181491 
L 213.696073 147.343994 
L 214.031208 145.523838 
L 214.366343 144.678902 
L 214.701478 149.525413 
L 215.036613 141.388995 
L 215.371748 145.046495 
L 215.706883 143.440022 
L 216.042019 140.033186 
L 216.377154 140.74422 
L 216.712289 142.162128 
L 217.382559 141.034824 
L 217.717694 143.346665 
L 218.387965 137.725848 
L 218.7231 137.071512 
L 219.728505 153.74616 
L 220.06364 149.436982 
L 220.398775 138.078558 
L 220.73391 135.276412 
L 221.404181 144.187554 
L 221.739316 147.132279 
L 222.074451 146.485505 
L 222.744721 140.779481 
L 223.414992 137.268913 
L 223.750127 136.830012 
L 224.085262 133.372472 
L 224.420397 135.119142 
L 224.755532 137.493067 
L 225.090667 141.989529 
L 225.425802 139.708559 
L 225.760938 134.153712 
L 226.096073 136.794318 
L 226.431208 131.549371 
L 226.766343 132.590354 
L 227.101478 136.126565 
L 227.436613 127.472976 
L 228.106883 136.565065 
L 228.777154 132.430595 
L 229.112289 134.163286 
L 229.782559 130.037329 
L 230.117694 135.407883 
L 230.452829 136.242461 
L 230.787965 139.51518 
L 231.1231 133.866679 
L 231.458235 130.200187 
L 231.79337 129.843352 
L 232.128505 131.077405 
L 232.798775 136.91775 
L 233.13391 134.567136 
L 233.804181 125.39196 
L 234.139316 123.433126 
L 234.474451 126.288315 
L 234.809586 134.276532 
L 235.144721 132.79312 
L 235.479856 134.865204 
L 235.814992 136.075289 
L 236.150127 134.867462 
L 236.485262 140.030179 
L 236.820397 137.432038 
L 237.490667 122.676581 
L 237.825802 119.999245 
L 238.160938 124.195585 
L 238.496073 125.216084 
L 238.831208 128.257524 
L 239.166343 129.193871 
L 239.501478 126.447922 
L 239.836613 128.040096 
L 240.171748 128.589979 
L 240.506883 125.707317 
L 240.842019 120.054203 
L 241.177154 122.735788 
L 241.512289 120.810247 
L 241.847424 128.078557 
L 242.182559 127.816178 
L 242.517694 132.056634 
L 242.852829 131.859654 
L 243.187965 130.778682 
L 243.5231 131.86958 
L 243.858235 127.418033 
L 244.19337 127.290924 
L 244.528505 117.139065 
L 244.86364 118.299331 
L 245.198775 112.44638 
L 245.53391 115.238445 
L 245.869046 116.921833 
L 246.204181 111.302371 
L 246.874451 123.102081 
L 247.209586 122.444877 
L 247.544721 120.47846 
L 247.879856 124.331833 
L 248.214992 114.163705 
L 248.550127 117.893509 
L 248.885262 112.902677 
L 249.220397 111.886583 
L 249.555532 112.760599 
L 249.890667 107.425642 
L 250.225802 108.21265 
L 250.560938 105.170416 
L 250.896073 106.345104 
L 251.231208 104.044801 
L 251.566343 107.533056 
L 251.901478 114.985534 
L 252.236613 113.842666 
L 252.571748 114.892554 
L 253.242019 101.679893 
L 253.577154 99.254708 
L 253.912289 97.936472 
L 254.247424 100.17282 
L 254.582559 106.448703 
L 254.917694 108.955693 
L 255.252829 108.119305 
L 255.587965 108.117337 
L 255.9231 108.536124 
L 256.258235 103.930419 
L 256.59337 103.959504 
L 256.928505 101.828835 
L 257.26364 104.09453 
L 257.598775 96.995999 
L 257.93391 103.573643 
L 258.269046 101.43678 
L 258.604181 105.228156 
L 258.939316 99.279616 
L 259.274451 103.858405 
L 259.609586 102.519351 
L 259.944721 102.625422 
L 260.279856 94.375382 
L 260.614992 109.311441 
L 260.950127 103.520135 
L 261.285262 110.373118 
L 261.955532 102.260914 
L 262.290667 99.562729 
L 262.625802 103.420036 
L 262.960938 102.276007 
L 263.296073 96.370279 
L 263.631208 94.93436 
L 263.966343 96.038369 
L 265.306883 69.991501 
L 265.642019 73.001343 
L 265.977154 80.171192 
L 266.312289 79.003445 
L 266.647424 81.805489 
L 266.982559 97.19407 
L 267.317694 87.192744 
L 267.652829 89.967453 
L 267.987965 98.38193 
L 268.3231 79.278528 
L 268.658235 89.149541 
L 268.99337 91.079333 
L 269.328505 88.406666 
L 269.66364 95.425189 
L 269.998775 97.891754 
L 270.33391 81.8914 
L 271.004181 79.248031 
L 271.339316 69.166154 
L 271.674451 73.27397 
L 272.009586 79.56269 
L 272.344721 78.293003 
L 273.014992 88.762056 
L 273.685262 72.970473 
L 274.020397 78.326374 
L 274.355532 80.611645 
L 274.690667 80.606398 
L 275.025802 85.905455 
L 275.696073 66.294594 
L 276.031208 67.136526 
L 276.366343 73.254647 
L 276.701478 75.302142 
L 277.371748 66.739055 
L 277.706883 65.948808 
L 278.377154 70.650308 
L 278.712289 69.574767 
L 279.047424 72.195593 
L 279.382559 65.052577 
L 279.717694 64.483727 
L 280.052829 56.803528 
L 280.387965 58.645943 
L 280.7231 57.972148 
L 281.058235 62.343154 
L 281.39337 61.720403 
L 281.728505 61.576686 
L 282.06364 59.988694 
L 282.398775 55.781113 
L 282.73391 61.487252 
L 283.069046 58.501473 
L 283.404181 61.645747 
L 284.074451 56.302331 
L 284.409586 58.137757 
L 284.744721 55.500636 
L 285.079856 54.264303 
L 285.414992 49.318518 
L 285.750127 55.540922 
L 286.085262 48.104955 
L 286.755532 55.60912 
L 287.090667 56.758919 
L 287.425802 55.970863 
L 287.760938 53.971437 
L 288.096073 55.605339 
L 288.431208 52.089595 
L 288.766343 56.525792 
L 289.101478 57.564229 
L 289.436613 66.185484 
L 289.771748 59.413733 
L 290.106883 59.545724 
L 290.442019 54.793445 
L 290.777154 51.910941 
L 291.112289 53.543052 
L 291.447424 53.991165 
L 291.782559 56.074991 
L 292.117694 53.695963 
L 292.452829 49.396463 
L 292.787965 53.457477 
L 293.1231 50.022157 
L 293.458235 56.390172 
L 293.79337 55.145156 
L 294.128505 58.553675 
L 294.798775 61.20128 
L 295.13391 60.473606 
L 295.469046 58.761424 
L 295.804181 54.151799 
L 296.139316 51.853523 
L 296.474451 50.331793 
L 296.809586 47.384268 
L 297.144721 50.054552 
L 297.479856 51.735561 
L 297.814992 44.459603 
L 298.150127 53.871362 
L 298.485262 44.78747 
L 298.820397 49.400879 
L 299.155532 42.589244 
L 299.490667 43.766586 
L 299.825802 47.057979 
L 300.160938 53.727047 
L 300.831208 53.020847 
L 301.501478 42.650672 
L 301.836613 48.397583 
L 302.171748 44.598466 
L 302.506883 47.282785 
L 302.842019 45.157303 
L 303.177154 44.719924 
L 303.512289 42.184137 
L 303.847424 44.730859 
L 304.182559 42.564942 
L 304.517694 50.791512 
L 304.852829 48.901561 
L 305.187965 49.233862 
L 305.5231 42.942981 
L 305.858235 39.388993 
L 306.19337 49.32367 
L 306.528505 36.398697 
L 306.86364 42.101392 
L 307.198775 39.305027 
L 307.53391 43.973252 
L 307.869046 44.412212 
L 308.204181 47.747594 
L 308.539316 49.932989 
L 309.209586 46.438121 
L 309.544721 40.261208 
L 309.879856 43.057119 
L 310.214992 37.363292 
L 310.550127 41.649867 
L 310.885262 36.363022 
L 311.220397 38.92075 
L 311.555532 37.671025 
L 311.890667 35.267154 
L 312.225802 36.727688 
L 312.560938 40.012527 
L 312.896073 39.482403 
L 313.231208 43.881727 
L 313.566343 37.640504 
L 313.901478 38.321159 
L 314.571748 40.272034 
L 314.906883 44.750395 
L 315.242019 39.21964 
L 315.577154 40.452396 
L 315.912289 34.203578 
L 316.247424 39.641672 
L 316.582559 41.318497 
L 316.917694 46.789328 
L 317.252829 43.442107 
L 317.587965 46.287033 
L 317.9231 41.252322 
L 318.258235 39.292217 
L 318.59337 38.537389 
L 318.928505 37.383212 
L 319.26364 33.750548 
L 319.93391 43.517036 
L 320.269046 42.425383 
L 320.604181 46.606394 
L 321.274451 42.252199 
L 321.609586 42.290496 
L 321.944721 39.941645 
L 322.279856 38.882732 
L 322.614992 39.567564 
L 323.620397 50.595336 
L 323.955532 41.97934 
L 324.290667 41.661984 
L 324.625802 41.724647 
L 324.960938 40.219205 
L 325.296073 42.98677 
L 325.631208 42.750617 
L 325.966343 37.991674 
L 326.301478 45.87769 
L 326.636613 35.816759 
L 326.971748 44.287131 
L 327.306883 42.125211 
L 327.642019 48.109961 
L 327.977154 47.579482 
L 328.312289 55.616983 
L 328.647424 51.12631 
L 328.982559 56.753944 
L 329.317694 45.930706 
L 329.652829 49.670084 
L 329.987965 44.436003 
L 330.3231 46.014681 
L 330.658235 50.854983 
L 330.99337 46.126316 
L 331.328505 44.978977 
L 331.66364 42.258486 
L 331.998775 41.267143 
L 332.33391 42.911037 
L 332.669046 42.035573 
L 333.004181 47.136704 
L 333.339316 48.589718 
L 333.674451 48.002123 
L 334.009586 51.29053 
L 334.344721 49.621654 
L 334.679856 52.299516 
L 335.350127 45.846752 
L 335.685262 47.776262 
L 336.020397 49.026404 
L 336.355532 50.756486 
L 336.690667 50.981351 
L 337.025802 54.530732 
L 337.360937 53.033295 
L 337.696073 46.955676 
L 338.031208 44.279825 
L 338.366343 43.535322 
L 338.701478 52.130265 
L 339.036613 56.137354 
L 339.371748 56.543305 
L 339.706883 51.967416 
L 340.042019 60.091269 
L 340.377154 50.458877 
L 340.712289 50.434009 
L 341.047424 51.732655 
L 341.382559 51.199221 
L 341.717694 46.044964 
L 342.052829 50.388701 
L 342.387965 52.611263 
L 342.7231 48.428172 
L 343.058235 55.142297 
L 343.39337 49.554155 
L 344.06364 57.599097 
L 344.398775 56.226537 
L 344.73391 59.819969 
L 345.069046 65.906446 
L 345.404181 54.684825 
L 345.739316 61.611681 
L 346.074451 63.678188 
L 346.409586 64.44491 
L 346.744721 71.806038 
L 347.414992 57.54382 
L 347.750127 58.629625 
L 348.085262 54.729486 
L 348.420397 49.400096 
L 348.755532 63.430373 
L 349.090667 51.56445 
L 349.425802 61.030692 
L 349.760938 58.602151 
L 350.096073 64.068257 
L 350.431208 62.55007 
L 350.766343 61.890375 
L 351.101478 61.898067 
L 351.436613 63.951944 
L 351.771748 75.092379 
L 352.106883 75.857089 
L 352.777154 58.064187 
L 353.112289 55.705788 
L 353.447424 54.199635 
L 353.782559 57.602333 
L 354.117694 58.813121 
L 354.452829 62.382605 
L 354.787965 62.688757 
L 355.458235 66.565408 
L 355.79337 61.916895 
L 356.128505 71.315601 
L 356.46364 76.869565 
L 356.798775 71.94511 
L 357.13391 72.191938 
L 357.469046 57.244889 
L 357.804181 65.79967 
L 358.139316 66.537653 
L 358.474451 75.188774 
L 358.809586 75.40567 
L 359.144721 74.970086 
L 359.479856 81.711217 
L 359.814992 77.009301 
L 360.485262 83.646324 
L 361.155532 77.050419 
L 361.490667 74.886591 
L 361.825802 75.604854 
L 362.160938 80.710609 
L 362.496073 91.370269 
L 362.831208 88.682175 
L 363.166343 83.173156 
L 363.501478 82.998091 
L 363.836613 78.573028 
L 364.171748 82.109891 
L 364.506883 81.376278 
L 364.842019 80.20432 
L 365.177154 82.224618 
L 365.512289 82.660405 
L 365.847424 78.096232 
L 366.182559 77.147975 
L 366.517694 91.563113 
L 367.187965 99.899511 
L 367.5231 101.970823 
L 367.858235 102.995517 
L 368.19337 98.263727 
L 368.528505 100.015202 
L 368.86364 98.977461 
L 369.198775 104.454141 
L 369.53391 100.894821 
L 369.869046 105.198557 
L 370.539316 102.899699 
L 370.874451 99.302258 
L 371.209586 102.996331 
L 371.544721 98.142886 
L 371.879856 98.3749 
L 372.214992 94.089451 
L 372.550127 94.695554 
L 372.885262 89.095157 
L 373.220397 87.413739 
L 373.555532 95.852461 
L 373.890667 95.364203 
L 374.560938 107.213197 
L 374.896073 98.163312 
L 375.231208 106.644712 
L 375.566343 108.787976 
L 375.901478 100.864405 
L 376.236613 108.344567 
L 376.571748 107.068829 
L 376.906883 108.689047 
L 377.242019 108.998185 
L 377.577154 111.339281 
L 377.912289 118.741701 
L 378.917694 104.439032 
L 379.252829 101.842349 
L 379.587965 103.620451 
L 379.9231 104.489191 
L 380.258235 111.459619 
L 380.59337 114.954023 
L 380.928505 111.679042 
L 381.26364 106.685332 
L 381.598775 107.03682 
L 381.93391 101.403971 
L 382.269046 112.449876 
L 382.604181 107.447487 
L 383.274451 112.2641 
L 383.609586 108.606429 
L 384.279856 118.434441 
L 384.950127 113.175774 
L 385.285262 114.458993 
L 385.620397 106.700608 
L 385.955532 106.519578 
L 386.290667 113.7116 
L 386.625802 108.904184 
L 386.960938 121.128996 
L 386.960938 121.128996 
" clip-path="url(#p5531fe48a8)" style="fill: none; stroke-dasharray: 5.55,2.4; stroke-dashoffset: 0; stroke: #bf00bf; stroke-width: 1.5"/>
   </g>
   <g id="patch_3">
    <path d="M 52.160938 173.52 
L 52.160938 7.2 
" style="fill: none; stroke: #000000; stroke-width: 0.8; stroke-linejoin: miter; stroke-linecap: square"/>
   </g>
   <g id="patch_4">
    <path d="M 386.960938 173.52 
L 386.960938 7.2 
" style="fill: none; stroke: #000000; stroke-width: 0.8; stroke-linejoin: miter; stroke-linecap: square"/>
   </g>
   <g id="patch_5">
    <path d="M 52.160938 173.52 
L 386.960938 173.52 
" style="fill: none; stroke: #000000; stroke-width: 0.8; stroke-linejoin: miter; stroke-linecap: square"/>
   </g>
   <g id="patch_6">
    <path d="M 52.160938 7.2 
L 386.960938 7.2 
" style="fill: none; stroke: #000000; stroke-width: 0.8; stroke-linejoin: miter; stroke-linecap: square"/>
   </g>
   <g id="legend_1">
    <g id="patch_7">
     <path d="M 59.160938 168.52 
L 153.885938 168.52 
Q 155.885938 168.52 155.885938 166.52 
L 155.885938 138.16375 
Q 155.885938 136.16375 153.885938 136.16375 
L 59.160938 136.16375 
Q 57.160938 136.16375 57.160938 138.16375 
L 57.160938 166.52 
Q 57.160938 168.52 59.160938 168.52 
z
" style="fill: #ffffff; opacity: 0.8; stroke: #cccccc; stroke-linejoin: miter"/>
    </g>
    <g id="line2d_27">
     <path d="M 61.160938 144.262188 
L 71.160938 144.262188 
L 81.160938 144.262188 
" style="fill: none; stroke: #1f77b4; stroke-width: 1.5; stroke-linecap: square"/>
    </g>
    <g id="text_15">
     <!-- data -->
     <g transform="translate(89.160938 147.762188)scale(0.1 -0.1)">
      <defs>
       <path id="DejaVuSans-64" d="M 2906 2969 
L 2906 4863 
L 3481 4863 
L 3481 0 
L 2906 0 
L 2906 525 
Q 2725 213 2448 61 
Q 2172 -91 1784 -91 
Q 1150 -91 751 415 
Q 353 922 353 1747 
Q 353 2572 751 3078 
Q 1150 3584 1784 3584 
Q 2172 3584 2448 3432 
Q 2725 3281 2906 2969 
z
M 947 1747 
Q 947 1113 1208 752 
Q 1469 391 1925 391 
Q 2381 391 2643 752 
Q 2906 1113 2906 1747 
Q 2906 2381 2643 2742 
Q 2381 3103 1925 3103 
Q 1469 3103 1208 2742 
Q 947 2381 947 1747 
z
" transform="scale(0.015625)"/>
       <path id="DejaVuSans-61" d="M 2194 1759 
Q 1497 1759 1228 1600 
Q 959 1441 959 1056 
Q 959 750 1161 570 
Q 1363 391 1709 391 
Q 2188 391 2477 730 
Q 2766 1069 2766 1631 
L 2766 1759 
L 2194 1759 
z
M 3341 1997 
L 3341 0 
L 2766 0 
L 2766 531 
Q 2569 213 2275 61 
Q 1981 -91 1556 -91 
Q 1019 -91 701 211 
Q 384 513 384 1019 
Q 384 1609 779 1909 
Q 1175 2209 1959 2209 
L 2766 2209 
L 2766 2266 
Q 2766 2663 2505 2880 
Q 2244 3097 1772 3097 
Q 1472 3097 1187 3025 
Q 903 2953 641 2809 
L 641 3341 
Q 956 3463 1253 3523 
Q 1550 3584 1831 3584 
Q 2591 3584 2966 3190 
Q 3341 2797 3341 1997 
z
" transform="scale(0.015625)"/>
      </defs>
      <use xlink:href="#DejaVuSans-64"/>
      <use xlink:href="#DejaVuSans-61" x="63.476562"/>
      <use xlink:href="#DejaVuSans-74" x="124.755859"/>
      <use xlink:href="#DejaVuSans-61" x="163.964844"/>
     </g>
    </g>
    <g id="line2d_28">
     <path d="M 61.160938 158.940313 
L 71.160938 158.940313 
L 81.160938 158.940313 
" style="fill: none; stroke-dasharray: 5.55,2.4; stroke-dashoffset: 0; stroke: #bf00bf; stroke-width: 1.5"/>
    </g>
    <g id="text_16">
     <!-- 1-step preds -->
     <g transform="translate(89.160938 162.440313)scale(0.1 -0.1)">
      <defs>
       <path id="DejaVuSans-2d" d="M 313 2009 
L 1997 2009 
L 1997 1497 
L 313 1497 
L 313 2009 
z
" transform="scale(0.015625)"/>
       <path id="DejaVuSans-73" d="M 2834 3397 
L 2834 2853 
Q 2591 2978 2328 3040 
Q 2066 3103 1784 3103 
Q 1356 3103 1142 2972 
Q 928 2841 928 2578 
Q 928 2378 1081 2264 
Q 1234 2150 1697 2047 
L 1894 2003 
Q 2506 1872 2764 1633 
Q 3022 1394 3022 966 
Q 3022 478 2636 193 
Q 2250 -91 1575 -91 
Q 1294 -91 989 -36 
Q 684 19 347 128 
L 347 722 
Q 666 556 975 473 
Q 1284 391 1588 391 
Q 1994 391 2212 530 
Q 2431 669 2431 922 
Q 2431 1156 2273 1281 
Q 2116 1406 1581 1522 
L 1381 1569 
Q 847 1681 609 1914 
Q 372 2147 372 2553 
Q 372 3047 722 3315 
Q 1072 3584 1716 3584 
Q 2034 3584 2315 3537 
Q 2597 3491 2834 3397 
z
" transform="scale(0.015625)"/>
       <path id="DejaVuSans-70" d="M 1159 525 
L 1159 -1331 
L 581 -1331 
L 581 3500 
L 1159 3500 
L 1159 2969 
Q 1341 3281 1617 3432 
Q 1894 3584 2278 3584 
Q 2916 3584 3314 3078 
Q 3713 2572 3713 1747 
Q 3713 922 3314 415 
Q 2916 -91 2278 -91 
Q 1894 -91 1617 61 
Q 1341 213 1159 525 
z
M 3116 1747 
Q 3116 2381 2855 2742 
Q 2594 3103 2138 3103 
Q 1681 3103 1420 2742 
Q 1159 2381 1159 1747 
Q 1159 1113 1420 752 
Q 1681 391 2138 391 
Q 2594 391 2855 752 
Q 3116 1113 3116 1747 
z
" transform="scale(0.015625)"/>
       <path id="DejaVuSans-20" transform="scale(0.015625)"/>
       <path id="DejaVuSans-72" d="M 2631 2963 
Q 2534 3019 2420 3045 
Q 2306 3072 2169 3072 
Q 1681 3072 1420 2755 
Q 1159 2438 1159 1844 
L 1159 0 
L 581 0 
L 581 3500 
L 1159 3500 
L 1159 2956 
Q 1341 3275 1631 3429 
Q 1922 3584 2338 3584 
Q 2397 3584 2469 3576 
Q 2541 3569 2628 3553 
L 2631 2963 
z
" transform="scale(0.015625)"/>
      </defs>
      <use xlink:href="#DejaVuSans-31"/>
      <use xlink:href="#DejaVuSans-2d" x="63.623047"/>
      <use xlink:href="#DejaVuSans-73" x="99.707031"/>
      <use xlink:href="#DejaVuSans-74" x="151.806641"/>
      <use xlink:href="#DejaVuSans-65" x="191.015625"/>
      <use xlink:href="#DejaVuSans-70" x="252.539062"/>
      <use xlink:href="#DejaVuSans-20" x="316.015625"/>
      <use xlink:href="#DejaVuSans-70" x="347.802734"/>
      <use xlink:href="#DejaVuSans-72" x="411.279297"/>
      <use xlink:href="#DejaVuSans-65" x="450.142578"/>
      <use xlink:href="#DejaVuSans-64" x="511.666016"/>
      <use xlink:href="#DejaVuSans-73" x="575.142578"/>
     </g>
    </g>
   </g>
  </g>
 </g>
 <defs>
  <clipPath id="p5531fe48a8">
   <rect x="52.160938" y="7.2" width="334.8" height="166.32"/>
  </clipPath>
 </defs>
</svg>
