<?xml version="1.0" encoding="utf-8" standalone="no"?>
<!DOCTYPE svg PUBLIC "-//W3C//DTD SVG 1.1//EN"
  "http://www.w3.org/Graphics/SVG/1.1/DTD/svg11.dtd">
<svg xmlns:xlink="http://www.w3.org/1999/xlink" width="397.345312pt" height="211.07625pt" viewBox="0 0 397.345312 211.07625" xmlns="http://www.w3.org/2000/svg" version="1.1">
 <metadata>
  <rdf:RDF xmlns:dc="http://purl.org/dc/elements/1.1/" xmlns:cc="http://creativecommons.org/ns#" xmlns:rdf="http://www.w3.org/1999/02/22-rdf-syntax-ns#">
   <cc:Work>
    <dc:type rdf:resource="http://purl.org/dc/dcmitype/StillImage"/>
    <dc:date>2024-02-21T16:49:24.637444</dc:date>
    <dc:format>image/svg+xml</dc:format>
    <dc:creator>
     <cc:Agent>
      <dc:title>Matplotlib v3.5.1, https://matplotlib.org/</dc:title>
     </cc:Agent>
    </dc:creator>
   </cc:Work>
  </rdf:RDF>
 </metadata>
 <defs>
  <style type="text/css">*{stroke-linejoin: round; stroke-linecap: butt}</style>
 </defs>
 <g id="figure_1">
  <g id="patch_1">
   <path d="M 0 211.07625 
L 397.345312 211.07625 
L 397.345312 0 
L 0 0 
z
" style="fill: #ffffff"/>
  </g>
  <g id="axes_1">
   <g id="patch_2">
    <path d="M 42.620313 173.52 
L 377.420313 173.52 
L 377.420313 7.2 
L 42.620313 7.2 
z
" style="fill: #ffffff"/>
   </g>
   <g id="matplotlib.axis_1">
    <g id="xtick_1">
     <g id="line2d_1">
      <path d="M 109.312204 173.52 
L 109.312204 7.2 
" clip-path="url(#pd08a371a61)" style="fill: none; stroke: #b0b0b0; stroke-width: 0.8; stroke-linecap: square"/>
     </g>
     <g id="line2d_2">
      <defs>
       <path id="mcbbf61b64d" d="M 0 0 
L 0 3.5 
" style="stroke: #000000; stroke-width: 0.8"/>
      </defs>
      <g>
       <use xlink:href="#mcbbf61b64d" x="109.312204" y="173.52" style="stroke: #000000; stroke-width: 0.8"/>
      </g>
     </g>
     <g id="text_1">
      <!-- 200 -->
      <g transform="translate(99.768454 188.118438)scale(0.1 -0.1)">
       <defs>
        <path id="DejaVuSans-32" d="M 1228 531 
L 3431 531 
L 3431 0 
L 469 0 
L 469 531 
Q 828 903 1448 1529 
Q 2069 2156 2228 2338 
Q 2531 2678 2651 2914 
Q 2772 3150 2772 3378 
Q 2772 3750 2511 3984 
Q 2250 4219 1831 4219 
Q 1534 4219 1204 4116 
Q 875 4013 500 3803 
L 500 4441 
Q 881 4594 1212 4672 
Q 1544 4750 1819 4750 
Q 2544 4750 2975 4387 
Q 3406 4025 3406 3419 
Q 3406 3131 3298 2873 
Q 3191 2616 2906 2266 
Q 2828 2175 2409 1742 
Q 1991 1309 1228 531 
z
" transform="scale(0.015625)"/>
        <path id="DejaVuSans-30" d="M 2034 4250 
Q 1547 4250 1301 3770 
Q 1056 3291 1056 2328 
Q 1056 1369 1301 889 
Q 1547 409 2034 409 
Q 2525 409 2770 889 
Q 3016 1369 3016 2328 
Q 3016 3291 2770 3770 
Q 2525 4250 2034 4250 
z
M 2034 4750 
Q 2819 4750 3233 4129 
Q 3647 3509 3647 2328 
Q 3647 1150 3233 529 
Q 2819 -91 2034 -91 
Q 1250 -91 836 529 
Q 422 1150 422 2328 
Q 422 3509 836 4129 
Q 1250 4750 2034 4750 
z
" transform="scale(0.015625)"/>
       </defs>
       <use xlink:href="#DejaVuSans-32"/>
       <use xlink:href="#DejaVuSans-30" x="63.623047"/>
       <use xlink:href="#DejaVuSans-30" x="127.246094"/>
      </g>
     </g>
    </g>
    <g id="xtick_2">
     <g id="line2d_3">
      <path d="M 176.339231 173.52 
L 176.339231 7.2 
" clip-path="url(#pd08a371a61)" style="fill: none; stroke: #b0b0b0; stroke-width: 0.8; stroke-linecap: square"/>
     </g>
     <g id="line2d_4">
      <g>
       <use xlink:href="#mcbbf61b64d" x="176.339231" y="173.52" style="stroke: #000000; stroke-width: 0.8"/>
      </g>
     </g>
     <g id="text_2">
      <!-- 400 -->
      <g transform="translate(166.795481 188.118438)scale(0.1 -0.1)">
       <defs>
        <path id="DejaVuSans-34" d="M 2419 4116 
L 825 1625 
L 2419 1625 
L 2419 4116 
z
M 2253 4666 
L 3047 4666 
L 3047 1625 
L 3713 1625 
L 3713 1100 
L 3047 1100 
L 3047 0 
L 2419 0 
L 2419 1100 
L 313 1100 
L 313 1709 
L 2253 4666 
z
" transform="scale(0.015625)"/>
       </defs>
       <use xlink:href="#DejaVuSans-34"/>
       <use xlink:href="#DejaVuSans-30" x="63.623047"/>
       <use xlink:href="#DejaVuSans-30" x="127.246094"/>
      </g>
     </g>
    </g>
    <g id="xtick_3">
     <g id="line2d_5">
      <path d="M 243.366258 173.52 
L 243.366258 7.2 
" clip-path="url(#pd08a371a61)" style="fill: none; stroke: #b0b0b0; stroke-width: 0.8; stroke-linecap: square"/>
     </g>
     <g id="line2d_6">
      <g>
       <use xlink:href="#mcbbf61b64d" x="243.366258" y="173.52" style="stroke: #000000; stroke-width: 0.8"/>
      </g>
     </g>
     <g id="text_3">
      <!-- 600 -->
      <g transform="translate(233.822508 188.118438)scale(0.1 -0.1)">
       <defs>
        <path id="DejaVuSans-36" d="M 2113 2584 
Q 1688 2584 1439 2293 
Q 1191 2003 1191 1497 
Q 1191 994 1439 701 
Q 1688 409 2113 409 
Q 2538 409 2786 701 
Q 3034 994 3034 1497 
Q 3034 2003 2786 2293 
Q 2538 2584 2113 2584 
z
M 3366 4563 
L 3366 3988 
Q 3128 4100 2886 4159 
Q 2644 4219 2406 4219 
Q 1781 4219 1451 3797 
Q 1122 3375 1075 2522 
Q 1259 2794 1537 2939 
Q 1816 3084 2150 3084 
Q 2853 3084 3261 2657 
Q 3669 2231 3669 1497 
Q 3669 778 3244 343 
Q 2819 -91 2113 -91 
Q 1303 -91 875 529 
Q 447 1150 447 2328 
Q 447 3434 972 4092 
Q 1497 4750 2381 4750 
Q 2619 4750 2861 4703 
Q 3103 4656 3366 4563 
z
" transform="scale(0.015625)"/>
       </defs>
       <use xlink:href="#DejaVuSans-36"/>
       <use xlink:href="#DejaVuSans-30" x="63.623047"/>
       <use xlink:href="#DejaVuSans-30" x="127.246094"/>
      </g>
     </g>
    </g>
    <g id="xtick_4">
     <g id="line2d_7">
      <path d="M 310.393285 173.52 
L 310.393285 7.2 
" clip-path="url(#pd08a371a61)" style="fill: none; stroke: #b0b0b0; stroke-width: 0.8; stroke-linecap: square"/>
     </g>
     <g id="line2d_8">
      <g>
       <use xlink:href="#mcbbf61b64d" x="310.393285" y="173.52" style="stroke: #000000; stroke-width: 0.8"/>
      </g>
     </g>
     <g id="text_4">
      <!-- 800 -->
      <g transform="translate(300.849535 188.118438)scale(0.1 -0.1)">
       <defs>
        <path id="DejaVuSans-38" d="M 2034 2216 
Q 1584 2216 1326 1975 
Q 1069 1734 1069 1313 
Q 1069 891 1326 650 
Q 1584 409 2034 409 
Q 2484 409 2743 651 
Q 3003 894 3003 1313 
Q 3003 1734 2745 1975 
Q 2488 2216 2034 2216 
z
M 1403 2484 
Q 997 2584 770 2862 
Q 544 3141 544 3541 
Q 544 4100 942 4425 
Q 1341 4750 2034 4750 
Q 2731 4750 3128 4425 
Q 3525 4100 3525 3541 
Q 3525 3141 3298 2862 
Q 3072 2584 2669 2484 
Q 3125 2378 3379 2068 
Q 3634 1759 3634 1313 
Q 3634 634 3220 271 
Q 2806 -91 2034 -91 
Q 1263 -91 848 271 
Q 434 634 434 1313 
Q 434 1759 690 2068 
Q 947 2378 1403 2484 
z
M 1172 3481 
Q 1172 3119 1398 2916 
Q 1625 2713 2034 2713 
Q 2441 2713 2670 2916 
Q 2900 3119 2900 3481 
Q 2900 3844 2670 4047 
Q 2441 4250 2034 4250 
Q 1625 4250 1398 4047 
Q 1172 3844 1172 3481 
z
" transform="scale(0.015625)"/>
       </defs>
       <use xlink:href="#DejaVuSans-38"/>
       <use xlink:href="#DejaVuSans-30" x="63.623047"/>
       <use xlink:href="#DejaVuSans-30" x="127.246094"/>
      </g>
     </g>
    </g>
    <g id="xtick_5">
     <g id="line2d_9">
      <path d="M 377.420313 173.52 
L 377.420313 7.2 
" clip-path="url(#pd08a371a61)" style="fill: none; stroke: #b0b0b0; stroke-width: 0.8; stroke-linecap: square"/>
     </g>
     <g id="line2d_10">
      <g>
       <use xlink:href="#mcbbf61b64d" x="377.420313" y="173.52" style="stroke: #000000; stroke-width: 0.8"/>
      </g>
     </g>
     <g id="text_5">
      <!-- 1000 -->
      <g transform="translate(364.695312 188.118438)scale(0.1 -0.1)">
       <defs>
        <path id="DejaVuSans-31" d="M 794 531 
L 1825 531 
L 1825 4091 
L 703 3866 
L 703 4441 
L 1819 4666 
L 2450 4666 
L 2450 531 
L 3481 531 
L 3481 0 
L 794 0 
L 794 531 
z
" transform="scale(0.015625)"/>
       </defs>
       <use xlink:href="#DejaVuSans-31"/>
       <use xlink:href="#DejaVuSans-30" x="63.623047"/>
       <use xlink:href="#DejaVuSans-30" x="127.246094"/>
       <use xlink:href="#DejaVuSans-30" x="190.869141"/>
      </g>
     </g>
    </g>
    <g id="text_6">
     <!-- time -->
     <g transform="translate(198.724219 201.796563)scale(0.1 -0.1)">
      <defs>
       <path id="DejaVuSans-74" d="M 1172 4494 
L 1172 3500 
L 2356 3500 
L 2356 3053 
L 1172 3053 
L 1172 1153 
Q 1172 725 1289 603 
Q 1406 481 1766 481 
L 2356 481 
L 2356 0 
L 1766 0 
Q 1100 0 847 248 
Q 594 497 594 1153 
L 594 3053 
L 172 3053 
L 172 3500 
L 594 3500 
L 594 4494 
L 1172 4494 
z
" transform="scale(0.015625)"/>
       <path id="DejaVuSans-69" d="M 603 3500 
L 1178 3500 
L 1178 0 
L 603 0 
L 603 3500 
z
M 603 4863 
L 1178 4863 
L 1178 4134 
L 603 4134 
L 603 4863 
z
" transform="scale(0.015625)"/>
       <path id="DejaVuSans-6d" d="M 3328 2828 
Q 3544 3216 3844 3400 
Q 4144 3584 4550 3584 
Q 5097 3584 5394 3201 
Q 5691 2819 5691 2113 
L 5691 0 
L 5113 0 
L 5113 2094 
Q 5113 2597 4934 2840 
Q 4756 3084 4391 3084 
Q 3944 3084 3684 2787 
Q 3425 2491 3425 1978 
L 3425 0 
L 2847 0 
L 2847 2094 
Q 2847 2600 2669 2842 
Q 2491 3084 2119 3084 
Q 1678 3084 1418 2786 
Q 1159 2488 1159 1978 
L 1159 0 
L 581 0 
L 581 3500 
L 1159 3500 
L 1159 2956 
Q 1356 3278 1631 3431 
Q 1906 3584 2284 3584 
Q 2666 3584 2933 3390 
Q 3200 3197 3328 2828 
z
" transform="scale(0.015625)"/>
       <path id="DejaVuSans-65" d="M 3597 1894 
L 3597 1613 
L 953 1613 
Q 991 1019 1311 708 
Q 1631 397 2203 397 
Q 2534 397 2845 478 
Q 3156 559 3463 722 
L 3463 178 
Q 3153 47 2828 -22 
Q 2503 -91 2169 -91 
Q 1331 -91 842 396 
Q 353 884 353 1716 
Q 353 2575 817 3079 
Q 1281 3584 2069 3584 
Q 2775 3584 3186 3129 
Q 3597 2675 3597 1894 
z
M 3022 2063 
Q 3016 2534 2758 2815 
Q 2500 3097 2075 3097 
Q 1594 3097 1305 2825 
Q 1016 2553 972 2059 
L 3022 2063 
z
" transform="scale(0.015625)"/>
      </defs>
      <use xlink:href="#DejaVuSans-74"/>
      <use xlink:href="#DejaVuSans-69" x="39.208984"/>
      <use xlink:href="#DejaVuSans-6d" x="66.992188"/>
      <use xlink:href="#DejaVuSans-65" x="164.404297"/>
     </g>
    </g>
   </g>
   <g id="matplotlib.axis_2">
    <g id="ytick_1">
     <g id="line2d_11">
      <path d="M 42.620313 172.475627 
L 377.420313 172.475627 
" clip-path="url(#pd08a371a61)" style="fill: none; stroke: #b0b0b0; stroke-width: 0.8; stroke-linecap: square"/>
     </g>
     <g id="line2d_12">
      <defs>
       <path id="mdc691a8122" d="M 0 0 
L -3.5 0 
" style="stroke: #000000; stroke-width: 0.8"/>
      </defs>
      <g>
       <use xlink:href="#mdc691a8122" x="42.620313" y="172.475627" style="stroke: #000000; stroke-width: 0.8"/>
      </g>
     </g>
     <g id="text_7">
      <!-- −5 -->
      <g transform="translate(20.878125 176.274845)scale(0.1 -0.1)">
       <defs>
        <path id="DejaVuSans-2212" d="M 678 2272 
L 4684 2272 
L 4684 1741 
L 678 1741 
L 678 2272 
z
" transform="scale(0.015625)"/>
        <path id="DejaVuSans-35" d="M 691 4666 
L 3169 4666 
L 3169 4134 
L 1269 4134 
L 1269 2991 
Q 1406 3038 1543 3061 
Q 1681 3084 1819 3084 
Q 2600 3084 3056 2656 
Q 3513 2228 3513 1497 
Q 3513 744 3044 326 
Q 2575 -91 1722 -91 
Q 1428 -91 1123 -41 
Q 819 9 494 109 
L 494 744 
Q 775 591 1075 516 
Q 1375 441 1709 441 
Q 2250 441 2565 725 
Q 2881 1009 2881 1497 
Q 2881 1984 2565 2268 
Q 2250 2553 1709 2553 
Q 1456 2553 1204 2497 
Q 953 2441 691 2322 
L 691 4666 
z
" transform="scale(0.015625)"/>
       </defs>
       <use xlink:href="#DejaVuSans-2212"/>
       <use xlink:href="#DejaVuSans-35" x="83.789062"/>
      </g>
     </g>
    </g>
    <g id="ytick_2">
     <g id="line2d_13">
      <path d="M 42.620313 148.040911 
L 377.420313 148.040911 
" clip-path="url(#pd08a371a61)" style="fill: none; stroke: #b0b0b0; stroke-width: 0.8; stroke-linecap: square"/>
     </g>
     <g id="line2d_14">
      <g>
       <use xlink:href="#mdc691a8122" x="42.620313" y="148.040911" style="stroke: #000000; stroke-width: 0.8"/>
      </g>
     </g>
     <g id="text_8">
      <!-- −4 -->
      <g transform="translate(20.878125 151.84013)scale(0.1 -0.1)">
       <use xlink:href="#DejaVuSans-2212"/>
       <use xlink:href="#DejaVuSans-34" x="83.789062"/>
      </g>
     </g>
    </g>
    <g id="ytick_3">
     <g id="line2d_15">
      <path d="M 42.620313 123.606196 
L 377.420313 123.606196 
" clip-path="url(#pd08a371a61)" style="fill: none; stroke: #b0b0b0; stroke-width: 0.8; stroke-linecap: square"/>
     </g>
     <g id="line2d_16">
      <g>
       <use xlink:href="#mdc691a8122" x="42.620313" y="123.606196" style="stroke: #000000; stroke-width: 0.8"/>
      </g>
     </g>
     <g id="text_9">
      <!-- −3 -->
      <g transform="translate(20.878125 127.405415)scale(0.1 -0.1)">
       <defs>
        <path id="DejaVuSans-33" d="M 2597 2516 
Q 3050 2419 3304 2112 
Q 3559 1806 3559 1356 
Q 3559 666 3084 287 
Q 2609 -91 1734 -91 
Q 1441 -91 1130 -33 
Q 819 25 488 141 
L 488 750 
Q 750 597 1062 519 
Q 1375 441 1716 441 
Q 2309 441 2620 675 
Q 2931 909 2931 1356 
Q 2931 1769 2642 2001 
Q 2353 2234 1838 2234 
L 1294 2234 
L 1294 2753 
L 1863 2753 
Q 2328 2753 2575 2939 
Q 2822 3125 2822 3475 
Q 2822 3834 2567 4026 
Q 2313 4219 1838 4219 
Q 1578 4219 1281 4162 
Q 984 4106 628 3988 
L 628 4550 
Q 988 4650 1302 4700 
Q 1616 4750 1894 4750 
Q 2613 4750 3031 4423 
Q 3450 4097 3450 3541 
Q 3450 3153 3228 2886 
Q 3006 2619 2597 2516 
z
" transform="scale(0.015625)"/>
       </defs>
       <use xlink:href="#DejaVuSans-2212"/>
       <use xlink:href="#DejaVuSans-33" x="83.789062"/>
      </g>
     </g>
    </g>
    <g id="ytick_4">
     <g id="line2d_17">
      <path d="M 42.620313 99.171481 
L 377.420313 99.171481 
" clip-path="url(#pd08a371a61)" style="fill: none; stroke: #b0b0b0; stroke-width: 0.8; stroke-linecap: square"/>
     </g>
     <g id="line2d_18">
      <g>
       <use xlink:href="#mdc691a8122" x="42.620313" y="99.171481" style="stroke: #000000; stroke-width: 0.8"/>
      </g>
     </g>
     <g id="text_10">
      <!-- −2 -->
      <g transform="translate(20.878125 102.9707)scale(0.1 -0.1)">
       <use xlink:href="#DejaVuSans-2212"/>
       <use xlink:href="#DejaVuSans-32" x="83.789062"/>
      </g>
     </g>
    </g>
    <g id="ytick_5">
     <g id="line2d_19">
      <path d="M 42.620313 74.736766 
L 377.420313 74.736766 
" clip-path="url(#pd08a371a61)" style="fill: none; stroke: #b0b0b0; stroke-width: 0.8; stroke-linecap: square"/>
     </g>
     <g id="line2d_20">
      <g>
       <use xlink:href="#mdc691a8122" x="42.620313" y="74.736766" style="stroke: #000000; stroke-width: 0.8"/>
      </g>
     </g>
     <g id="text_11">
      <!-- −1 -->
      <g transform="translate(20.878125 78.535985)scale(0.1 -0.1)">
       <use xlink:href="#DejaVuSans-2212"/>
       <use xlink:href="#DejaVuSans-31" x="83.789062"/>
      </g>
     </g>
    </g>
    <g id="ytick_6">
     <g id="line2d_21">
      <path d="M 42.620313 50.302051 
L 377.420313 50.302051 
" clip-path="url(#pd08a371a61)" style="fill: none; stroke: #b0b0b0; stroke-width: 0.8; stroke-linecap: square"/>
     </g>
     <g id="line2d_22">
      <g>
       <use xlink:href="#mdc691a8122" x="42.620313" y="50.302051" style="stroke: #000000; stroke-width: 0.8"/>
      </g>
     </g>
     <g id="text_12">
      <!-- 0 -->
      <g transform="translate(29.257813 54.10127)scale(0.1 -0.1)">
       <use xlink:href="#DejaVuSans-30"/>
      </g>
     </g>
    </g>
    <g id="ytick_7">
     <g id="line2d_23">
      <path d="M 42.620313 25.867336 
L 377.420313 25.867336 
" clip-path="url(#pd08a371a61)" style="fill: none; stroke: #b0b0b0; stroke-width: 0.8; stroke-linecap: square"/>
     </g>
     <g id="line2d_24">
      <g>
       <use xlink:href="#mdc691a8122" x="42.620313" y="25.867336" style="stroke: #000000; stroke-width: 0.8"/>
      </g>
     </g>
     <g id="text_13">
      <!-- 1 -->
      <g transform="translate(29.257813 29.666555)scale(0.1 -0.1)">
       <use xlink:href="#DejaVuSans-31"/>
      </g>
     </g>
    </g>
    <g id="text_14">
     <!-- x -->
     <g transform="translate(14.798438 93.319375)rotate(-90)scale(0.1 -0.1)">
      <defs>
       <path id="DejaVuSans-78" d="M 3513 3500 
L 2247 1797 
L 3578 0 
L 2900 0 
L 1881 1375 
L 863 0 
L 184 0 
L 1544 1831 
L 300 3500 
L 978 3500 
L 1906 2253 
L 2834 3500 
L 3513 3500 
z
" transform="scale(0.015625)"/>
      </defs>
      <use xlink:href="#DejaVuSans-78"/>
     </g>
    </g>
   </g>
   <g id="line2d_25">
    <path d="M 42.620313 53.010875 
L 43.290583 47.708077 
L 43.625718 42.934855 
L 43.960853 53.480113 
L 44.295988 46.22541 
L 44.631123 49.152811 
L 44.966258 55.948122 
L 45.301394 44.80283 
L 45.636529 45.253948 
L 45.971664 44.427197 
L 46.306799 44.479104 
L 46.641934 49.987454 
L 46.977069 52.320574 
L 47.312204 48.152993 
L 47.64734 42.294203 
L 47.982475 41.777778 
L 48.31761 45.34759 
L 48.652745 35.73736 
L 48.98788 51.756871 
L 49.323015 45.075602 
L 49.65815 40.978868 
L 49.993285 49.868994 
L 50.328421 41.353869 
L 50.663556 37.356322 
L 50.998691 49.467215 
L 51.333826 44.8076 
L 51.668961 54.388322 
L 52.004096 47.163745 
L 52.339231 46.037523 
L 52.674367 36.990932 
L 53.009502 47.180551 
L 53.679772 36.237274 
L 54.014907 42.598571 
L 54.350042 45.221487 
L 54.685177 42.365277 
L 55.020313 35.990028 
L 55.355448 33.147655 
L 55.690583 43.207126 
L 56.025718 47.394547 
L 56.360853 46.590266 
L 56.695988 34.402045 
L 57.031123 44.32302 
L 57.366258 31.656642 
L 58.036529 43.910275 
L 58.371664 43.845808 
L 58.706799 39.237844 
L 59.041934 38.400932 
L 59.377069 40.863911 
L 59.712204 30.863943 
L 60.04734 43.101133 
L 60.382475 34.574548 
L 60.71761 36.399767 
L 61.052745 41.366419 
L 61.38788 41.296859 
L 61.723015 34.777904 
L 62.05815 40.496245 
L 62.393285 21.963142 
L 62.728421 36.329932 
L 63.063556 25.356962 
L 63.398691 41.684083 
L 63.733826 29.978492 
L 64.068961 38.399006 
L 64.404096 35.535328 
L 64.739231 34.981503 
L 65.074367 38.942112 
L 65.409502 39.699087 
L 65.744637 41.60687 
L 66.079772 34.240745 
L 66.414907 40.81848 
L 66.750042 40.08645 
L 67.085177 33.10767 
L 67.420313 30.88893 
L 67.755448 34.290212 
L 68.090583 34.345689 
L 68.425718 33.814048 
L 68.760853 32.634772 
L 69.095988 35.304612 
L 69.431123 33.086552 
L 69.766258 32.564239 
L 70.101394 28.875759 
L 70.436529 38.075667 
L 70.771664 26.380821 
L 71.106799 32.630799 
L 71.441934 30.631031 
L 71.777069 40.93255 
L 72.112204 24.447686 
L 72.44734 23.654404 
L 73.11761 33.316483 
L 73.452745 23.740659 
L 73.78788 28.183002 
L 74.123015 24.577016 
L 74.45815 23.21021 
L 74.793285 29.39374 
L 75.128421 30.288303 
L 75.463556 32.227618 
L 75.798691 28.523772 
L 76.133826 28.534103 
L 76.468961 24.749599 
L 76.804096 33.198565 
L 77.139231 23.538657 
L 78.144637 32.732533 
L 78.479772 21.078468 
L 78.814907 29.577721 
L 79.150042 29.41172 
L 79.485177 37.858689 
L 79.820312 36.781962 
L 80.155448 34.503537 
L 80.490583 28.739039 
L 80.825718 24.97374 
L 81.160853 27.009224 
L 81.495988 31.883336 
L 81.831123 25.559175 
L 82.166258 28.896984 
L 82.501394 27.861139 
L 82.836529 29.927296 
L 83.171664 19.066603 
L 83.506799 28.72007 
L 83.841934 22.604976 
L 84.177069 34.483841 
L 84.512204 27.535016 
L 84.84734 28.181528 
L 85.182475 29.383762 
L 85.852745 22.202628 
L 86.18788 41.519835 
L 86.523015 21.279276 
L 86.85815 28.868078 
L 87.193285 27.974755 
L 87.528421 20.936263 
L 87.863556 28.418606 
L 88.198691 15.968519 
L 88.533826 24.64855 
L 88.868961 28.497871 
L 89.204096 24.713955 
L 89.539231 26.718475 
L 89.874367 26.24817 
L 90.209502 30.102601 
L 90.544637 25.249921 
L 90.879772 25.28131 
L 91.214907 27.074156 
L 91.550042 23.771308 
L 91.885177 28.442854 
L 92.220313 19.756662 
L 92.555448 24.814719 
L 92.890583 22.38669 
L 93.225718 17.976078 
L 93.560853 26.263078 
L 93.895988 21.258849 
L 94.231123 31.54319 
L 94.566258 25.408088 
L 94.901394 30.519955 
L 95.571664 15.728218 
L 95.906799 33.797052 
L 96.241934 24.229551 
L 96.912204 34.173905 
L 97.24734 27.722813 
L 97.582475 30.427086 
L 97.91761 26.2335 
L 98.252745 27.055337 
L 98.58788 23.010744 
L 98.923015 28.829988 
L 99.25815 39.132236 
L 99.593285 27.290258 
L 99.928421 29.62216 
L 100.263556 26.131565 
L 100.598691 20.977316 
L 100.933826 30.349011 
L 101.268961 28.115633 
L 101.604096 33.079702 
L 101.939231 27.305476 
L 102.274367 33.450483 
L 102.944637 22.821497 
L 103.279772 28.930174 
L 103.614907 30.207162 
L 103.950042 22.786205 
L 104.285177 30.683436 
L 104.620313 21.771369 
L 104.955448 32.788131 
L 105.625718 23.615949 
L 105.960853 34.86173 
L 106.295988 24.255636 
L 106.631123 19.197207 
L 106.966258 18.209455 
L 107.301394 21.889142 
L 107.636529 28.724048 
L 107.971664 25.896661 
L 108.306799 31.162823 
L 108.641934 26.556111 
L 108.977069 18.979495 
L 109.312204 27.346779 
L 109.64734 31.227948 
L 109.982475 15.477387 
L 110.31761 36.968975 
L 110.652745 29.555846 
L 110.98788 35.309693 
L 111.323015 31.268955 
L 111.65815 30.763657 
L 112.328421 26.857628 
L 112.663556 20.498503 
L 112.998691 32.753008 
L 113.333826 31.124189 
L 113.668961 31.473573 
L 114.004096 27.72707 
L 114.339231 33.291875 
L 114.674367 19.428198 
L 115.009502 33.241343 
L 115.344637 31.148421 
L 116.014907 14.76 
L 116.350042 29.934597 
L 117.020313 41.318047 
L 117.355448 29.070665 
L 117.690583 33.116443 
L 118.025718 35.550213 
L 118.360853 25.422763 
L 119.031123 38.44123 
L 119.701394 29.289904 
L 120.036529 34.508071 
L 120.371664 44.175306 
L 120.706799 35.841532 
L 121.041934 39.851696 
L 121.377069 34.136554 
L 121.712204 36.24774 
L 122.04734 35.628289 
L 122.382475 35.470836 
L 122.71761 41.010235 
L 123.052745 37.241462 
L 123.38788 30.355428 
L 123.723015 30.787362 
L 124.05815 34.81783 
L 124.393285 36.867725 
L 124.728421 35.801476 
L 125.063556 40.479208 
L 125.398691 21.334012 
L 125.733826 36.666183 
L 126.068961 24.419399 
L 126.404096 42.612978 
L 126.739231 41.428226 
L 127.409502 36.18761 
L 127.744637 36.807092 
L 128.079772 33.853744 
L 128.414907 41.90256 
L 128.750042 39.829573 
L 129.085177 41.092292 
L 129.420313 38.971655 
L 129.755448 31.25612 
L 130.090583 32.959237 
L 130.425718 33.432761 
L 130.760853 32.420466 
L 131.095988 39.553948 
L 131.431123 40.343383 
L 131.766258 34.338321 
L 132.101394 43.004115 
L 132.436529 35.995667 
L 132.771664 44.285633 
L 133.106799 34.869516 
L 133.441934 40.889968 
L 133.777069 42.496885 
L 134.112204 40.923489 
L 134.44734 40.01327 
L 134.782475 35.43359 
L 135.11761 39.512993 
L 135.452745 32.801349 
L 135.78788 35.591284 
L 136.123015 49.772316 
L 136.45815 31.210735 
L 136.793285 42.954189 
L 137.128421 43.240058 
L 137.463556 43.979155 
L 137.798691 40.663538 
L 138.133826 47.761207 
L 138.468961 37.582712 
L 139.139231 46.475788 
L 139.474367 40.811242 
L 139.809502 40.987222 
L 140.144637 39.723428 
L 140.479772 45.04541 
L 140.814907 36.529246 
L 141.150042 47.479235 
L 141.485177 42.541717 
L 141.820312 53.991286 
L 142.155448 49.006104 
L 142.490583 46.510744 
L 142.825718 46.193686 
L 143.160853 48.875097 
L 143.495988 38.762453 
L 143.831123 49.987059 
L 144.166258 53.239205 
L 144.501394 46.010203 
L 144.836529 43.575839 
L 145.171664 44.090408 
L 145.506799 50.573181 
L 145.841934 48.702327 
L 146.177069 45.59938 
L 146.512204 43.776331 
L 146.84734 52.186672 
L 147.182475 54.522275 
L 147.51761 64.247826 
L 147.852745 47.83667 
L 148.18788 51.832621 
L 148.523015 52.195846 
L 148.85815 54.42024 
L 149.193285 67.572095 
L 149.528421 57.520791 
L 149.863556 40.044578 
L 150.198691 56.190485 
L 150.533826 47.267814 
L 150.868961 61.803815 
L 151.204096 59.720132 
L 151.539231 56.03165 
L 151.874367 55.436324 
L 152.209502 54.226044 
L 152.544637 51.13578 
L 152.879772 58.205692 
L 153.214907 57.15555 
L 153.550042 55.282361 
L 153.885177 57.680367 
L 154.220313 58.601264 
L 154.555448 62.565065 
L 154.890583 54.978072 
L 155.225718 61.677412 
L 155.560853 56.323276 
L 155.895988 58.352961 
L 156.231123 47.766243 
L 156.566258 48.272447 
L 156.901394 50.293817 
L 157.236529 63.577427 
L 157.571664 66.695207 
L 157.906799 58.690127 
L 158.241934 62.814725 
L 158.577069 58.248641 
L 158.912204 67.133492 
L 159.24734 61.602691 
L 159.91761 66.582819 
L 160.252745 62.832324 
L 160.58788 64.637022 
L 160.923015 73.19257 
L 161.25815 51.259165 
L 161.593285 62.038645 
L 161.928421 64.762294 
L 162.263556 73.98743 
L 162.598691 60.975364 
L 162.933826 59.751094 
L 163.268961 66.009189 
L 163.604096 58.695972 
L 163.939231 59.426563 
L 164.274367 62.153533 
L 164.609502 61.474353 
L 164.944637 61.337737 
L 165.279772 55.301633 
L 165.614907 61.623335 
L 165.950042 53.533208 
L 166.620313 71.975174 
L 166.955448 55.804431 
L 167.290583 57.466438 
L 167.960853 69.493347 
L 168.295988 63.248937 
L 168.631123 66.763131 
L 168.966258 74.960397 
L 169.301394 69.7151 
L 169.636529 67.471634 
L 169.971664 73.115436 
L 170.641934 60.061909 
L 170.977069 70.818177 
L 171.312204 65.584788 
L 171.64734 57.108475 
L 171.982475 59.036351 
L 172.652745 83.037757 
L 172.98788 60.866423 
L 173.323015 69.544866 
L 173.65815 57.006099 
L 173.993285 67.642776 
L 174.663556 76.301174 
L 174.998691 66.206929 
L 175.333826 70.935836 
L 175.668961 59.007948 
L 176.004096 75.188321 
L 176.339231 64.950388 
L 176.674367 76.216177 
L 177.009502 64.587929 
L 177.344637 72.496792 
L 177.679772 71.618589 
L 178.014907 65.130035 
L 178.350042 72.479763 
L 178.685177 59.503884 
L 179.020313 72.60457 
L 179.355448 73.684303 
L 179.690583 65.519974 
L 180.025718 79.549984 
L 180.360853 69.501579 
L 180.695988 83.217893 
L 181.031123 68.923016 
L 181.366258 73.050962 
L 181.701394 66.639868 
L 182.036529 73.431187 
L 182.371664 77.341572 
L 182.706799 68.52883 
L 183.041934 74.63384 
L 183.377069 69.305541 
L 183.712204 79.724405 
L 184.04734 69.899807 
L 184.382475 78.938129 
L 184.71761 79.157178 
L 185.052745 70.438874 
L 185.38788 73.15091 
L 185.723015 70.307009 
L 186.05815 64.245893 
L 186.393285 78.660363 
L 186.728421 71.76896 
L 187.063556 80.795577 
L 187.398691 75.24576 
L 187.733826 67.411363 
L 188.068961 73.144665 
L 188.404096 69.645994 
L 188.739231 72.342342 
L 189.074367 71.852992 
L 189.409502 68.45242 
L 189.744637 75.211881 
L 190.079772 73.479415 
L 190.414907 68.461739 
L 190.750042 74.032778 
L 191.085177 71.685643 
L 191.420312 70.658393 
L 191.755448 74.906693 
L 192.090583 75.170236 
L 192.425718 73.483611 
L 192.760853 79.755333 
L 193.095988 68.690321 
L 193.431123 75.139199 
L 193.766258 70.183117 
L 194.101394 84.772525 
L 194.436529 85.929749 
L 194.771664 67.971363 
L 195.106799 78.080782 
L 195.441934 71.474655 
L 195.777069 74.553827 
L 196.112204 83.264545 
L 196.44734 68.693766 
L 196.782475 69.95042 
L 197.11761 78.044392 
L 197.452745 79.178651 
L 197.78788 84.206731 
L 198.123015 72.525062 
L 198.45815 78.367738 
L 198.793285 76.243345 
L 199.463556 81.380016 
L 199.798691 80.121245 
L 200.468961 74.994702 
L 200.804096 84.285614 
L 201.139231 83.994187 
L 201.474367 80.658199 
L 201.809502 70.664884 
L 202.144637 79.758546 
L 202.479772 73.110432 
L 202.814907 74.919 
L 203.150042 81.77173 
L 203.485177 71.924489 
L 203.820312 80.098149 
L 204.155448 67.968334 
L 204.490583 81.638796 
L 205.160853 70.267856 
L 205.495988 76.271941 
L 206.166258 72.151494 
L 206.501394 72.340197 
L 206.836529 77.279957 
L 207.171664 71.999583 
L 207.506799 74.12981 
L 207.841934 74.795425 
L 208.177069 72.643832 
L 208.512204 67.962171 
L 209.51761 82.740452 
L 209.852745 80.512504 
L 210.18788 69.220428 
L 210.523015 62.663901 
L 210.85815 74.118046 
L 211.193285 80.188849 
L 211.528421 78.923859 
L 211.863556 73.003608 
L 212.198691 75.050241 
L 212.533826 72.216949 
L 212.868961 74.255361 
L 213.204096 69.219257 
L 213.539231 73.033891 
L 213.874367 69.200045 
L 214.209502 69.582813 
L 214.544637 71.38326 
L 214.879772 75.89951 
L 215.214907 76.678673 
L 215.550042 67.928121 
L 215.885177 65.143955 
L 216.220313 77.06101 
L 216.555448 62.878204 
L 216.890583 73.616786 
L 217.560853 63.333147 
L 217.895988 72.606164 
L 218.231123 74.879933 
L 218.901394 63.937842 
L 219.236529 74.865299 
L 219.571664 65.865178 
L 219.906799 70.93405 
L 220.241934 70.831458 
L 220.577069 76.22089 
L 220.912204 71.477141 
L 221.24734 64.601365 
L 221.582475 65.326276 
L 221.91761 71.177335 
L 222.252745 71.150888 
L 222.58788 72.462433 
L 222.923015 71.232695 
L 223.25815 68.02644 
L 223.593285 62.698796 
L 223.928421 65.420307 
L 224.263556 64.52565 
L 224.598691 71.732525 
L 224.933826 74.450598 
L 225.268961 66.751061 
L 225.604096 72.212547 
L 225.939231 70.222396 
L 226.609502 75.262669 
L 227.279772 59.723722 
L 227.614907 61.202741 
L 227.950042 64.480338 
L 228.285177 72.689498 
L 228.620313 64.674872 
L 228.955448 70.251081 
L 229.290583 63.666193 
L 229.625718 69.723731 
L 229.960853 64.82617 
L 230.295988 72.993405 
L 230.631123 56.794468 
L 230.966258 63.361544 
L 231.301394 64.042428 
L 231.636529 69.043925 
L 231.971664 69.967763 
L 232.306799 65.733129 
L 232.641934 73.438835 
L 232.977069 65.779092 
L 233.312204 71.739745 
L 233.64734 65.13181 
L 233.982475 67.882638 
L 234.31761 63.76045 
L 234.652745 50.844026 
L 234.98788 66.998415 
L 235.323015 60.638073 
L 235.65815 60.998254 
L 235.993285 60.929572 
L 236.328421 56.304905 
L 236.998691 73.858214 
L 237.333826 57.829977 
L 238.004096 66.643415 
L 238.339231 52.7352 
L 238.674367 67.005281 
L 239.009502 56.742837 
L 239.344637 55.872735 
L 239.679772 59.578101 
L 240.014907 57.192222 
L 240.350042 58.421961 
L 240.685177 48.229553 
L 241.020313 58.745618 
L 241.355448 57.819467 
L 241.690583 57.793127 
L 242.025718 66.245835 
L 242.360853 62.531388 
L 243.031123 46.963987 
L 243.366258 49.816953 
L 244.036529 58.272144 
L 244.371664 52.296929 
L 245.041934 63.302054 
L 245.377069 55.66134 
L 245.712204 54.82121 
L 246.04734 56.725419 
L 246.382475 54.4901 
L 246.71761 50.181582 
L 247.052745 50.243145 
L 247.38788 57.448176 
L 248.05815 51.209056 
L 248.393285 49.248437 
L 248.728421 58.583541 
L 249.063556 56.562097 
L 249.398691 46.094507 
L 250.068961 57.924342 
L 250.404096 46.485408 
L 250.739231 64.854111 
L 251.074367 59.214772 
L 251.409502 43.639074 
L 251.744637 54.198517 
L 252.079772 57.250296 
L 252.750042 48.737474 
L 253.085177 51.891961 
L 253.420313 50.297446 
L 254.090583 49.294485 
L 254.425718 37.923241 
L 255.095988 46.416873 
L 255.431123 39.961055 
L 255.766258 41.525822 
L 256.101394 53.713196 
L 256.771664 38.018591 
L 257.106799 59.480365 
L 257.441934 43.172075 
L 258.112204 50.004912 
L 258.44734 39.583841 
L 258.782475 51.979381 
L 259.11761 56.451058 
L 259.452745 45.803872 
L 259.78788 42.037976 
L 260.123015 53.349061 
L 260.45815 35.986235 
L 260.793285 43.00829 
L 261.128421 46.467098 
L 261.463556 40.68937 
L 261.798691 39.491575 
L 262.133826 52.958463 
L 262.468961 50.146671 
L 262.804096 43.588476 
L 263.139231 41.374088 
L 263.474367 46.34145 
L 263.809502 38.396679 
L 264.144637 51.143092 
L 264.479772 48.884963 
L 264.814907 45.400918 
L 265.150042 35.155348 
L 265.820312 43.459312 
L 266.155448 48.744775 
L 266.490583 44.249844 
L 266.825718 30.826609 
L 267.160853 37.145371 
L 267.495988 46.786507 
L 267.831123 44.237434 
L 268.501394 34.857042 
L 268.836529 48.885815 
L 269.171664 34.750305 
L 269.506799 36.665451 
L 269.841934 33.404969 
L 270.177069 37.046355 
L 270.512204 34.801885 
L 270.84734 39.94291 
L 271.182475 39.823608 
L 271.51761 36.034492 
L 271.852745 36.914445 
L 272.18788 29.658774 
L 272.523015 40.555895 
L 272.85815 37.781349 
L 273.193285 36.78322 
L 273.528421 36.275526 
L 273.863556 31.404821 
L 274.198691 37.314862 
L 274.868961 33.037666 
L 275.204096 23.297907 
L 275.539231 37.788736 
L 275.874367 30.965749 
L 276.209502 27.021618 
L 276.544637 36.885462 
L 276.879772 39.619798 
L 277.550042 27.313098 
L 277.885177 37.272931 
L 278.220313 31.875101 
L 278.555448 34.322251 
L 278.890583 34.148207 
L 279.225718 45.628284 
L 279.560853 36.043081 
L 279.895988 31.984681 
L 280.231123 33.78563 
L 280.566258 30.582318 
L 280.901394 32.695284 
L 281.236529 33.882126 
L 281.571664 35.803737 
L 281.906799 34.118931 
L 282.241934 23.262362 
L 282.577069 35.334817 
L 282.912204 31.651113 
L 283.24734 35.640134 
L 283.582475 33.63166 
L 284.252745 38.336605 
L 284.58788 38.733324 
L 284.923015 36.208079 
L 285.25815 35.916001 
L 285.593285 31.749084 
L 285.928421 29.017877 
L 286.263556 32.039083 
L 286.598691 27.816072 
L 286.933826 28.820157 
L 287.268961 36.204125 
L 287.604096 19.608081 
L 287.939231 35.104076 
L 288.274367 28.154164 
L 288.609502 30.447584 
L 288.944637 23.431845 
L 289.279772 24.419472 
L 289.614907 30.022871 
L 289.950042 39.357501 
L 290.620313 28.62249 
L 290.955448 30.059726 
L 291.290583 20.187632 
L 291.625718 33.074625 
L 291.960853 29.502086 
L 292.295988 27.176951 
L 292.631123 25.788666 
L 292.966258 29.611681 
L 293.301394 22.983678 
L 293.636529 28.997785 
L 293.971664 23.450269 
L 294.306799 34.817632 
L 294.641934 32.874345 
L 294.977069 27.9865 
L 295.312204 24.894251 
L 295.64734 16.299124 
L 295.982475 36.983035 
L 296.31761 20.489345 
L 296.652745 20.887062 
L 296.98788 24.603249 
L 297.323015 31.42583 
L 297.65815 27.23536 
L 297.993285 26.646319 
L 298.328421 34.408729 
L 298.663556 30.149036 
L 298.998691 27.737591 
L 299.333826 17.818554 
L 299.668961 29.607597 
L 300.004096 22.017616 
L 300.339231 25.888577 
L 300.674367 20.396579 
L 301.344637 25.664768 
L 301.679772 19.932007 
L 302.014907 18.421108 
L 302.350042 29.735108 
L 302.685177 23.974791 
L 303.020312 28.010319 
L 303.355448 21.404386 
L 303.690583 19.669918 
L 304.025718 27.172522 
L 304.360853 24.395001 
L 304.695988 30.642654 
L 305.031123 20.490891 
L 305.366258 25.031979 
L 305.701394 17.678875 
L 306.036529 25.045905 
L 306.371664 27.110492 
L 306.706799 33.263038 
L 307.041934 23.067964 
L 307.377069 27.688119 
L 307.712204 26.889631 
L 308.04734 21.393314 
L 308.382475 21.150884 
L 308.71761 25.994395 
L 309.052745 17.977529 
L 309.38788 20.216641 
L 309.723015 34.653228 
L 310.05815 26.2621 
L 310.393285 25.397824 
L 310.728421 28.577082 
L 311.063556 25.252642 
L 311.398691 24.89987 
L 312.068961 23.00486 
L 312.404096 23.018612 
L 312.739231 28.376744 
L 313.074367 29.899181 
L 313.409502 34.747386 
L 313.744637 21.618381 
L 314.079772 19.235135 
L 314.414907 29.986599 
L 315.085177 22.597176 
L 315.420313 29.376693 
L 315.755448 17.974033 
L 316.090583 31.349708 
L 316.425718 18.229915 
L 316.760853 27.750061 
L 317.095988 27.080563 
L 317.431123 32.780482 
L 317.766258 25.794489 
L 318.101394 37.682688 
L 318.436529 30.760022 
L 318.771664 35.637011 
L 319.106799 22.597726 
L 319.441934 30.200991 
L 319.777069 30.198584 
L 320.112204 23.497297 
L 320.44734 34.877764 
L 320.782475 30.552164 
L 321.11761 22.855825 
L 321.452745 23.888609 
L 321.78788 25.762422 
L 322.123015 28.937644 
L 322.45815 23.207457 
L 323.128421 35.383126 
L 323.463556 27.018437 
L 323.798691 30.742185 
L 324.133826 31.044643 
L 324.468961 34.020944 
L 324.804096 30.029486 
L 325.139231 22.854269 
L 325.809502 33.961889 
L 326.144637 32.284886 
L 326.479772 27.563892 
L 326.814907 35.267925 
L 327.150042 36.749514 
L 327.485177 23.606637 
L 327.820312 22.597569 
L 328.155448 25.900369 
L 328.490583 37.859946 
L 328.825718 38.586636 
L 329.160853 34.400293 
L 329.495988 23.008248 
L 329.831123 41.337716 
L 330.166258 34.90788 
L 330.501394 22.61169 
L 331.171664 38.089149 
L 331.506799 23.60788 
L 331.841934 25.155548 
L 332.177069 39.592418 
L 332.512204 27.102595 
L 332.84734 33.664578 
L 333.182475 30.850093 
L 333.51761 31.009147 
L 333.852745 39.853365 
L 334.523015 32.183442 
L 334.85815 45.01713 
L 335.193285 31.18081 
L 335.528421 30.020829 
L 335.863556 45.425252 
L 336.198691 43.845551 
L 336.533826 38.669648 
L 336.868961 39.511525 
L 337.204096 31.489748 
L 337.539231 35.396991 
L 337.874367 36.30287 
L 338.209502 16.785703 
L 338.544637 43.4768 
L 338.879772 34.810889 
L 339.214907 35.919978 
L 339.550042 34.203143 
L 339.885177 42.885715 
L 340.220313 41.256635 
L 340.555448 28.945753 
L 341.560853 51.516409 
L 341.895988 39.686337 
L 342.231123 33.534833 
L 342.566258 33.766503 
L 342.901394 35.942116 
L 343.236529 30.903648 
L 343.571664 35.729341 
L 344.241934 40.276946 
L 344.577069 37.891885 
L 344.912204 39.188334 
L 345.24734 43.563361 
L 345.582475 33.842019 
L 345.91761 35.989087 
L 346.252745 55.458679 
L 346.58788 30.103362 
L 346.923015 39.555656 
L 347.25815 34.046286 
L 347.593285 42.104668 
L 347.928421 44.453492 
L 348.263556 42.068714 
L 348.598691 47.251847 
L 348.933826 45.092727 
L 349.268961 39.488404 
L 349.604096 49.547058 
L 349.939231 43.629265 
L 350.274367 49.137123 
L 350.609502 44.298821 
L 350.944637 42.194774 
L 351.279772 38.778359 
L 351.614907 49.269278 
L 351.950042 50.748359 
L 352.285177 47.675116 
L 352.620313 47.088505 
L 352.955448 45.918141 
L 353.290583 44.036844 
L 353.625718 48.28325 
L 353.960853 41.662566 
L 354.295988 47.871429 
L 354.631123 48.422747 
L 354.966258 46.431547 
L 355.301394 34.81387 
L 355.636529 48.606825 
L 355.971664 47.170934 
L 356.306799 51.094043 
L 356.641934 52.83648 
L 356.977069 55.329933 
L 357.312204 53.611652 
L 357.64734 49.697886 
L 357.982475 53.048375 
L 358.31761 51.6309 
L 358.652745 53.922958 
L 358.98788 51.054106 
L 359.323015 58.131965 
L 359.993285 52.09408 
L 360.328421 52.83364 
L 360.663556 54.919844 
L 360.998691 50.133673 
L 361.333826 52.096422 
L 361.668961 49.524617 
L 362.004096 53.435501 
L 362.339231 42.093702 
L 362.674367 50.931841 
L 363.009502 45.893957 
L 363.344637 52.188942 
L 363.679772 54.522861 
L 364.014907 50.534706 
L 364.350042 49.12354 
L 364.685177 61.875769 
L 365.020313 55.284376 
L 365.355448 46.217274 
L 365.690583 59.688084 
L 366.025718 58.167632 
L 366.360853 58.162051 
L 366.695988 54.603617 
L 367.031123 60.702729 
L 367.366258 59.924007 
L 367.701394 61.656882 
L 368.036529 66.323389 
L 368.371664 52.374292 
L 368.706799 54.981583 
L 369.041934 48.570609 
L 369.377069 51.271425 
L 369.712204 58.410549 
L 370.04734 62.651713 
L 370.382475 65.179623 
L 370.71761 57.45149 
L 371.052745 56.202689 
L 371.38788 49.390127 
L 371.723015 59.124985 
L 372.05815 55.221194 
L 372.393285 66.513177 
L 372.728421 54.929085 
L 373.063556 52.471595 
L 373.398691 61.205454 
L 374.068961 65.435754 
L 374.404096 60.979729 
L 375.074367 57.813317 
L 375.409502 64.145374 
L 375.744637 47.118353 
L 376.079772 55.107891 
L 376.414907 69.194936 
L 376.750042 63.537172 
L 377.085177 68.409136 
L 377.420313 57.486521 
L 377.420313 57.486521 
" clip-path="url(#pd08a371a61)" style="fill: none; stroke: #1f77b4; stroke-width: 1.5; stroke-linecap: square"/>
   </g>
   <g id="line2d_26">
    <path d="M 43.960853 51.609705 
L 44.295988 51.031298 
L 44.631123 47.638079 
L 44.966258 49.969494 
L 45.301394 54.441998 
L 45.636529 50.692462 
L 45.971664 52.126992 
L 46.306799 49.978007 
L 46.641934 44.365692 
L 47.312204 46.784436 
L 47.64734 49.677718 
L 47.982475 51.443137 
L 48.31761 48.400268 
L 48.652745 44.073687 
L 48.98788 41.347696 
L 49.323015 44.128824 
L 49.65815 45.3087 
L 49.993285 43.10671 
L 50.328421 49.002032 
L 50.663556 44.317355 
L 50.998691 42.824286 
L 51.333826 45.653916 
L 51.668961 42.924239 
L 52.339231 49.982401 
L 52.674367 50.539032 
L 53.009502 49.252297 
L 54.014907 39.062559 
L 54.350042 41.369949 
L 54.685177 39.595492 
L 55.020313 39.909603 
L 55.355448 40.785446 
L 56.025718 36.632411 
L 56.695988 40.533984 
L 57.031123 43.366505 
L 57.366258 45.015529 
L 57.701394 41.473121 
L 58.036529 35.237133 
L 58.371664 38.318495 
L 58.706799 38.045992 
L 59.377069 40.664374 
L 59.712204 38.710804 
L 60.04734 38.064929 
L 60.382475 36.765517 
L 60.71761 39.151373 
L 61.052745 34.854449 
L 61.38788 37.414399 
L 61.723015 37.474475 
L 62.728421 38.192807 
L 63.063556 31.761886 
L 63.398691 35.050874 
L 63.733826 29.941301 
L 64.068961 36.924273 
L 64.404096 32.357774 
L 64.739231 36.900057 
L 65.074367 34.233058 
L 65.409502 35.859857 
L 66.079772 37.382545 
L 66.414907 38.445102 
L 66.750042 37.533549 
L 67.085177 38.377334 
L 67.755448 35.388713 
L 68.090583 34.075993 
L 68.425718 33.471133 
L 68.760853 33.400192 
L 69.095988 33.788677 
L 69.431123 33.672704 
L 69.766258 34.001979 
L 70.101394 33.336966 
L 70.436529 33.00989 
L 70.771664 32.40457 
L 71.106799 34.335552 
L 71.441934 30.823248 
L 71.777069 32.963911 
L 72.112204 31.944073 
L 72.44734 35.926507 
L 72.782475 29.883611 
L 73.11761 30.244391 
L 73.452745 28.922882 
L 73.78788 29.74968 
L 74.123015 28.833402 
L 74.45815 29.581437 
L 74.793285 26.910327 
L 75.128421 27.645997 
L 76.133826 31.327215 
L 77.139231 29.127225 
L 77.474367 30.551545 
L 77.809502 27.820389 
L 78.144637 29.787321 
L 78.479772 29.682745 
L 78.814907 30.230617 
L 79.150042 28.486527 
L 79.485177 30.132637 
L 79.820312 29.760236 
L 80.155448 33.980574 
L 80.490583 34.388461 
L 80.825718 34.574116 
L 81.495988 29.711181 
L 81.831123 29.28849 
L 82.166258 29.580717 
L 82.501394 28.99232 
L 82.836529 30.121688 
L 83.171664 29.173771 
L 83.506799 29.172112 
L 83.841934 26.862339 
L 84.177069 28.265174 
L 84.512204 26.720309 
L 84.84734 31.117123 
L 85.182475 28.964234 
L 85.51761 30.840974 
L 86.18788 28.321107 
L 86.523015 29.165121 
L 86.85815 34.032184 
L 87.193285 27.866476 
L 87.528421 31.538222 
L 87.863556 27.303338 
L 88.198691 27.376455 
L 88.533826 27.73559 
L 88.868961 23.836783 
L 89.204096 26.978438 
L 89.539231 26.313982 
L 90.209502 28.464381 
L 90.544637 28.24807 
L 90.879772 29.242987 
L 91.214907 28.103535 
L 91.550042 28.497931 
L 91.885177 27.705331 
L 92.220313 27.436145 
L 92.555448 27.851658 
L 92.890583 25.620039 
L 93.225718 26.79617 
L 93.560853 24.398094 
L 93.895988 24.690527 
L 94.231123 25.68085 
L 94.566258 25.434039 
L 94.901394 29.005902 
L 95.236529 27.932385 
L 95.571664 29.9971 
L 95.906799 26.033303 
L 96.241934 26.02603 
L 96.577069 28.756643 
L 96.912204 26.5378 
L 97.24734 31.071039 
L 97.582475 30.632927 
L 97.91761 30.510627 
L 98.252745 31.142582 
L 98.58788 28.95491 
L 98.923015 28.77182 
L 99.25815 27.431501 
L 99.928421 32.416796 
L 100.263556 30.882034 
L 100.598691 31.82325 
L 100.933826 28.032989 
L 101.268961 27.536995 
L 101.604096 28.882834 
L 101.939231 28.874941 
L 102.274367 31.377988 
L 102.609502 30.438444 
L 102.944637 32.00285 
L 103.279772 29.036314 
L 103.614907 28.846714 
L 103.950042 29.108297 
L 104.285177 28.537004 
L 104.620313 28.507887 
L 104.955448 29.574874 
L 105.290583 27.253919 
L 105.625718 30.70138 
L 105.960853 28.231138 
L 106.631123 31.214969 
L 106.966258 27.144699 
L 107.301394 26.396692 
L 107.636529 23.751152 
L 107.971664 24.557121 
L 108.306799 26.632487 
L 108.641934 27.939043 
L 108.977069 30.087755 
L 109.312204 27.844727 
L 109.64734 26.924753 
L 109.982475 28.138678 
L 110.31761 27.261995 
L 110.652745 26.746462 
L 110.98788 32.58502 
L 111.323015 29.295168 
L 111.65815 34.087847 
L 111.993285 31.938083 
L 112.328421 32.193957 
L 112.998691 28.784449 
L 113.333826 27.557359 
L 113.668961 30.073281 
L 114.004096 29.834612 
L 114.339231 31.77803 
L 114.674367 30.960165 
L 115.009502 31.546525 
L 115.344637 27.887671 
L 115.679772 31.452804 
L 116.014907 28.79978 
L 116.350042 27.970559 
L 116.685177 25.556344 
L 117.355448 30.841147 
L 117.690583 35.727365 
L 118.025718 33.457032 
L 118.360853 34.671032 
L 118.695988 32.411963 
L 119.031123 30.997438 
L 119.366258 33.058462 
L 120.036529 33.462127 
L 120.371664 33.357034 
L 120.706799 34.625609 
L 121.041934 36.952203 
L 121.377069 36.59961 
L 121.712204 38.651416 
L 122.04734 35.300572 
L 122.382475 35.993996 
L 122.71761 34.890742 
L 123.38788 37.019983 
L 124.393285 33.192179 
L 124.728421 33.361813 
L 125.398691 35.738525 
L 125.733826 37.110701 
L 126.068961 32.237281 
L 126.404096 35.180605 
L 126.739231 29.669084 
L 127.074367 37.683211 
L 127.409502 35.933424 
L 127.744637 38.335232 
L 128.414907 36.017381 
L 128.750042 35.559812 
L 129.085177 37.67467 
L 129.420313 37.502448 
L 129.755448 39.018931 
L 130.090583 37.41642 
L 130.425718 34.964135 
L 130.760853 34.173895 
L 131.095988 32.861725 
L 131.431123 33.770769 
L 131.766258 36.073341 
L 132.101394 36.303508 
L 132.436529 37.391658 
L 132.771664 39.182783 
L 133.106799 37.179714 
L 133.441934 40.62721 
L 133.777069 37.526768 
L 134.112204 39.230756 
L 134.44734 38.40035 
L 134.782475 39.211901 
L 135.11761 38.618082 
L 135.452745 37.12947 
L 135.78788 37.385069 
L 136.123015 34.681171 
L 136.793285 40.792148 
L 137.128421 40.719238 
L 137.463556 42.710073 
L 137.798691 38.505374 
L 138.468961 43.415471 
L 139.474367 42.062765 
L 139.809502 40.742787 
L 140.144637 42.4743 
L 140.479772 40.672732 
L 140.814907 39.628148 
L 141.820312 42.807607 
L 142.155448 44.524685 
L 142.490583 48.118944 
L 142.825718 49.652009 
L 143.160853 51.76892 
L 143.831123 45.897065 
L 144.166258 48.053821 
L 144.501394 47.863245 
L 144.836529 46.675366 
L 145.171664 51.196852 
L 145.841934 45.707059 
L 146.177069 45.651964 
L 146.512204 48.153762 
L 146.84734 49.13538 
L 147.51761 48.68707 
L 147.852745 56.590469 
L 148.18788 55.151224 
L 148.523015 57.976756 
L 148.85815 57.259615 
L 149.193285 53.551828 
L 149.528421 59.425372 
L 149.863556 57.545487 
L 150.198691 59.204674 
L 150.533826 58.87092 
L 150.868961 51.211651 
L 151.539231 56.440361 
L 151.874367 59.942099 
L 152.209502 58.441081 
L 152.544637 57.644777 
L 152.879772 56.505015 
L 153.214907 57.828144 
L 153.550042 56.15711 
L 153.885177 58.061785 
L 154.220313 58.074337 
L 154.555448 58.398827 
L 154.890583 59.677151 
L 155.225718 59.295571 
L 155.560853 60.01455 
L 155.895988 59.576007 
L 156.231123 58.848275 
L 156.566258 57.085944 
L 156.901394 56.338426 
L 157.236529 54.977967 
L 157.571664 55.254996 
L 158.241934 61.959694 
L 158.577069 62.879071 
L 158.912204 62.30709 
L 159.24734 63.126977 
L 159.91761 63.249273 
L 160.252745 65.990161 
L 160.58788 64.732992 
L 160.923015 64.959173 
L 161.25815 68.460646 
L 161.593285 64.608241 
L 161.928421 63.360098 
L 162.263556 65.381106 
L 162.598691 64.246579 
L 162.933826 66.548142 
L 163.268961 65.044165 
L 163.604096 65.541239 
L 163.939231 62.099888 
L 164.274367 61.22175 
L 164.609502 62.386506 
L 164.944637 61.365096 
L 165.279772 61.740355 
L 165.614907 60.461847 
L 165.950042 60.283044 
L 166.285177 58.131672 
L 166.620313 59.481073 
L 166.955448 63.857756 
L 167.290583 61.843595 
L 167.625718 62.395325 
L 167.960853 63.923665 
L 168.295988 62.50847 
L 168.966258 66.102051 
L 169.301394 70.367168 
L 169.971664 69.956815 
L 170.306799 71.697721 
L 170.641934 69.958808 
L 170.977069 66.511057 
L 171.312204 67.482738 
L 171.64734 66.615357 
L 172.31761 62.658069 
L 172.652745 65.027218 
L 172.98788 68.678325 
L 173.65815 70.447907 
L 173.993285 68.119436 
L 174.328421 64.625544 
L 174.663556 68.63203 
L 174.998691 69.581562 
L 175.333826 71.475733 
L 175.668961 71.082423 
L 176.004096 68.570314 
L 176.339231 69.093996 
L 176.674367 68.603905 
L 177.009502 69.289397 
L 177.344637 71.468818 
L 177.679772 69.786225 
L 178.014907 72.373929 
L 178.350042 69.051407 
L 178.685177 70.518761 
L 179.020313 68.037336 
L 179.355448 68.307297 
L 179.690583 71.805639 
L 180.025718 69.046161 
L 180.360853 73.38773 
L 180.695988 73.746622 
L 181.031123 74.542959 
L 181.366258 76.742161 
L 181.701394 73.238607 
L 182.036529 73.385196 
L 182.371664 70.761081 
L 182.706799 74.199459 
L 183.041934 72.529565 
L 183.377069 73.423136 
L 183.712204 73.335413 
L 184.04734 73.614058 
L 184.382475 74.753999 
L 184.71761 74.607158 
L 185.052745 78.308724 
L 185.38788 75.300542 
L 185.723015 75.135156 
L 186.05815 73.832507 
L 186.393285 69.734136 
L 186.728421 72.229796 
L 187.063556 72.788168 
L 187.398691 74.007729 
L 187.733826 77.905988 
L 188.068961 73.846553 
L 188.404096 73.867907 
L 189.074367 71.149328 
L 189.409502 72.568737 
L 189.744637 71.136573 
L 190.414907 73.512522 
L 190.750042 71.904888 
L 191.085177 72.971036 
L 191.420312 72.962548 
L 191.755448 71.730991 
L 192.090583 73.400637 
L 192.425718 74.220495 
L 192.760853 74.318038 
L 193.095988 76.489134 
L 193.766258 74.034061 
L 194.101394 74.301187 
L 194.436529 75.85665 
L 194.771664 81.567953 
L 195.106799 78.206422 
L 195.441934 78.092678 
L 195.777069 76.865514 
L 196.112204 73.33185 
L 196.44734 77.934051 
L 197.11761 73.382947 
L 197.452745 75.545847 
L 197.78788 75.672745 
L 198.123015 79.066093 
L 198.45815 79.381394 
L 198.793285 78.204444 
L 199.128421 78.698524 
L 199.463556 77.294064 
L 199.798691 79.812329 
L 200.133826 80.209752 
L 200.468961 79.977537 
L 200.804096 78.623387 
L 201.139231 79.748444 
L 201.474367 81.782245 
L 201.809502 81.805024 
L 202.479772 78.422879 
L 202.814907 77.201491 
L 203.150042 74.844571 
L 203.485177 78.244837 
L 203.820312 76.620017 
L 204.155448 77.167206 
L 204.490583 76.31046 
L 204.825718 75.912749 
L 205.160853 78.193999 
L 205.495988 74.364192 
L 205.831123 76.085775 
L 206.166258 75.329609 
L 206.501394 73.726014 
L 206.836529 74.060697 
L 207.171664 74.728105 
L 207.841934 74.197484 
L 208.177069 75.285666 
L 208.84734 72.639951 
L 209.182475 72.331955 
L 210.18788 80.180702 
L 210.523015 78.152374 
L 210.85815 72.805971 
L 211.193285 71.487003 
L 211.863556 75.681472 
L 212.198691 77.067552 
L 212.533826 76.763116 
L 213.204096 74.077294 
L 213.874367 72.424872 
L 214.209502 72.218281 
L 214.544637 70.590819 
L 214.879772 71.412976 
L 215.214907 72.530381 
L 215.550042 74.646863 
L 215.885177 73.573212 
L 216.220313 70.958549 
L 216.555448 72.20148 
L 216.890583 69.732687 
L 217.225718 70.222677 
L 217.560853 71.887169 
L 217.895988 67.81393 
L 218.566258 72.093571 
L 219.236529 70.147479 
L 219.571664 70.963055 
L 220.241934 69.020969 
L 220.577069 71.548886 
L 220.912204 71.941721 
L 221.24734 73.482188 
L 221.582475 70.823442 
L 221.91761 69.097627 
L 222.252745 68.929665 
L 222.58788 69.510533 
L 223.25815 72.25958 
L 223.593285 71.153147 
L 224.263556 66.834397 
L 224.598691 65.912375 
L 224.933826 67.256311 
L 225.268961 71.01636 
L 225.604096 70.318119 
L 225.939231 71.293447 
L 226.274367 71.863034 
L 226.609502 71.29451 
L 226.944637 73.724598 
L 227.279772 72.501654 
L 227.950042 65.55627 
L 228.285177 64.296049 
L 228.620313 66.271264 
L 228.955448 66.751613 
L 229.290583 68.183216 
L 229.625718 68.623954 
L 229.960853 67.331438 
L 230.295988 68.080873 
L 230.631123 68.339703 
L 230.966258 66.982836 
L 231.301394 64.321918 
L 231.636529 65.584138 
L 231.971664 64.677788 
L 232.306799 68.098977 
L 232.641934 67.975475 
L 232.977069 69.971455 
L 233.312204 69.878737 
L 233.64734 69.369924 
L 233.982475 69.883409 
L 234.31761 67.788068 
L 234.652745 67.728238 
L 234.98788 62.949764 
L 235.323015 63.495901 
L 235.65815 60.74092 
L 235.993285 62.055144 
L 236.328421 62.847513 
L 236.663556 60.202436 
L 237.333826 65.756553 
L 237.668961 65.447207 
L 238.004096 64.521616 
L 238.339231 66.335396 
L 238.674367 61.549264 
L 239.009502 63.304881 
L 239.344637 60.955699 
L 239.679772 60.477424 
L 240.014907 60.888823 
L 240.350042 58.377662 
L 240.685177 58.748106 
L 241.020313 57.316128 
L 241.355448 57.869053 
L 241.690583 56.786302 
L 242.025718 58.428222 
L 242.360853 61.936099 
L 242.695988 61.398151 
L 243.031123 61.892333 
L 243.701394 55.673141 
L 244.036529 54.531608 
L 244.371664 53.911116 
L 244.706799 54.963763 
L 245.041934 57.917817 
L 245.377069 59.097856 
L 245.712204 58.704169 
L 246.04734 58.703243 
L 246.382475 58.900365 
L 246.71761 56.732463 
L 247.052745 56.746153 
L 247.38788 55.743248 
L 247.723015 56.80971 
L 248.05815 53.468435 
L 248.393285 56.564528 
L 248.728421 55.558708 
L 249.063556 57.343307 
L 249.398691 54.543333 
L 249.733826 56.698566 
L 250.068961 56.068274 
L 250.404096 56.118201 
L 250.739231 52.234912 
L 251.074367 59.265307 
L 251.409502 56.539342 
L 251.744637 59.765037 
L 252.414907 55.946628 
L 252.750042 54.676594 
L 253.085177 56.492226 
L 253.420313 55.953732 
L 253.755448 53.173909 
L 254.090583 52.498023 
L 254.425718 53.01768 
L 255.766258 40.757435 
L 256.101394 42.174165 
L 256.436529 45.549009 
L 256.771664 44.999351 
L 257.106799 46.318272 
L 257.441934 53.561667 
L 257.777069 48.854049 
L 258.112204 50.160103 
L 258.44734 54.120792 
L 258.782475 45.128832 
L 259.11761 49.775112 
L 259.452745 50.683464 
L 259.78788 49.425441 
L 260.123015 52.729056 
L 260.45815 53.890067 
L 260.793285 46.35871 
L 261.463556 45.114478 
L 261.798691 40.368944 
L 262.133826 42.302491 
L 262.468961 45.262587 
L 262.804096 44.664946 
L 263.474367 49.592723 
L 264.144637 42.159634 
L 264.479772 44.680654 
L 264.814907 45.75633 
L 265.150042 45.75386 
L 265.485177 48.248123 
L 266.155448 39.017302 
L 266.490583 39.413599 
L 266.825718 42.293395 
L 267.160853 43.25715 
L 267.831123 39.22651 
L 268.166258 38.854541 
L 268.836529 41.067535 
L 269.171664 40.561278 
L 269.506799 41.794899 
L 269.841934 38.432686 
L 270.177069 38.164928 
L 270.512204 34.549863 
L 270.84734 35.417087 
L 271.182475 35.099932 
L 271.51761 37.157362 
L 271.852745 36.864234 
L 272.18788 36.796586 
L 272.523015 36.049119 
L 272.85815 34.068613 
L 273.193285 36.754489 
L 273.528421 35.349085 
L 273.863556 36.829093 
L 274.533826 34.31395 
L 274.868961 35.177884 
L 275.204096 33.936593 
L 275.539231 33.354652 
L 275.874367 31.026674 
L 276.209502 33.955555 
L 276.544637 30.45545 
L 277.214907 33.987656 
L 277.550042 34.528866 
L 277.885177 34.157928 
L 278.220313 33.2168 
L 278.555448 33.985877 
L 278.890583 32.331018 
L 279.225718 34.419133 
L 279.560853 34.907925 
L 279.895988 38.965945 
L 280.231123 35.778485 
L 280.566258 35.840613 
L 280.901394 33.603719 
L 281.236529 32.246926 
L 281.571664 33.015159 
L 281.906799 33.226086 
L 282.241934 34.206941 
L 282.577069 33.087134 
L 282.912204 31.063363 
L 283.24734 32.974879 
L 283.582475 31.357876 
L 283.91761 34.355297 
L 284.252745 33.769269 
L 284.58788 35.373657 
L 285.25815 36.619882 
L 285.593285 36.277367 
L 285.928421 35.471444 
L 286.263556 33.301696 
L 287.268961 30.116223 
L 287.604096 31.373125 
L 287.939231 32.164374 
L 288.274367 28.739585 
L 288.609502 33.169695 
L 288.944637 28.893912 
L 289.279772 31.065441 
L 289.614907 27.859208 
L 289.950042 28.413383 
L 290.285177 29.962639 
L 290.620313 33.101766 
L 291.290583 32.769358 
L 291.960853 27.888123 
L 292.295988 30.59319 
L 292.631123 28.804948 
L 292.966258 30.068456 
L 293.301394 29.067992 
L 293.636529 28.862118 
L 293.971664 27.668525 
L 294.306799 28.867265 
L 294.641934 27.847769 
L 294.977069 31.720011 
L 295.312204 30.830412 
L 295.64734 30.986826 
L 295.982475 28.025712 
L 296.31761 26.352852 
L 296.652745 31.029099 
L 296.98788 24.945322 
L 297.323015 27.629577 
L 297.65815 26.313329 
L 297.993285 28.51066 
L 298.328421 28.717278 
L 298.663556 30.287241 
L 298.998691 31.315905 
L 299.668961 29.670873 
L 300.004096 26.763403 
L 300.339231 28.079437 
L 300.674367 25.399356 
L 301.009502 27.417044 
L 301.344637 24.928529 
L 301.679772 26.13245 
L 302.014907 25.544206 
L 302.350042 24.412705 
L 302.685177 25.100177 
L 303.020312 26.646349 
L 303.355448 26.39682 
L 303.690583 28.467579 
L 304.025718 25.52984 
L 304.360853 25.850223 
L 305.031123 26.768499 
L 305.366258 28.876461 
L 305.701394 26.273138 
L 306.036529 26.853396 
L 306.371664 23.91208 
L 306.706799 26.471788 
L 307.041934 27.261069 
L 307.377069 29.836185 
L 307.712204 28.260651 
L 308.04734 29.599755 
L 308.382475 27.22992 
L 308.71761 26.3073 
L 309.052745 25.952003 
L 309.38788 25.408732 
L 309.723015 23.69884 
L 310.393285 28.295919 
L 310.728421 27.782079 
L 311.063556 29.750079 
L 311.733826 27.700562 
L 312.068961 27.718588 
L 312.404096 26.612985 
L 312.739231 26.114555 
L 313.074367 26.436905 
L 314.079772 31.627671 
L 314.414907 27.572127 
L 314.750042 27.422748 
L 315.085177 27.452243 
L 315.420313 26.743632 
L 315.755448 28.046324 
L 316.090583 27.935166 
L 316.425718 25.695135 
L 316.760853 29.407078 
L 317.095988 24.671404 
L 317.431123 28.658403 
L 317.766258 27.640789 
L 318.101394 30.457807 
L 318.436529 30.20811 
L 318.771664 33.991357 
L 319.106799 31.8776 
L 319.441934 34.526524 
L 319.777069 29.432032 
L 320.112204 31.192155 
L 320.44734 28.728477 
L 320.782475 29.47156 
L 321.11761 31.749887 
L 321.452745 29.524106 
L 321.78788 28.984054 
L 322.123015 27.703521 
L 322.45815 27.236896 
L 322.793285 28.010676 
L 323.128421 27.598596 
L 323.463556 29.999695 
L 323.798691 30.683628 
L 324.133826 30.407048 
L 324.468961 31.954898 
L 324.804096 31.169359 
L 325.139231 32.429828 
L 325.809502 29.392515 
L 326.479772 30.889176 
L 326.814907 31.703524 
L 327.150042 31.809368 
L 327.485177 33.48006 
L 327.820312 32.775217 
L 328.155448 29.914485 
L 328.490583 28.654964 
L 328.825718 28.304527 
L 329.160853 32.350161 
L 329.495988 34.236295 
L 329.831123 34.427377 
L 330.166258 32.273508 
L 330.501394 36.097401 
L 330.836529 31.56344 
L 331.171664 31.551734 
L 331.506799 32.163007 
L 331.841934 31.911919 
L 332.177069 29.485814 
L 332.512204 31.530408 
L 332.84734 32.576567 
L 333.182475 30.607588 
L 333.51761 33.767923 
L 333.852745 31.137588 
L 334.523015 34.924337 
L 334.85815 34.278274 
L 335.193285 35.9697 
L 335.528421 38.834601 
L 335.863556 33.552591 
L 336.198691 36.813058 
L 336.533826 37.785762 
L 336.868961 38.146657 
L 337.204096 41.611536 
L 337.874367 34.898318 
L 338.209502 35.409406 
L 338.544637 33.573613 
L 338.879772 31.065072 
L 339.214907 37.669115 
L 339.550042 32.083833 
L 339.885177 36.539587 
L 340.220313 35.396474 
L 340.555448 37.969367 
L 340.890583 37.254757 
L 341.225718 36.944239 
L 341.560853 36.94786 
L 341.895988 37.914619 
L 342.231123 43.158415 
L 342.566258 43.518363 
L 343.236529 35.143255 
L 343.571664 34.033158 
L 343.906799 33.324212 
L 344.241934 34.925861 
L 344.577069 35.495778 
L 344.912204 37.175931 
L 345.24734 37.320037 
L 345.91761 39.144774 
L 346.252745 36.956722 
L 346.58788 41.380687 
L 346.923015 43.994935 
L 347.25815 41.676997 
L 347.593285 41.793179 
L 347.928421 34.757612 
L 348.263556 38.784342 
L 348.598691 39.13171 
L 348.933826 43.203787 
L 349.268961 43.30588 
L 349.604096 43.100851 
L 349.939231 46.273898 
L 350.274367 44.060709 
L 350.944637 47.184751 
L 351.614907 44.080063 
L 351.950042 43.06155 
L 352.285177 43.399636 
L 352.620313 45.802912 
L 352.955448 50.820408 
L 353.290583 49.555123 
L 353.625718 46.962031 
L 353.960853 46.879629 
L 354.295988 44.796754 
L 354.631123 46.461553 
L 354.966258 46.116242 
L 355.301394 45.564602 
L 355.636529 46.515555 
L 355.971664 46.72068 
L 356.306799 44.572326 
L 356.641934 44.125983 
L 356.977069 50.911179 
L 357.64734 54.835117 
L 357.982475 55.810082 
L 358.31761 56.292405 
L 358.652745 54.065154 
L 358.98788 54.889572 
L 359.323015 54.401108 
L 359.65815 56.978978 
L 359.993285 55.303608 
L 360.328421 57.329374 
L 360.998691 56.247303 
L 361.333826 54.55399 
L 361.668961 56.292788 
L 362.004096 54.008274 
L 362.339231 54.117483 
L 362.674367 52.100325 
L 363.009502 52.385617 
L 363.344637 49.749514 
L 363.679772 48.958071 
L 364.014907 52.930173 
L 364.350042 52.70035 
L 365.020313 58.277664 
L 365.355448 54.017889 
L 365.690583 58.010079 
L 366.025718 59.018912 
L 366.360853 55.289292 
L 366.695988 58.810199 
L 367.031123 58.209711 
L 367.366258 58.972346 
L 367.701394 59.117857 
L 368.036529 60.21981 
L 368.371664 63.704124 
L 369.377069 56.971866 
L 369.712204 55.749609 
L 370.04734 56.586561 
L 370.382475 56.995476 
L 370.71761 60.276453 
L 371.052745 61.921266 
L 371.38788 60.379735 
L 371.723015 58.029199 
L 372.05815 58.194644 
L 372.393285 55.543265 
L 372.728421 60.742566 
L 373.063556 58.387945 
L 373.733826 60.655121 
L 374.068961 58.933458 
L 374.739231 63.559497 
L 375.409502 61.084246 
L 375.744637 61.688256 
L 376.079772 58.036389 
L 376.414907 57.951178 
L 376.750042 61.336459 
L 377.085177 59.073611 
L 377.420313 64.827823 
L 377.420313 64.827823 
" clip-path="url(#pd08a371a61)" style="fill: none; stroke-dasharray: 5.55,2.4; stroke-dashoffset: 0; stroke: #bf00bf; stroke-width: 1.5"/>
   </g>
   <g id="line2d_27">
    <path d="M 245.041934 57.917817 
L 245.377069 57.847554 
L 246.04734 59.047295 
L 247.052745 59.989593 
L 248.393285 61.269396 
L 251.409502 63.749715 
L 270.84734 79.798359 
L 290.285177 96.133856 
L 309.723015 112.761267 
L 329.160853 129.685846 
L 348.263556 146.613291 
L 360.663556 157.567581 
L 363.344637 159.485561 
L 366.025718 161.137669 
L 369.041934 162.724621 
L 372.05815 164.065905 
L 375.409502 165.31498 
L 377.420313 165.96 
L 377.420313 165.96 
" clip-path="url(#pd08a371a61)" style="fill: none; stroke-dasharray: 9.6,2.4,1.5,2.4; stroke-dashoffset: 0; stroke: #008000; stroke-width: 1.5"/>
   </g>
   <g id="patch_3">
    <path d="M 42.620313 173.52 
L 42.620313 7.2 
" style="fill: none; stroke: #000000; stroke-width: 0.8; stroke-linejoin: miter; stroke-linecap: square"/>
   </g>
   <g id="patch_4">
    <path d="M 377.420313 173.52 
L 377.420313 7.2 
" style="fill: none; stroke: #000000; stroke-width: 0.8; stroke-linejoin: miter; stroke-linecap: square"/>
   </g>
   <g id="patch_5">
    <path d="M 42.620313 173.52 
L 377.420313 173.52 
" style="fill: none; stroke: #000000; stroke-width: 0.8; stroke-linejoin: miter; stroke-linecap: square"/>
   </g>
   <g id="patch_6">
    <path d="M 42.620313 7.2 
L 377.420313 7.2 
" style="fill: none; stroke: #000000; stroke-width: 0.8; stroke-linejoin: miter; stroke-linecap: square"/>
   </g>
   <g id="legend_1">
    <g id="patch_7">
     <path d="M 49.620313 168.52 
L 159.929688 168.52 
Q 161.929688 168.52 161.929688 166.52 
L 161.929688 123.485625 
Q 161.929688 121.485625 159.929688 121.485625 
L 49.620313 121.485625 
Q 47.620313 121.485625 47.620313 123.485625 
L 47.620313 166.52 
Q 47.620313 168.52 49.620313 168.52 
z
" style="fill: #ffffff; opacity: 0.8; stroke: #cccccc; stroke-linejoin: miter"/>
    </g>
    <g id="line2d_28">
     <path d="M 51.620313 129.584063 
L 61.620313 129.584063 
L 71.620313 129.584063 
" style="fill: none; stroke: #1f77b4; stroke-width: 1.5; stroke-linecap: square"/>
    </g>
    <g id="text_15">
     <!-- data -->
     <g transform="translate(79.620313 133.084063)scale(0.1 -0.1)">
      <defs>
       <path id="DejaVuSans-64" d="M 2906 2969 
L 2906 4863 
L 3481 4863 
L 3481 0 
L 2906 0 
L 2906 525 
Q 2725 213 2448 61 
Q 2172 -91 1784 -91 
Q 1150 -91 751 415 
Q 353 922 353 1747 
Q 353 2572 751 3078 
Q 1150 3584 1784 3584 
Q 2172 3584 2448 3432 
Q 2725 3281 2906 2969 
z
M 947 1747 
Q 947 1113 1208 752 
Q 1469 391 1925 391 
Q 2381 391 2643 752 
Q 2906 1113 2906 1747 
Q 2906 2381 2643 2742 
Q 2381 3103 1925 3103 
Q 1469 3103 1208 2742 
Q 947 2381 947 1747 
z
" transform="scale(0.015625)"/>
       <path id="DejaVuSans-61" d="M 2194 1759 
Q 1497 1759 1228 1600 
Q 959 1441 959 1056 
Q 959 750 1161 570 
Q 1363 391 1709 391 
Q 2188 391 2477 730 
Q 2766 1069 2766 1631 
L 2766 1759 
L 2194 1759 
z
M 3341 1997 
L 3341 0 
L 2766 0 
L 2766 531 
Q 2569 213 2275 61 
Q 1981 -91 1556 -91 
Q 1019 -91 701 211 
Q 384 513 384 1019 
Q 384 1609 779 1909 
Q 1175 2209 1959 2209 
L 2766 2209 
L 2766 2266 
Q 2766 2663 2505 2880 
Q 2244 3097 1772 3097 
Q 1472 3097 1187 3025 
Q 903 2953 641 2809 
L 641 3341 
Q 956 3463 1253 3523 
Q 1550 3584 1831 3584 
Q 2591 3584 2966 3190 
Q 3341 2797 3341 1997 
z
" transform="scale(0.015625)"/>
      </defs>
      <use xlink:href="#DejaVuSans-64"/>
      <use xlink:href="#DejaVuSans-61" x="63.476562"/>
      <use xlink:href="#DejaVuSans-74" x="124.755859"/>
      <use xlink:href="#DejaVuSans-61" x="163.964844"/>
     </g>
    </g>
    <g id="line2d_29">
     <path d="M 51.620313 144.262188 
L 61.620313 144.262188 
L 71.620313 144.262188 
" style="fill: none; stroke-dasharray: 5.55,2.4; stroke-dashoffset: 0; stroke: #bf00bf; stroke-width: 1.5"/>
    </g>
    <g id="text_16">
     <!-- 1-step preds -->
     <g transform="translate(79.620313 147.762188)scale(0.1 -0.1)">
      <defs>
       <path id="DejaVuSans-2d" d="M 313 2009 
L 1997 2009 
L 1997 1497 
L 313 1497 
L 313 2009 
z
" transform="scale(0.015625)"/>
       <path id="DejaVuSans-73" d="M 2834 3397 
L 2834 2853 
Q 2591 2978 2328 3040 
Q 2066 3103 1784 3103 
Q 1356 3103 1142 2972 
Q 928 2841 928 2578 
Q 928 2378 1081 2264 
Q 1234 2150 1697 2047 
L 1894 2003 
Q 2506 1872 2764 1633 
Q 3022 1394 3022 966 
Q 3022 478 2636 193 
Q 2250 -91 1575 -91 
Q 1294 -91 989 -36 
Q 684 19 347 128 
L 347 722 
Q 666 556 975 473 
Q 1284 391 1588 391 
Q 1994 391 2212 530 
Q 2431 669 2431 922 
Q 2431 1156 2273 1281 
Q 2116 1406 1581 1522 
L 1381 1569 
Q 847 1681 609 1914 
Q 372 2147 372 2553 
Q 372 3047 722 3315 
Q 1072 3584 1716 3584 
Q 2034 3584 2315 3537 
Q 2597 3491 2834 3397 
z
" transform="scale(0.015625)"/>
       <path id="DejaVuSans-70" d="M 1159 525 
L 1159 -1331 
L 581 -1331 
L 581 3500 
L 1159 3500 
L 1159 2969 
Q 1341 3281 1617 3432 
Q 1894 3584 2278 3584 
Q 2916 3584 3314 3078 
Q 3713 2572 3713 1747 
Q 3713 922 3314 415 
Q 2916 -91 2278 -91 
Q 1894 -91 1617 61 
Q 1341 213 1159 525 
z
M 3116 1747 
Q 3116 2381 2855 2742 
Q 2594 3103 2138 3103 
Q 1681 3103 1420 2742 
Q 1159 2381 1159 1747 
Q 1159 1113 1420 752 
Q 1681 391 2138 391 
Q 2594 391 2855 752 
Q 3116 1113 3116 1747 
z
" transform="scale(0.015625)"/>
       <path id="DejaVuSans-20" transform="scale(0.015625)"/>
       <path id="DejaVuSans-72" d="M 2631 2963 
Q 2534 3019 2420 3045 
Q 2306 3072 2169 3072 
Q 1681 3072 1420 2755 
Q 1159 2438 1159 1844 
L 1159 0 
L 581 0 
L 581 3500 
L 1159 3500 
L 1159 2956 
Q 1341 3275 1631 3429 
Q 1922 3584 2338 3584 
Q 2397 3584 2469 3576 
Q 2541 3569 2628 3553 
L 2631 2963 
z
" transform="scale(0.015625)"/>
      </defs>
      <use xlink:href="#DejaVuSans-31"/>
      <use xlink:href="#DejaVuSans-2d" x="63.623047"/>
      <use xlink:href="#DejaVuSans-73" x="99.707031"/>
      <use xlink:href="#DejaVuSans-74" x="151.806641"/>
      <use xlink:href="#DejaVuSans-65" x="191.015625"/>
      <use xlink:href="#DejaVuSans-70" x="252.539062"/>
      <use xlink:href="#DejaVuSans-20" x="316.015625"/>
      <use xlink:href="#DejaVuSans-70" x="347.802734"/>
      <use xlink:href="#DejaVuSans-72" x="411.279297"/>
      <use xlink:href="#DejaVuSans-65" x="450.142578"/>
      <use xlink:href="#DejaVuSans-64" x="511.666016"/>
      <use xlink:href="#DejaVuSans-73" x="575.142578"/>
     </g>
    </g>
    <g id="line2d_30">
     <path d="M 51.620313 158.940313 
L 61.620313 158.940313 
L 71.620313 158.940313 
" style="fill: none; stroke-dasharray: 9.6,2.4,1.5,2.4; stroke-dashoffset: 0; stroke: #008000; stroke-width: 1.5"/>
    </g>
    <g id="text_17">
     <!-- multistep preds -->
     <g transform="translate(79.620313 162.440313)scale(0.1 -0.1)">
      <defs>
       <path id="DejaVuSans-75" d="M 544 1381 
L 544 3500 
L 1119 3500 
L 1119 1403 
Q 1119 906 1312 657 
Q 1506 409 1894 409 
Q 2359 409 2629 706 
Q 2900 1003 2900 1516 
L 2900 3500 
L 3475 3500 
L 3475 0 
L 2900 0 
L 2900 538 
Q 2691 219 2414 64 
Q 2138 -91 1772 -91 
Q 1169 -91 856 284 
Q 544 659 544 1381 
z
M 1991 3584 
L 1991 3584 
z
" transform="scale(0.015625)"/>
       <path id="DejaVuSans-6c" d="M 603 4863 
L 1178 4863 
L 1178 0 
L 603 0 
L 603 4863 
z
" transform="scale(0.015625)"/>
      </defs>
      <use xlink:href="#DejaVuSans-6d"/>
      <use xlink:href="#DejaVuSans-75" x="97.412109"/>
      <use xlink:href="#DejaVuSans-6c" x="160.791016"/>
      <use xlink:href="#DejaVuSans-74" x="188.574219"/>
      <use xlink:href="#DejaVuSans-69" x="227.783203"/>
      <use xlink:href="#DejaVuSans-73" x="255.566406"/>
      <use xlink:href="#DejaVuSans-74" x="307.666016"/>
      <use xlink:href="#DejaVuSans-65" x="346.875"/>
      <use xlink:href="#DejaVuSans-70" x="408.398438"/>
      <use xlink:href="#DejaVuSans-20" x="471.875"/>
      <use xlink:href="#DejaVuSans-70" x="503.662109"/>
      <use xlink:href="#DejaVuSans-72" x="567.138672"/>
      <use xlink:href="#DejaVuSans-65" x="606.001953"/>
      <use xlink:href="#DejaVuSans-64" x="667.525391"/>
      <use xlink:href="#DejaVuSans-73" x="731.001953"/>
     </g>
    </g>
   </g>
  </g>
 </g>
 <defs>
  <clipPath id="pd08a371a61">
   <rect x="42.620313" y="7.2" width="334.8" height="166.32"/>
  </clipPath>
 </defs>
</svg>
